<svg width="745" height="544" viewBox="0 0 745 544" fill="none" xmlns="http://www.w3.org/2000/svg">
    <path opacity="0.0845424"
        d="M673.322 164.249C682.7 151.731 700.455 149.18 712.981 158.552C725.381 167.83 728.007 185.315 718.959 197.81L718.681 198.187L644.381 297.374C634.918 310.007 617.342 313.21 604.042 304.802L603.641 304.544L556.867 273.948L509.707 342.593C500.939 355.356 483.566 358.694 470.704 350.171L470.315 349.909C457.545 341.146 454.206 323.783 462.734 310.928L462.996 310.54L524.795 220.586C534.001 207.185 552.143 203.492 565.843 212.144L566.257 212.41L613.9 243.575L673.322 164.249Z"
        fill="#0a83cf" />
    <path opacity="0.0845424"
        d="M430.12 3.29424C432.498 -0.160161 437.234 -1.03872 440.698 1.33194C444.117 3.67139 445.02 8.3009 442.758 11.7421L442.666 11.8791L424.15 38.779C421.435 42.5698 416.183 43.4829 412.347 40.8606L412.21 40.7654L401.576 33.1946L390.05 51.4538C387.841 54.9536 383.236 56.0368 379.698 53.9185L379.559 53.8332C376.049 51.6305 374.962 47.0392 377.087 43.5109L377.172 43.3722L392.457 19.158C394.975 15.169 400.259 13.9705 404.26 16.4812L404.469 16.6168L404.675 16.7584L415.532 24.4883L430.12 3.29424Z"
        fill="#0a83cf" />
    <path opacity="0.070266" fill-rule="evenodd" clip-rule="evenodd"
        d="M632.406 129.308C633.786 129.308 634.906 128.189 634.906 126.808V108.831H652.895C654.275 108.831 655.395 107.712 655.395 106.331V97.6761C655.395 96.2954 654.275 95.1761 652.895 95.1761H634.906V77.0664C634.906 75.6857 633.786 74.5664 632.406 74.5664H623.61C622.229 74.5664 621.11 75.6857 621.11 77.0664V95.1761H603.121C601.74 95.1761 600.621 96.2954 600.621 97.6761V106.331C600.621 107.712 601.74 108.831 603.121 108.831H621.11V126.808C621.11 128.189 622.229 129.308 623.61 129.308H632.406Z"
        fill="#00CFE8" />
    <path opacity="0.0739397" fill-rule="evenodd" clip-rule="evenodd"
        d="M91.604 20C142.195 20 183.208 60.9886 183.208 111.551C183.208 162.113 142.195 203.101 91.604 203.101C41.0125 203.101 0 162.113 0 111.551C0 60.9886 41.0125 20 91.604 20ZM91.604 65.3034C66.0475 65.3034 45.3298 86.0089 45.3298 111.551C45.3298 137.092 66.0475 157.798 91.604 157.798C117.161 157.798 137.878 137.092 137.878 111.551C137.878 86.0089 117.161 65.3034 91.604 65.3034Z"
        fill="#00CFE8" />
    <path fill-rule="evenodd" clip-rule="evenodd"
        d="M60.5977 101C60.5977 92.1634 67.7611 85 76.5977 85H546.726C555.563 85 562.726 92.1634 562.726 101V305.224C562.726 314.061 555.563 321.224 546.726 321.224H76.5977C67.7612 321.224 60.5977 314.061 60.5977 305.224V101Z"
        fill="#141A2B" />
    <path fill-rule="evenodd" clip-rule="evenodd"
        d="M68.1484 101C68.1484 92.1634 75.3118 85 84.1484 85H546.726C555.563 85 562.726 92.1634 562.726 101V305.224C562.726 314.061 555.563 321.224 546.726 321.224H84.1484C75.3119 321.224 68.1484 314.061 68.1484 305.224V101Z"
        fill="#181F33" />
    <path fill-rule="evenodd" clip-rule="evenodd"
        d="M75.6992 102.559C75.6992 97.0362 80.1763 92.5591 85.6992 92.5591H545.175C550.698 92.5591 555.175 97.0362 555.175 102.559V303.665C555.175 309.188 550.698 313.665 545.175 313.665H85.6992C80.1763 313.665 75.6992 309.188 75.6992 303.665V102.559Z"
        fill="#283046" />
    <path fill-rule="evenodd" clip-rule="evenodd"
        d="M274.852 299.823C274.852 296.509 277.538 293.823 280.852 293.823H350.023C353.336 293.823 356.023 296.509 356.023 299.823V313.665H274.852V299.823Z"
        fill="#D4EFFF" />
    <path
        d="M282.402 299.823C282.402 296.509 285.089 293.823 288.402 293.823H357.574C360.887 293.823 363.574 296.509 363.574 299.823V321.225H282.402V299.823Z"
        fill="#91D6FF" />
    <g filter="url(#filter0_d_399_372)">
        <path fill-rule="evenodd" clip-rule="evenodd"
            d="M89.8574 107.397C89.8574 104.421 92.27 102.008 95.2461 102.008H220.27C223.246 102.008 225.659 104.421 225.659 107.397V148.047C225.659 151.023 223.246 153.436 220.27 153.436H95.2461C92.27 153.436 89.8574 151.023 89.8574 148.047V107.397Z"
            fill="#313A53" />
    </g>
    <path opacity="0.454078" fill-rule="evenodd" clip-rule="evenodd"
        d="M130.039 132.559C130.039 131.715 130.723 131.031 131.567 131.031H156.994C157.838 131.031 158.522 131.715 158.522 132.559C158.522 133.403 157.838 134.087 156.994 134.087H131.567C130.723 134.087 130.039 133.403 130.039 132.559Z"
        fill="#916D7F" />
    <path fill-rule="evenodd" clip-rule="evenodd"
        d="M130.039 123.903C130.039 123.059 130.723 122.375 131.567 122.375H146.822C147.665 122.375 148.349 123.059 148.349 123.903C148.349 124.747 147.665 125.431 146.822 125.431H131.567C130.723 125.431 130.039 124.747 130.039 123.903Z"
        fill="#0a83cf" />
    <path fill-rule="evenodd" clip-rule="evenodd"
        d="M204.815 120.284C206.985 117.429 211.055 116.876 213.906 119.049C214.562 119.548 215.117 120.169 215.541 120.876C215.76 121.241 215.641 121.714 215.277 121.933C214.913 122.151 214.441 122.033 214.222 121.668C213.899 121.128 213.475 120.655 212.975 120.274C210.844 118.651 207.821 119.022 206.142 121.085L206.039 121.216L203.654 124.353C199.929 129.254 193.626 131.414 187.695 129.848L187.441 129.779L185.523 129.237C185.399 129.202 185.275 129.171 185.149 129.143C181.641 128.369 178.17 130.541 177.311 134.011L177.271 134.182L176.875 135.98C176.735 136.617 176.464 137.217 176.078 137.741C174.553 139.817 171.635 140.262 169.561 138.735C169.219 138.483 169.146 138.001 169.398 137.659C169.649 137.316 170.131 137.243 170.473 137.495C171.862 138.518 173.817 138.22 174.839 136.829C175.065 136.521 175.233 136.175 175.334 135.808L175.373 135.649L175.769 133.851C176.737 129.451 181.085 126.67 185.48 127.639L185.711 127.694L185.94 127.755L187.859 128.297C193.174 129.799 198.859 127.946 202.274 123.622L202.43 123.421L204.815 120.284Z"
        fill="#0a83cf" />
    <path fill-rule="evenodd" clip-rule="evenodd"
        d="M197.884 119.353C199.454 115.857 203.559 114.296 207.051 115.869C207.753 116.184 208.397 116.615 208.958 117.142C210.277 118.384 211.499 120.347 212.644 123.035C212.81 123.426 212.629 123.878 212.238 124.045C211.847 124.212 211.396 124.03 211.229 123.639C210.16 121.13 209.045 119.338 207.904 118.264C207.468 117.854 206.967 117.519 206.421 117.273C203.752 116.072 200.625 117.22 199.355 119.838L199.287 119.984L198.792 121.086C198.677 121.343 198.544 121.591 198.396 121.83C196.568 124.766 192.709 125.663 189.776 123.834C189.427 123.616 189.044 123.458 188.643 123.366C186.691 122.919 184.747 124.102 184.232 126.022L184.199 126.157L183.343 129.899C183.085 131.026 182.537 132.067 181.755 132.917C179.314 135.571 175.216 135.785 172.515 133.434L172.371 133.305L168.885 130.092C168.572 129.804 168.552 129.317 168.84 129.004C169.109 128.712 169.55 128.675 169.862 128.905L169.927 128.959L173.413 132.173C175.486 134.083 178.715 133.95 180.623 131.874C181.178 131.271 181.579 130.543 181.794 129.754L181.843 129.555L182.699 125.813C183.346 122.985 186.161 121.217 188.986 121.865C189.483 121.979 189.96 122.165 190.402 122.416L190.59 122.527C192.802 123.907 195.712 123.23 197.09 121.016C197.165 120.896 197.234 120.772 197.298 120.646L197.389 120.455L197.884 119.353Z"
        fill="#916D7F" />
    <path
        d="M112.491 138.669C118.249 138.669 122.918 133.996 122.918 128.231C122.918 122.466 118.249 117.792 112.491 117.792C106.732 117.792 102.064 122.466 102.064 128.231C102.064 133.996 106.732 138.669 112.491 138.669Z"
        fill="#0a83cf" />
    <g filter="url(#filter1_d_399_372)">
        <path fill-rule="evenodd" clip-rule="evenodd"
            d="M89.8574 165.592C89.8574 162.83 92.0959 160.592 94.8574 160.592H253.807C256.568 160.592 258.807 162.83 258.807 165.592V298.271C258.807 301.033 256.568 303.271 253.807 303.271H94.8574C92.0959 303.271 89.8574 301.033 89.8574 298.271V165.592Z"
            fill="#313A53" />
    </g>
    <mask id="mask0_399_372" style="mask-type:alpha" maskUnits="userSpaceOnUse" x="89" y="160"
        width="170" height="144">
        <path fill-rule="evenodd" clip-rule="evenodd"
            d="M89.8574 165.592C89.8574 162.83 92.0959 160.592 94.8574 160.592H253.807C256.568 160.592 258.807 162.83 258.807 165.592V298.271C258.807 301.033 256.568 303.271 253.807 303.271H94.8574C92.0959 303.271 89.8574 301.033 89.8574 298.271V165.592Z"
            fill="white" />
    </mask>
    <g mask="url(#mask0_399_372)">
        <g filter="url(#filter2_d_399_372)">
            <path
                d="M112.51 270.2C112.51 270.2 132.595 264.426 141.451 252.639C150.307 240.853 153.293 229.428 168.524 229.428C183.756 229.428 185.708 246.926 202.174 246.926C218.64 246.926 219.54 224.612 225.013 215.752C230.485 206.892 239.93 206.892 239.93 206.892"
                stroke="#8EEAF6" stroke-width="4.004" stroke-linecap="round" />
        </g>
        <path opacity="0.414737" fill-rule="evenodd" clip-rule="evenodd"
            d="M112.51 268.982C112.51 268.982 132.595 263.232 141.451 251.497C150.307 239.761 153.293 228.386 168.524 228.386C183.756 228.386 185.708 245.808 202.174 245.808C218.64 245.808 219.54 223.59 225.013 214.769C230.485 205.947 239.93 205.947 239.93 205.947V280.348C239.93 282.049 238.551 283.428 236.85 283.428H115.59C113.889 283.428 112.51 282.049 112.51 280.348V268.982Z"
            fill="#CEF9FF" />
        <path
            d="M153.093 174.765H105.907C104.341 174.765 103.072 176.034 103.072 177.599V177.599C103.072 179.165 104.341 180.434 105.907 180.434H153.093C154.658 180.434 155.927 179.165 155.927 177.599C155.927 176.034 154.658 174.765 153.093 174.765Z"
            fill="#8EEAF6" />
        <path fill-rule="evenodd" clip-rule="evenodd"
            d="M103.072 191.772C103.072 190.207 104.341 188.938 105.907 188.938H124.778C126.343 188.938 127.612 190.207 127.612 191.772C127.612 193.338 126.343 194.607 124.778 194.607H105.907C104.341 194.607 103.072 193.338 103.072 191.772Z"
            fill="#8EEAF6" fill-opacity="0.401934" />
        <path
            d="M226.243 181.38C228.067 181.38 229.546 179.899 229.546 178.073C229.546 176.246 228.067 174.766 226.243 174.766C224.418 174.766 222.939 176.246 222.939 178.073C222.939 179.899 224.418 181.38 226.243 181.38Z"
            fill="#8EEAF6" fill-opacity="0.451705" />
        <path
            d="M235.682 181.38C237.506 181.38 238.985 179.899 238.985 178.073C238.985 176.246 237.506 174.766 235.682 174.766C233.857 174.766 232.378 176.246 232.378 178.073C232.378 179.899 233.857 181.38 235.682 181.38Z"
            fill="#8EEAF6" fill-opacity="0.451705" />
        <path
            d="M245.12 181.38C246.944 181.38 248.423 179.899 248.423 178.073C248.423 176.246 246.944 174.766 245.12 174.766C243.295 174.766 241.816 176.246 241.816 178.073C241.816 179.899 243.295 181.38 245.12 181.38Z"
            fill="#8EEAF6" fill-opacity="0.451705" />
    </g>
    <g filter="url(#filter3_d_399_372)">
        <path fill-rule="evenodd" clip-rule="evenodd"
            d="M285.234 122.721C285.234 118.588 288.585 115.237 292.719 115.237H517.931C522.065 115.237 525.416 118.588 525.416 122.721V273.237C525.416 277.371 522.065 280.721 517.931 280.721H292.719C288.585 280.721 285.234 277.371 285.234 273.237V122.721Z"
            fill="#313A53" />
    </g>
    <path fill-rule="evenodd" clip-rule="evenodd"
        d="M325.854 200.101V259.287H317.023V200.101H325.854Z" fill="#E9C7CD" />
    <path fill-rule="evenodd" clip-rule="evenodd"
        d="M325.854 214.245V259.287H317.023V214.245H325.854Z" fill="#D7939F" />
    <path fill-rule="evenodd" clip-rule="evenodd"
        d="M325.854 242.533V259.287H317.023V242.533H325.854Z" fill="#0a83cf" />
    <path fill-rule="evenodd" clip-rule="evenodd"
        d="M347.045 185.957V259.287H338.215V185.957H347.045Z" fill="#E9C7CD" />
    <path fill-rule="evenodd" clip-rule="evenodd"
        d="M347.045 207.173V259.287H338.215V207.173H347.045Z" fill="#D7939F" />
    <path fill-rule="evenodd" clip-rule="evenodd"
        d="M347.045 242.533V259.287H338.215V242.533H347.045Z" fill="#0a83cf" />
    <path fill-rule="evenodd" clip-rule="evenodd"
        d="M368.238 196.565V259.287H359.408V196.565H368.238Z" fill="#E9C7CD" />
    <path fill-rule="evenodd" clip-rule="evenodd"
        d="M368.238 217.781V259.287H359.408V217.781H368.238Z" fill="#D7939F" />
    <path fill-rule="evenodd" clip-rule="evenodd"
        d="M368.238 246.069V259.287H359.408V246.069H368.238Z" fill="#0a83cf" />
    <path fill-rule="evenodd" clip-rule="evenodd" d="M389.43 178.885V259.287H380.6V178.885H389.43Z"
        fill="#E9C7CD" />
    <path fill-rule="evenodd" clip-rule="evenodd" d="M389.43 200.101V259.287H380.6V200.101H389.43Z"
        fill="#D7939F" />
    <path fill-rule="evenodd" clip-rule="evenodd" d="M389.43 228.389V259.287H380.6V228.389H389.43Z"
        fill="#0a83cf" />
    <path fill-rule="evenodd" clip-rule="evenodd"
        d="M410.623 164.741V259.287H401.793V164.741H410.623Z" fill="#E9C7CD" />
    <path fill-rule="evenodd" clip-rule="evenodd"
        d="M410.623 193.029V259.287H401.793V193.029H410.623Z" fill="#D7939F" />
    <path fill-rule="evenodd" clip-rule="evenodd"
        d="M410.623 235.461V259.287H401.793V235.461H410.623Z" fill="#0a83cf" />
    <path fill-rule="evenodd" clip-rule="evenodd"
        d="M431.817 185.957V259.287H422.986V185.957H431.817Z" fill="#E9C7CD" />
    <path fill-rule="evenodd" clip-rule="evenodd"
        d="M431.817 207.173V259.287H422.986V207.173H431.817Z" fill="#D7939F" />
    <path fill-rule="evenodd" clip-rule="evenodd"
        d="M431.817 239.704V259.287H422.986V239.704H431.817Z" fill="#0a83cf" />
    <path fill-rule="evenodd" clip-rule="evenodd"
        d="M453.008 193.029V259.287H444.178V193.029H453.008Z" fill="#E9C7CD" />
    <path fill-rule="evenodd" clip-rule="evenodd"
        d="M453.008 207.173V259.287H444.178V207.173H453.008Z" fill="#D7939F" />
    <path fill-rule="evenodd" clip-rule="evenodd"
        d="M453.008 234.754V259.287H444.178V234.754H453.008Z" fill="#0a83cf" />
    <path fill-rule="evenodd" clip-rule="evenodd"
        d="M474.201 178.885V259.287H465.371V178.885H474.201Z" fill="#E9C7CD" />
    <path fill-rule="evenodd" clip-rule="evenodd"
        d="M474.201 207.173V259.287H465.371V207.173H474.201Z" fill="#D7939F" />
    <path fill-rule="evenodd" clip-rule="evenodd"
        d="M474.201 241.825V259.287H465.371V241.825H474.201Z" fill="#0a83cf" />
    <path fill-rule="evenodd" clip-rule="evenodd"
        d="M495.393 193.029V259.287H486.563V193.029H495.393Z" fill="#E9C7CD" />
    <path fill-rule="evenodd" clip-rule="evenodd"
        d="M495.393 207.173V259.287H486.563V207.173H495.393Z" fill="#D7939F" />
    <path fill-rule="evenodd" clip-rule="evenodd"
        d="M495.393 241.826V259.287H486.563V241.826H495.393Z" fill="#0a83cf" />
    <path opacity="0.57573" fill-rule="evenodd" clip-rule="evenodd"
        d="M314.197 145.647C314.197 144.475 315.147 143.525 316.319 143.525H386.956C388.127 143.525 389.077 144.475 389.077 145.647C389.077 146.818 388.127 147.768 386.956 147.768H316.319C315.147 147.768 314.197 146.818 314.197 145.647Z"
        fill="#D7939F" />
    <path
        d="M351.635 131.502H316.318C315.147 131.502 314.197 132.452 314.197 133.624C314.197 134.795 315.147 135.745 316.318 135.745H351.635C352.806 135.745 353.756 134.795 353.756 133.624C353.756 132.452 352.806 131.502 351.635 131.502Z"
        fill="#0a83cf" />
    <path fill-rule="evenodd" clip-rule="evenodd"
        d="M558.041 449.882L569.484 540.29L563.485 540.21L552.042 450.728L558.041 449.882Z"
        fill="#BFE7FF" />
    <path fill-rule="evenodd" clip-rule="evenodd"
        d="M480.619 464.093C475.403 464.093 471.174 459.864 471.174 454.648C471.174 449.431 475.403 445.203 480.619 445.203H518.381C524.103 445.203 528.885 440.849 529.421 435.153L535.459 370.96C535.994 365.263 540.776 360.91 546.498 360.91H570.198C576.656 360.91 581.748 366.408 581.253 372.848L575.029 453.854C574.585 459.632 569.768 464.093 563.974 464.093H480.619Z"
        fill="#91D6FF" />
    <path fill-rule="evenodd" clip-rule="evenodd"
        d="M471.176 454.567C471.228 454.568 471.28 454.568 471.332 454.568H554.462C560.255 454.568 565.072 450.108 565.517 444.332L571.737 363.614C571.804 362.734 571.768 361.872 571.638 361.038C571.086 360.954 570.521 360.91 569.944 360.91H546.355C540.635 360.91 535.854 365.262 535.316 370.957L529.283 434.916C528.746 440.611 523.965 444.963 518.244 444.963H480.595C475.392 444.963 471.174 449.181 471.174 454.384C471.174 454.445 471.174 454.506 471.176 454.567Z"
        fill="#BFE7FF" />
    <path fill-rule="evenodd" clip-rule="evenodd"
        d="M545.278 345.34C557.476 342.498 558.279 325.746 549.005 319.935C558.569 299.875 536.452 279.958 521.302 292.241C511.37 287.987 503.116 304.586 512.358 317.478C508.483 339.613 516.37 345.335 530.586 345.578L545.278 345.34Z"
        fill="#422851" />
    <path fill-rule="evenodd" clip-rule="evenodd"
        d="M545.125 341.339C545.125 341.339 539.191 339.946 538.985 330.217C538.78 320.489 538.924 317.169 538.924 317.169L525.854 316.933C525.854 316.933 525.711 327.774 525.709 331.696C525.704 342.229 518.369 341.339 518.369 341.339C518.369 341.339 519.893 349.88 531.737 350.546C540.984 351.067 545.125 341.339 545.125 341.339Z"
        fill="url(#paint0_linear_399_372)" />
    <path fill-rule="evenodd" clip-rule="evenodd"
        d="M541.972 312.311C547.803 312.085 546.852 320.626 540.795 320.614C540.795 320.614 537.277 332.746 525.063 332.746C515.143 332.746 514.498 318.606 514.408 315.785C514.311 312.777 514.299 302.897 514.299 302.897L542.199 302.884L541.972 312.311Z"
        fill="url(#paint1_linear_399_372)" />
    <path d="M527.418 324.596C527.418 324.596 524.509 327.06 521.139 324.752" stroke="#F77B7B"
        stroke-width="1.5" stroke-linecap="round" />
    <path d="M525.496 327.45C524.591 327.868 523.719 327.898 522.941 327.482" stroke="#F49494"
        stroke-linecap="round" />
    <path d="M541.377 316.904C541.317 315.534 541.734 314.446 543.131 314.227" stroke="#F77B7B"
        stroke-linecap="round" />
    <path fill-rule="evenodd" clip-rule="evenodd"
        d="M542.894 311.256C542.894 311.256 539.698 315.546 539.051 315.569C538.404 315.592 538.177 309.989 538.177 309.989C534.256 309.689 524.335 307.712 521.903 303.107C520.202 307.17 516.95 308.975 514.814 308.629L514.409 317.261L513.412 299.906H543.676L542.894 311.256Z"
        fill="#422851" />
    <path fill-rule="evenodd" clip-rule="evenodd"
        d="M485.406 512.891C485.406 512.891 490.637 523.462 486.349 526.793C482.054 530.125 470.71 536.368 470.71 536.368L500.764 534.478L494.083 511.424L485.406 512.891Z"
        fill="url(#paint2_linear_399_372)" />
    <path fill-rule="evenodd" clip-rule="evenodd"
        d="M497.856 522.951C496.373 523.125 497.957 528.121 494.746 528.501C491.541 528.88 489.983 524.147 486.347 525.647C482.71 527.148 469.446 534.906 468.924 538.078C468.395 541.249 473.337 542.182 480.114 541.466C486.891 540.75 488.14 538.337 493.228 539.309C498.309 540.28 502.115 538.732 501.948 535.017C501.78 531.303 499.339 522.778 497.856 522.951Z"
        fill="#222D4E" />
    <path fill-rule="evenodd" clip-rule="evenodd"
        d="M484.687 526.417L485.347 527.406C485.671 527.892 485.512 528.551 485.003 528.835L476.037 533.841C475.746 534.003 475.394 534.009 475.097 533.859L473.705 533.153C475.891 531.569 477.678 530.379 479.654 529.21C481.17 528.313 482.849 527.388 484.687 526.417Z"
        fill="white" fill-opacity="0.540975" />
    <path fill-rule="evenodd" clip-rule="evenodd"
        d="M530.677 419.725C521.578 420.131 470.939 431.338 461.738 433.242C452.538 435.146 444.759 445.448 451.775 457.377C459.655 470.768 479.986 508.799 484.923 517.373C487.366 521.616 499.692 519.237 496.796 512.115C491.399 498.838 488.893 465.485 475.132 453.324C475.132 453.324 521.409 461.382 541.398 452.152C555.926 445.442 552.64 418.742 530.677 419.725Z"
        fill="url(#paint3_linear_399_372)" />
    <path fill-rule="evenodd" clip-rule="evenodd"
        d="M466.21 365.893C466.21 365.893 466.313 358.486 463.724 354.615C461.134 350.744 461.031 346.632 459.071 346.766C457.111 346.901 459.052 356.458 459.052 356.458C459.052 356.458 456.565 355.508 454.779 354.306C452.992 353.103 447.575 347.176 446.31 348.226C444.163 350.016 447.62 360.111 449.503 362.129C451.392 364.148 461.712 370.787 461.712 370.787L466.21 365.893Z"
        fill="url(#paint4_linear_399_372)" />
    <path fill-rule="evenodd" clip-rule="evenodd"
        d="M522.124 361.454C517.891 371.276 510.142 389.32 506.947 394.703C502.943 401.444 496.63 404.414 489.238 399.413C481.47 394.157 460.083 373.657 459.456 369.014C458.834 364.37 464.069 358.799 468.806 361.683C473.542 364.568 493.224 380.956 493.224 380.956C493.224 380.956 501.167 360.583 507.557 348.782C513.09 338.572 528.566 346.523 522.124 361.454Z"
        fill="#0a83cf" />
    <path fill-rule="evenodd" clip-rule="evenodd"
        d="M493.143 380.966C493.143 380.966 491.009 388.206 490.511 387.787C490.012 387.368 490.892 379.074 490.892 379.074L493.143 380.966Z"
        fill="black" fill-opacity="0.302803" />
    <path fill-rule="evenodd" clip-rule="evenodd"
        d="M564.422 349.62C564.422 349.62 554.223 383.791 553.92 390.259C553.618 396.728 562.262 415.74 560.791 420.545C557.397 431.65 514.074 436.431 512.419 421.493C511.647 414.526 513.253 408.273 511.402 400.064C509.558 391.855 502.144 379.657 506.349 368.188C510.554 356.719 509.427 346.109 512.435 344.103C515.443 342.098 522.474 339.968 522.474 339.968C525.893 345.002 537.436 344.929 542.943 339.613C542.943 339.613 556.626 342.269 564.422 349.62Z"
        fill="#0a83cf" />
    <path fill-rule="evenodd" clip-rule="evenodd"
        d="M555.282 355.154C548.483 365.949 548.503 384.745 544.852 387.206C541.201 389.668 526.989 387.252 526.989 389.202C526.989 391.151 546.628 409.016 543.404 417.557C541.716 422.029 542.174 426.029 544.778 429.559L545.628 429.373C553.366 427.624 559.587 424.482 560.79 420.545C562.262 415.74 552.621 396.728 552.923 390.259C553.179 384.768 561.286 359.315 563.731 351.747C561.74 348.234 558.924 349.37 555.282 355.154Z"
        fill="black" fill-opacity="0.199355" />
    <path fill-rule="evenodd" clip-rule="evenodd"
        d="M543.69 383.794C543.69 383.794 535.099 376.187 532.469 375.304C529.839 374.421 514.436 373.36 514.534 375.355C514.644 377.493 522.917 377.37 523.774 378.421C524.631 379.472 524.826 386.659 528.066 387.465C531.3 388.272 540.995 389.663 540.995 389.663L543.69 383.794Z"
        fill="url(#paint5_linear_399_372)" />
    <path fill-rule="evenodd" clip-rule="evenodd"
        d="M566.544 351.583C575.595 364.364 583.322 383.833 586.289 391.423C589.255 399.013 586.263 410.462 573.22 408.214C560.2 405.973 539.484 393.792 537.192 390.239C534.9 386.686 538.382 380.221 542.767 381.067C546.83 381.85 566.98 390.423 566.98 390.423C566.98 390.423 554.017 367.432 550.851 361.269C545.563 350.976 558.571 340.322 566.544 351.583Z"
        fill="#0a83cf" />
    <path fill-rule="evenodd" clip-rule="evenodd"
        d="M566.776 390.266C566.776 390.266 573.566 393.641 572.738 392.225C571.91 390.81 564.185 385.837 564.185 385.837L566.776 390.266Z"
        fill="black" fill-opacity="0.302803" />
    <path fill-rule="evenodd" clip-rule="evenodd"
        d="M234.064 509.194C234.064 509.194 233.928 517.906 239.274 521C244.62 524.095 252.903 529.844 252.903 529.844L221.395 530.913L222.293 509.116L234.064 509.194Z"
        fill="#F8CFCF" />
    <path fill-rule="evenodd" clip-rule="evenodd"
        d="M220.294 518.794L219.781 532.926H227.1L227.601 531.105C227.601 531.105 230.357 530.992 231.949 531.779C233.632 532.61 233.858 533.014 233.858 533.014L257.072 533.063C257.072 533.063 258.217 528.495 251.141 525.191C244.065 521.887 238.912 517.197 237.934 516.717C236.948 516.233 234.959 515.96 233.558 517.096C232.158 518.232 231.05 521.219 227.876 521.312C223.791 521.433 221.444 516.404 220.294 518.794Z"
        fill="#4B4B4B" />
    <path d="M240.133 518.25L237.727 520.577" stroke="white" stroke-width="2" stroke-linecap="round" />
    <path d="M243.641 520.014L241.234 522.342" stroke="white" stroke-width="2"
        stroke-linecap="round" />
    <path d="M247.151 521.779L244.744 524.107" stroke="white" stroke-width="2"
        stroke-linecap="round" />
    <path fill-rule="evenodd" clip-rule="evenodd"
        d="M211.002 321C211.002 321 219.755 417.38 220.028 424.079C220.3 430.779 217.216 442.342 217.276 454.874C217.336 467.406 218.402 511.575 218.402 511.575L237.712 511.984C237.712 511.984 245.827 432.167 245.915 420.198C246.002 408.229 246.746 322.152 246.746 322.152L211.002 321Z"
        fill="#383838" />
    <path opacity="0.283552" fill-rule="evenodd" clip-rule="evenodd"
        d="M224.921 427.079L224.942 427.318C225.233 431.404 222.695 444.846 217.329 467.645L217.276 454.874C217.217 442.565 220.191 431.192 220.039 424.443L220.028 424.079C219.936 421.822 218.881 409.379 217.523 393.872L218.157 396.143C221.88 409.595 224.134 419.908 224.921 427.079Z"
        fill="white" fill-opacity="0.192499" />
    <path fill-rule="evenodd" clip-rule="evenodd"
        d="M187.48 507.965L183.756 530.524L197.484 530.455L197.918 507.612L187.48 507.965Z"
        fill="#F8CFCF" />
    <path fill-rule="evenodd" clip-rule="evenodd"
        d="M186.003 517.723C184.659 518.014 183.685 519.182 183.64 520.556L183.529 523.909C181.587 526.063 180.67 532.286 180.573 532.976C180.567 533.019 180.563 533.06 180.568 533.104C180.853 536.153 200.822 536.116 202.697 533.249C202.782 533.118 202.788 532.963 202.763 532.809C202.553 531.538 201.437 525.384 199.292 523.706L199.279 520.383C199.274 519.03 198.364 517.848 197.057 517.497L194.994 516.943C192.987 514.016 190.252 514.12 187.909 517.309L186.003 517.723Z"
        fill="#4B4B4B" />
    <path d="M188.688 519.748H194.245" stroke="white" stroke-width="2" stroke-linecap="round" />
    <path d="M188.688 522.393H194.245" stroke="white" stroke-width="2" stroke-linecap="round" />
    <path d="M189.57 525.037H193.36" stroke="white" stroke-width="2" stroke-linecap="round" />
    <path fill-rule="evenodd" clip-rule="evenodd"
        d="M194.403 322.265C194.403 322.265 188.27 388.331 188.353 400.982C188.436 413.635 190.241 419.191 187.673 428.267C185.104 437.343 182.914 509.786 182.914 509.786L201.905 511.864C201.905 511.864 214.038 434.346 215.357 423.599C216.676 412.851 232.982 321.353 232.982 321.353L194.403 322.265Z"
        fill="#2E2E2E" />
    <path opacity="0.283552" fill-rule="evenodd" clip-rule="evenodd"
        d="M199.532 367.105L198.374 371.298C194.982 383.674 191.851 396.761 192.671 415.455L192.711 416.309C192.912 420.358 190.336 443.861 184.982 486.817L184.473 489.836C183.948 492.915 183.48 495.542 183.07 497.717L183.187 493.913C183.869 472.915 185.706 435.216 187.672 428.267C190.24 419.191 188.436 413.635 188.352 400.983C188.294 392.126 191.282 357.097 193.08 336.877L194.403 322.265L202.419 322.076L202.439 324.326C202.58 345.099 201.611 359.358 199.532 367.105Z"
        fill="white" fill-opacity="0.192499" />
    <path fill-rule="evenodd" clip-rule="evenodd"
        d="M287.836 240.566C287.836 240.566 286.251 231.828 286.821 230.058C287.308 228.529 291.91 226.324 291.91 226.324C291.91 226.324 299.914 213.818 301.666 215.091C303.091 216.123 297.498 225.343 297.498 225.343C297.498 225.343 302.598 230.636 302.527 233.002C302.456 235.368 294.202 242.774 294.202 242.774L287.836 240.566Z"
        fill="#F8CFCF" />
    <path fill-rule="evenodd" clip-rule="evenodd"
        d="M292.082 226.198C292.082 226.198 295.627 225.721 296.191 226.812C296.672 227.742 293.727 230.379 293.727 231.12C293.727 231.861 293.769 237.471 294.006 237.522C294.243 237.573 297.557 228.367 296.85 226.42C296.268 224.821 292.082 226.198 292.082 226.198Z"
        fill="#F28585" />
    <path fill-rule="evenodd" clip-rule="evenodd"
        d="M245.548 251.684C236.263 243.662 222.32 258.124 237.867 271.569C243.799 276.699 262.43 289.493 266.998 292.307C274.269 296.785 280.244 292.744 282.699 285.697C284.782 279.723 297.241 247.743 295.655 243.046C294.622 239.982 289.073 237.001 286.288 239.412C282.218 242.935 269.768 273.839 269.768 273.839C269.768 273.839 256.106 260.805 245.548 251.684Z"
        fill="#0a83cf" />
    <path fill-rule="evenodd" clip-rule="evenodd"
        d="M269.768 273.839C269.768 273.839 273.845 278.786 274.14 278.03C274.434 277.275 270.906 270.918 270.906 270.918L269.768 273.839Z"
        fill="black" fill-opacity="0.159856" />
    <path d="M285.205 241.393C288.445 239.893 291.984 241.748 293.934 244.724" stroke="#9B384B"
        stroke-linecap="round" />
    <path fill-rule="evenodd" clip-rule="evenodd"
        d="M205.744 242.431C205.744 242.431 211.082 241.203 211.268 232.628C211.453 224.053 211.323 221.125 211.323 221.125L223.979 220.917C223.979 220.917 224.106 230.474 224.109 233.931C224.113 241.456 229.814 243.49 229.814 243.49C229.814 243.49 229.341 251.718 218.686 252.306C210.367 252.765 205.744 242.431 205.744 242.431Z"
        fill="#F8C5C5" />
    <path fill-rule="evenodd" clip-rule="evenodd"
        d="M235.251 211.882L234.969 219.986C237.36 217.23 238.976 213.814 239.454 209.433L235.251 211.882Z"
        fill="url(#paint6_linear_399_372)" />
    <path fill-rule="evenodd" clip-rule="evenodd"
        d="M210.159 216.791C204.914 216.592 205.77 224.12 211.219 224.11C211.219 224.11 217.075 235.654 226.269 235.684C230.698 235.698 232.143 231.831 233.471 229.116C234.799 226.401 235.773 222.34 235.854 219.854C235.941 217.202 235.952 208.493 235.952 208.493L209.955 208.481L210.159 216.791Z"
        fill="#F8CFCF" />
    <path fill-rule="evenodd" clip-rule="evenodd"
        d="M235.952 212.489H217.669C217.477 215.728 216.379 218.417 213.593 220.401C213.672 225.146 215.291 228.6 218.099 231.023C220.543 224.155 235.496 226.034 234.408 230.515C232.123 239.929 210.708 240.142 212.007 218.476C211.153 217.334 208.098 217.12 207.092 218.262C205.374 213.529 206.107 206.832 211.075 205.864C207.175 195.777 260.197 193.643 235.952 212.489Z"
        fill="#424242" />
    <path d="M224.236 230.099C224.236 230.099 226.619 231.815 229.754 229.939" stroke="#CC6969"
        stroke-linecap="round" />
    <path d="M210.977 221.089C211.031 219.881 210.655 218.922 209.398 218.729" stroke="#DE6767"
        stroke-linecap="round" />
    <path fill-rule="evenodd" clip-rule="evenodd"
        d="M208.091 241L223.194 250.796L230.004 242.887C230.004 242.887 244.35 247.327 247.012 252.518C250.852 260.008 245.792 320.022 247.998 323.643C252.699 331.36 246.449 336.658 225.759 338.604C205.069 340.55 186.714 338.957 190.044 328.658C193.376 318.359 180.521 251.147 191.854 247.445C195.395 246.288 208.091 241 208.091 241Z"
        fill="#0a83cf" />
    <path fill-rule="evenodd" clip-rule="evenodd"
        d="M197.899 259.529C198.814 261.144 198.342 266.737 196.485 276.309C194.902 284.464 196.712 292.899 201.489 299.705L201.758 300.081C203.373 302.311 204.863 305.247 206.226 308.889C209.57 317.82 201.858 325.266 207.768 339.239L207.053 339.205C195.457 338.606 187.792 335.623 190.044 328.658C192.776 320.214 184.626 273.51 187.849 254.921C193.428 256.015 196.778 257.551 197.899 259.529Z"
        fill="black" fill-opacity="0.159856" />
    <path fill-rule="evenodd" clip-rule="evenodd"
        d="M208.091 241L221.6 249.795C219.62 252.093 218.558 254.766 218.157 257.709C212.965 253.656 207.569 247.992 205.897 241.902L208.091 241Z"
        fill="#9B384B" />
    <path fill-rule="evenodd" clip-rule="evenodd"
        d="M224.262 249.566C226.546 251.108 228.368 253.839 229.852 256.944C231.63 253.376 232.311 248.664 232.311 243.639L230.08 242.759L224.262 249.566Z"
        fill="#9B384B" />
    <path fill-rule="evenodd" clip-rule="evenodd"
        d="M221.6 249.794L221.776 249.893C222.586 250.344 223.596 250.211 224.261 249.566C229.354 268.207 232.936 288.724 234.019 309.576L228.704 318.39L222.487 310.141C223.297 288.47 223.291 267.339 221.6 249.794Z"
        fill="#D7939F" />
    <path
        d="M235.083 296.99C235.23 295.598 236.505 294.607 237.89 294.81L250.196 296.609C251.504 296.8 252.429 297.99 252.29 299.304L250.082 320.318C249.935 321.71 248.66 322.701 247.275 322.499L234.969 320.7C233.661 320.509 232.737 319.319 232.875 318.004L235.083 296.99Z"
        fill="#6182EC" />
    <path fill-rule="evenodd" clip-rule="evenodd"
        d="M236.551 296.567C236.702 295.128 238.055 294.128 239.475 294.407L252.342 296.93L261.147 296.783C262.626 296.758 263.794 298.033 263.639 299.504L261.434 320.486C261.304 321.724 260.27 322.671 259.025 322.692L249.618 322.849L236.32 320.241C235.068 319.995 234.21 318.834 234.344 317.565L236.551 296.567Z"
        fill="#96EFFA" />
    <path
        d="M238.874 301.487C238.972 300.56 239.837 299.913 240.753 300.08L246.659 301.161C247.482 301.312 248.05 302.07 247.962 302.902L247.71 305.296C247.613 306.223 246.748 306.871 245.831 306.703L239.926 305.622C239.103 305.472 238.535 304.713 238.623 303.881L238.874 301.487Z"
        fill="#74CFDB" />
    <path
        d="M251.358 297.631C251.404 297.192 251.798 296.873 252.237 296.919L252.754 296.974C253.193 297.02 253.512 297.413 253.466 297.853L250.918 322.097C250.872 322.536 250.478 322.855 250.039 322.809L249.522 322.754C249.082 322.708 248.764 322.315 248.81 321.875L251.358 297.631Z"
        fill="#EAEFFF" />
    <path
        d="M252.061 297.705C252.107 297.266 252.501 296.947 252.94 296.993L253.457 297.048C253.897 297.094 254.215 297.487 254.169 297.927L251.621 322.171C251.575 322.61 251.181 322.929 250.742 322.883L250.225 322.828C249.785 322.782 249.467 322.389 249.513 321.949L252.061 297.705Z"
        fill="#7AD2DD" />
    <path fill-rule="evenodd" clip-rule="evenodd"
        d="M221.892 306.414C221.892 306.414 226.478 305.498 228.355 304.033C230.232 302.569 235.917 301.534 235.917 301.534L234.098 305.34C234.098 305.34 248.03 304.04 248.36 305.406C248.691 306.771 244.661 308.256 244.661 308.256C244.661 308.256 242.674 311.944 240.75 314.082C238.93 316.105 229.886 315.864 226.716 314.602C223.977 313.511 220.998 314.056 220.998 314.056L221.892 306.414Z"
        fill="#F8CFCF" />
    <path fill-rule="evenodd" clip-rule="evenodd"
        d="M185.004 253.239C189.986 242.542 207.044 249.749 202.745 261.209C198.581 272.31 188.492 298.23 188.492 298.23C188.492 298.23 220.464 302.263 222.956 304.144C226.282 306.653 224.226 313.813 221.4 315.088C219.009 316.166 201.247 316.796 183.868 315.435C175.271 314.762 168.913 311.092 168.026 301.559C167.404 294.883 180.204 263.544 185.004 253.239Z"
        fill="#0a83cf" />
    <path fill-rule="evenodd" clip-rule="evenodd"
        d="M188.504 298.224C188.504 298.224 185.847 303.243 186.606 303.345C187.366 303.448 191.227 298.591 191.227 298.591L188.504 298.224Z"
        fill="black" fill-opacity="0.159856" />
    <path d="M220.705 303.599C221.691 306.727 220.998 310.395 219.63 312.988" stroke="#9B384B"
        stroke-linecap="round" />
    <path fill-rule="evenodd" clip-rule="evenodd"
        d="M85.3647 443.346C93.6307 439.634 103.338 443.361 106.998 451.65L109.86 458.135C101.594 461.847 91.8866 458.12 88.2274 449.831L85.3647 443.346Z"
        fill="#02D3AF" />
    <path fill-rule="evenodd" clip-rule="evenodd"
        d="M97.1771 447.302C105.427 453.172 110.776 459.714 113.241 466.926C115.718 474.173 116.733 486.321 116.272 503.347C116.265 503.61 116.471 503.83 116.732 503.837C116.994 503.844 117.212 503.637 117.219 503.373C117.683 486.241 116.66 473.996 114.136 466.614C111.601 459.197 106.124 452.5 97.723 446.521C97.5093 446.369 97.2139 446.421 97.0632 446.636C96.9124 446.852 96.9634 447.15 97.1771 447.302Z"
        fill="#02B596" />
    <path fill-rule="evenodd" clip-rule="evenodd"
        d="M155.49 439.32C147.356 435.494 137.661 439.022 133.888 447.182L130.675 454.133C138.809 457.959 148.504 454.431 152.277 446.271L155.49 439.32Z"
        fill="#02D3AF" />
    <path
        d="M90.498 423.385C98.3419 421.718 106.052 426.725 107.72 434.569L109.069 440.919C101.225 442.586 93.515 437.579 91.8477 429.735L90.498 423.385Z"
        fill="#02D3AF" />
    <path fill-rule="evenodd" clip-rule="evenodd"
        d="M96.2663 428.451C102.312 432.671 106.401 437.222 108.546 442.098L108.678 442.405L108.811 442.728C111.009 448.184 114.647 462.475 119.707 485.545C119.763 485.802 120.016 485.965 120.272 485.909C120.527 485.853 120.688 485.598 120.632 485.341L120.005 482.495L119.273 479.201C114.702 458.76 111.42 446.28 109.412 441.714C107.189 436.661 102.983 431.98 96.8039 427.666C96.5885 427.516 96.2936 427.57 96.1451 427.786C95.9967 428.003 96.0509 428.3 96.2663 428.451Z"
        fill="#02B596" />
    <path fill-rule="evenodd" clip-rule="evenodd"
        d="M143.625 418.56C134.98 418.408 127.849 425.294 127.7 433.94L127.566 441.653C136.211 441.805 143.342 434.919 143.492 426.273L143.625 418.56Z"
        fill="#02D3AF" />
    <path fill-rule="evenodd" clip-rule="evenodd"
        d="M137.953 421.662C132.392 429.822 128.328 437.699 125.765 445.293C123.205 452.874 120.652 464.581 118.102 480.424C118.06 480.684 118.235 480.93 118.493 480.972C118.752 481.014 118.995 480.837 119.037 480.577L119.35 478.651L119.565 477.353C121.932 463.186 124.298 452.6 126.661 445.601C129.195 438.095 133.219 430.295 138.733 422.203C138.881 421.985 138.827 421.688 138.611 421.539C138.396 421.389 138.101 421.444 137.953 421.662Z"
        fill="#02B596" />
    <path fill-rule="evenodd" clip-rule="evenodd"
        d="M125.907 416.316C125.907 416.316 121.397 429.164 119.403 448.089C117.41 467.013 118.573 485.938 118.573 485.938L120.774 486.138C120.774 486.138 119.592 464.05 121.011 448.172C122.431 432.294 127.007 416.416 127.007 416.416L125.907 416.316Z"
        fill="#02B596" />
    <path
        d="M125.509 420.758C129.401 421.729 133.763 417.677 135.251 411.709C136.739 405.741 134.79 400.116 130.897 399.145C127.005 398.175 122.643 402.226 121.155 408.195C119.667 414.163 121.616 419.788 125.509 420.758Z"
        fill="#C2FFF4" />
    <path
        d="M126.592 417.669C129.3 418.344 132.282 415.737 133.252 411.846C134.222 407.955 132.813 404.254 130.106 403.578C127.398 402.903 124.416 405.51 123.446 409.401C122.476 413.292 123.885 416.994 126.592 417.669Z"
        fill="#02D3AF" />
    <path fill-rule="evenodd" clip-rule="evenodd"
        d="M127.728 417.005L131.785 404.341C132.027 403.588 131.617 402.781 130.871 402.538C130.124 402.294 129.323 402.707 129.082 403.46L125.024 416.124C124.783 416.877 125.193 417.685 125.939 417.928C126.686 418.171 127.486 417.758 127.728 417.005Z"
        fill="url(#paint7_linear_399_372)" />
    <path fill-rule="evenodd" clip-rule="evenodd"
        d="M103.952 403.586C103.952 403.586 109.78 415.892 113.741 434.505C117.702 453.117 118.523 472.06 118.523 472.06L116.356 472.489C116.356 472.489 115.222 450.399 112.151 434.756C109.079 419.113 102.869 403.801 102.869 403.801L103.952 403.586Z"
        fill="#02B596" />
    <path
        d="M104.812 407.961C101.042 409.333 96.2811 405.76 94.1773 399.98C92.0736 394.2 93.4242 388.402 97.1939 387.03C100.964 385.658 105.725 389.231 107.829 395.011C109.932 400.791 108.582 406.589 104.812 407.961Z"
        fill="#C2FFF4" />
    <path
        d="M103.412 405.004C100.79 405.958 97.5523 403.677 96.1807 399.909C94.8092 396.141 95.8232 392.312 98.4456 391.358C101.068 390.403 104.306 392.684 105.677 396.452C107.049 400.221 106.035 404.049 103.412 405.004Z"
        fill="#02D3AF" />
    <path fill-rule="evenodd" clip-rule="evenodd"
        d="M102.216 404.462L96.8562 392.291C96.5376 391.568 96.8605 390.722 97.5775 390.402C98.2944 390.082 99.134 390.409 99.453 391.133L104.812 403.303C105.13 404.027 104.808 404.873 104.091 405.193C103.374 405.513 102.534 405.185 102.216 404.462Z"
        fill="url(#paint8_linear_399_372)" />
    <path fill-rule="evenodd" clip-rule="evenodd"
        d="M151.022 441.348C139.794 445.742 131.966 450.819 127.539 456.599C123.113 462.378 120.188 471.341 118.746 483.49C118.715 483.752 118.9 483.99 119.159 484.021C119.419 484.053 119.655 483.866 119.686 483.604C121.11 471.611 123.984 462.803 128.289 457.183C132.593 451.563 140.284 446.575 151.364 442.239C151.608 442.143 151.729 441.867 151.634 441.621C151.54 441.375 151.266 441.253 151.022 441.348Z"
        fill="#02B596" />
    <path fill-rule="evenodd" clip-rule="evenodd"
        d="M120.932 476.595C115.601 457.598 94.5488 463.157 94.5488 463.157C94.5488 463.157 110.31 468.308 118.348 476.595H120.932Z"
        fill="#02B596" />
    <path fill-rule="evenodd" clip-rule="evenodd"
        d="M120.877 473.677C126.208 454.679 143.977 457.457 143.977 457.457C143.977 457.457 133.185 466.328 123.46 473.677H120.877Z"
        fill="#02B596" />
    <path fill-rule="evenodd" clip-rule="evenodd"
        d="M120.837 477.453C116.071 460.599 127.188 446.092 127.188 446.092C127.188 446.092 126.625 466.052 122.761 476.222L120.837 477.453Z"
        fill="#02B596" />
    <path fill-rule="evenodd" clip-rule="evenodd"
        d="M116.174 473.677C114.067 467.587 111.971 459.082 110.4 450.837C118.163 453.959 120.657 466.397 118.163 473.677H116.174Z"
        fill="#02D3AF" />
    <path fill-rule="evenodd" clip-rule="evenodd"
        d="M101.026 469.762C100.923 468.584 101.851 467.571 103.034 467.571H133.686C134.868 467.571 135.797 468.584 135.694 469.762L129.787 537.355C129.696 538.396 128.824 539.195 127.779 539.195H108.941C107.895 539.195 107.023 538.396 106.932 537.355L101.026 469.762Z"
        fill="#9B384B" />
    <mask id="mask1_399_372" style="mask-type:alpha" maskUnits="userSpaceOnUse" x="101" y="467"
        width="35" height="73">
        <path fill-rule="evenodd" clip-rule="evenodd"
            d="M101.026 469.762C100.923 468.584 101.851 467.571 103.034 467.571H133.686C134.868 467.571 135.797 468.584 135.694 469.762L129.787 537.355C129.696 538.396 128.824 539.195 127.779 539.195H108.941C107.895 539.195 107.023 538.396 106.932 537.355L101.026 469.762Z"
            fill="white" />
    </mask>
    <g mask="url(#mask1_399_372)">
        <path fill-rule="evenodd" clip-rule="evenodd"
            d="M96.4121 463.099H109.356C101.335 493.552 125.482 514.488 109.356 544.941H96.4121V463.099Z"
            fill="#0a83cf" />
    </g>
    <path fill-rule="evenodd" clip-rule="evenodd"
        d="M678.748 449.882L667.305 540.29L673.304 540.21L684.747 450.728L678.748 449.882Z"
        fill="#91D6FF" />
    <path fill-rule="evenodd" clip-rule="evenodd"
        d="M645.449 449.882L634.006 540.29L640.005 540.21L651.448 450.728L645.449 449.882Z"
        fill="#91D6FF" />
    <path fill-rule="evenodd" clip-rule="evenodd"
        d="M718.495 449.882L729.938 540.29L723.938 540.21L712.495 450.728L718.495 449.882Z"
        fill="#BFE7FF" />
    <path fill-rule="evenodd" clip-rule="evenodd"
        d="M641.072 464.093C635.856 464.093 631.627 459.864 631.627 454.648C631.627 449.431 635.856 445.203 641.072 445.203H678.835C684.556 445.203 689.338 440.849 689.874 435.153L695.912 370.96C696.447 365.263 701.229 360.91 706.951 360.91H730.651C737.11 360.91 742.201 366.408 741.707 372.848L735.482 453.854C735.038 459.632 730.221 464.093 724.427 464.093H641.072Z"
        fill="#91D6FF" />
    <path fill-rule="evenodd" clip-rule="evenodd"
        d="M631.629 454.567C631.681 454.568 631.733 454.568 631.785 454.568H714.915C720.708 454.568 725.525 450.108 725.97 444.332L732.19 363.614C732.258 362.734 732.221 361.872 732.091 361.038C731.539 360.954 730.974 360.91 730.397 360.91H706.809C701.088 360.91 696.307 365.262 695.77 370.957L689.737 434.916C689.199 440.611 684.418 444.963 678.698 444.963H641.048C635.845 444.963 631.627 449.181 631.627 454.384C631.627 454.445 631.628 454.506 631.629 454.567Z"
        fill="#BFE7FF" />
    <path fill-rule="evenodd" clip-rule="evenodd"
        d="M643.112 511.415C643.112 511.415 648.358 522.01 644.057 525.349C639.75 528.688 628.374 534.946 628.374 534.946L658.514 533.052L651.814 509.944L643.112 511.415Z"
        fill="url(#paint9_linear_399_372)" />
    <path fill-rule="evenodd" clip-rule="evenodd"
        d="M655.527 521.003C654.578 521.455 656.138 525.712 652.801 525.413C649.465 525.115 647.37 520.714 644.91 521C642.449 521.285 640.887 525.717 636.202 528.803C631.519 531.89 624.574 535.572 625.039 538.675C625.504 541.779 636.433 542.61 641.97 541.582C647.507 540.556 650.091 538.33 653.683 538.507C657.275 538.685 659.533 538.245 660.659 535.939C661.784 533.632 656.621 520.48 655.527 521.003Z"
        fill="#EEDFE8" />
    <path fill-rule="evenodd" clip-rule="evenodd"
        d="M655.26 535.167L654.953 535.149C650.501 534.774 647.447 537.574 643.21 538.363C638.972 539.153 627.797 539.426 626.012 536.775C625.927 536.65 625.849 536.521 625.776 536.391C625.176 537.128 624.894 537.917 625.039 538.836C625.504 541.789 636.434 542.58 641.971 541.603C647.508 540.626 650.093 538.507 653.685 538.676L654.324 538.7C657.547 538.788 659.603 538.294 660.662 536.232C660.919 535.729 660.861 534.649 660.603 533.283C659.1 534.311 657.204 535.226 655.26 535.167Z"
        fill="#EC7AA5" />
    <path fill-rule="evenodd" clip-rule="evenodd"
        d="M688.513 418.032C679.389 418.439 628.603 429.672 619.377 431.58C610.15 433.488 602.349 443.814 609.385 455.772C617.287 469.194 637.677 507.314 642.628 515.907C645.078 520.16 657.439 517.775 654.536 510.636C649.123 497.329 646.609 463.898 632.809 451.709C632.809 451.709 679.219 459.786 699.266 450.534C713.835 443.808 710.539 417.047 688.513 418.032Z"
        fill="#413C75" />
    <path fill-rule="evenodd" clip-rule="evenodd"
        d="M624.861 361.074C624.861 361.074 624.965 355.65 622.367 351.77C619.77 347.89 619.667 343.768 617.702 343.903C615.736 344.038 617.682 353.618 617.682 353.618C617.682 353.618 615.189 352.665 613.397 351.46C611.606 350.255 606.173 344.314 604.903 345.367C602.751 347.161 606.218 357.279 608.106 359.302C610.001 361.326 619.35 366.98 619.35 366.98L646.885 394.719L651.002 379.994L624.861 361.074Z"
        fill="url(#paint10_linear_399_372)" />
    <path fill-rule="evenodd" clip-rule="evenodd"
        d="M679.936 358.625C675.691 368.47 667.919 386.556 664.715 391.951C660.7 398.708 654.368 401.686 646.955 396.672C645.404 395.623 640.95 391.954 640.95 391.954C641.609 385.532 644.008 380.164 648.144 375.849L650.953 378.172C650.953 378.172 658.919 357.752 665.327 345.924C670.876 335.69 686.397 343.659 679.936 358.625Z"
        fill="#EA5455" />
    <path fill-rule="evenodd" clip-rule="evenodd"
        d="M650.871 378.183C650.871 378.183 648.732 385.44 648.232 385.019C647.731 384.599 648.614 376.286 648.614 376.286L650.871 378.183Z"
        fill="black" fill-opacity="0.159856" />
    <path fill-rule="evenodd" clip-rule="evenodd"
        d="M698.28 320.411V329.123L704.677 323.972C704.677 323.972 706.644 315.626 708.243 309.427C709.246 305.539 711.689 292.384 701.853 293C693.795 278.796 670.329 287.587 670.142 304.94C669.918 325.811 670.101 333.937 670.101 333.937C683.371 334.698 690.839 332.78 698.28 320.411Z"
        fill="#422851" />
    <path fill-rule="evenodd" clip-rule="evenodd"
        d="M704.814 336.997C704.814 336.997 698.864 335.6 698.657 325.85C698.451 316.099 698.596 312.77 698.596 312.77L685.488 312.534C685.488 312.534 685.345 323.401 685.343 327.332C685.337 336.889 678.309 337.672 678.309 337.672C678.309 337.672 679.51 345.558 691.388 346.226C700.661 346.748 704.814 336.997 704.814 336.997Z"
        fill="url(#paint11_linear_399_372)" />
    <path fill-rule="evenodd" clip-rule="evenodd"
        d="M701.652 307.901C707.5 307.675 706.546 316.235 700.472 316.224C700.472 316.224 696.944 328.384 684.694 328.384C674.746 328.384 674.099 314.211 674.009 311.383C673.912 308.369 673.9 298.465 673.9 298.465L701.88 298.452L701.652 307.901Z"
        fill="url(#paint12_linear_399_372)" />
    <path fill-rule="evenodd" clip-rule="evenodd"
        d="M702.105 307.845C699.682 308.245 699.976 309.849 699.317 309.709C695.971 308.997 682.427 309.936 680.683 302.488C678.513 307.141 677.982 308.285 673.204 309.534V295.899L703.426 293C703.426 293 702.957 307.704 702.105 307.845Z"
        fill="#422851" />
    <path d="M687.057 320.215C687.057 320.215 684.139 322.685 680.76 320.372" stroke="#F77B7B"
        stroke-width="1.5" stroke-linecap="round" />
    <path d="M685.131 323.075C684.223 323.494 683.349 323.525 682.569 323.107" stroke="#F49494"
        stroke-linecap="round" />
    <path d="M701.055 312.505C700.995 311.132 701.414 310.041 702.814 309.822" stroke="#F77B7B"
        stroke-linecap="round" />
    <path fill-rule="evenodd" clip-rule="evenodd"
        d="M703.486 336C696.018 340.574 687.384 342.251 679.347 337.284C666.232 363.145 662.963 394.002 666.118 428.106C685.243 435.678 701.317 434.189 715.002 425.534L703.486 336Z"
        fill="#FFE4F4" />
    <path fill-rule="evenodd" clip-rule="evenodd"
        d="M610.417 511.84C610.417 511.84 610.575 524.311 600.299 528.973C590.03 533.635 582.713 533.355 583.645 536.959C584.576 540.563 611.306 540.418 613.802 537.599C615.93 535.201 620.556 512.872 621.83 514.579L610.417 511.84Z"
        fill="url(#paint13_linear_399_372)" />
    <path fill-rule="evenodd" clip-rule="evenodd"
        d="M617.881 529.452C616.306 528.319 614.982 534.853 610.705 533.036C606.427 531.219 609.8 525.213 607.108 524.105C604.416 522.998 599.218 528.953 592.314 530.401C585.41 531.847 579.805 533.114 578.212 535.801C576.84 538.111 578.212 538.849 578.212 538.849C578.212 538.849 584.858 542.168 588.988 542.899C594.988 543.96 612.327 544.667 614.227 542.732C615.394 541.545 618.669 530.019 617.881 529.452Z"
        fill="#EEDFE8" />
    <path fill-rule="evenodd" clip-rule="evenodd"
        d="M577.837 536.073C576.535 538.196 578.589 539.3 578.835 539.422L579.826 539.844C581.706 540.626 585.948 542.302 589.083 542.901C594.831 544 612.63 544.651 614.545 542.762C614.881 542.43 615.297 541.217 615.699 539.641L614.478 539.774C608.6 540.397 595.479 541.523 589.004 539.998C583.256 538.644 580.11 536.417 578.675 535.116C578.326 535.416 578.044 535.734 577.837 536.073Z"
        fill="#EC7AA5" />
    <path fill-rule="evenodd" clip-rule="evenodd"
        d="M717.104 414.177C717.104 414.177 730.37 442.192 711.727 451.812C693.698 461.115 639.726 450.112 639.726 450.112C639.726 450.112 640.691 457.877 639.726 464.802C637.208 482.889 625.228 513.023 622.694 516.809C619.189 522.046 608.512 518.097 608.311 513.737C608.109 509.377 616.359 453.693 617.614 443.075C618.862 432.456 622.802 430.913 634.311 428.01C636.955 427.343 668.222 419.573 671.086 419.8C695.697 421.746 717.104 414.177 717.104 414.177Z"
        fill="#524D87" />
    <path fill-rule="evenodd" clip-rule="evenodd"
        d="M702.562 448.921C684.713 450.921 637.458 446.798 635.56 448.671C633.748 450.46 634.051 481.575 629.986 499.585L630.604 497.884C634.427 487.267 638.396 474.354 639.726 464.802C640.691 457.877 639.726 450.112 639.726 450.112L641.903 450.533C652.162 452.46 695.862 459.999 711.727 451.812C720.324 447.376 723.832 440.006 722.251 429.703C719.529 441.349 712.966 447.755 702.562 448.921Z"
        fill="white" fill-opacity="0.056108" />
    <path fill-rule="evenodd" clip-rule="evenodd"
        d="M703.159 336.021C690.79 376.538 683.373 433.979 722.001 423.986C701.482 386.206 729.377 369.202 723.054 349.676C720.892 343 703.32 335.497 703.159 336.021Z"
        fill="#EA5455" />
    <path fill-rule="evenodd" clip-rule="evenodd"
        d="M717.109 352.845C703.13 354.955 714.654 379.362 710.039 383.039C705.425 386.716 697.393 387.113 696.527 389.359C694.787 393.874 703.201 405.271 721.769 423.551L722.002 423.986C704.127 391.076 722.99 373.931 723.971 357.151C721.9 353.903 719.612 352.468 717.109 352.845Z"
        fill="black" fill-opacity="0.159856" />
    <path fill-rule="evenodd" clip-rule="evenodd"
        d="M680.002 337C675.282 348.838 673.013 358.127 670.896 375.503C669.131 389.975 670.015 419.84 670.015 419.84L664.182 420.987C664.182 420.987 660.012 374.848 661.406 368.907C663.746 358.938 665.331 353.113 668.42 344C670.122 338.998 680.002 337 680.002 337Z"
        fill="#EA5455" />
    <path fill-rule="evenodd" clip-rule="evenodd"
        d="M700.562 382.017C700.562 382.017 692.946 374.392 690.309 373.507C687.671 372.622 673.224 371.559 673.322 373.559C673.433 375.701 682.729 375.578 683.589 376.632C684.448 377.685 685.644 385.888 688.893 386.697C692.136 387.506 698.859 389.9 698.859 389.9L728.783 405.361L725.595 389.901L700.562 382.017Z"
        fill="url(#paint14_linear_399_372)" />
    <path fill-rule="evenodd" clip-rule="evenodd"
        d="M723.482 349.731C732.559 362.542 740.309 382.056 743.284 389.664C746.258 397.272 743.258 408.747 730.177 406.494C728.62 406.226 726.086 405.24 726.086 405.24C721.277 398.647 720.433 392.987 722.228 387.947L723.92 388.661C723.92 388.661 710.919 365.617 707.744 359.439C702.442 349.122 715.487 338.444 723.482 349.731Z"
        fill="#EA5455" />
    <path fill-rule="evenodd" clip-rule="evenodd"
        d="M723.921 388.661C723.921 388.661 730.525 391.886 729.694 390.468C728.864 389.049 721.406 384.182 721.406 384.182L723.921 388.661Z"
        fill="black" fill-opacity="0.159856" />
    <path fill-rule="evenodd" clip-rule="evenodd"
        d="M585.969 346.045C585.64 344.724 586.443 343.387 587.764 343.058L611.233 337.206C612.554 336.877 613.891 337.68 614.22 339.001L622.742 373.181C623.071 374.501 622.268 375.839 620.948 376.168L597.478 382.019C596.158 382.349 594.82 381.545 594.491 380.225L585.969 346.045Z"
        fill="url(#paint15_linear_399_372)" />
    <path fill-rule="evenodd" clip-rule="evenodd"
        d="M586.885 346.595C586.556 345.275 587.36 343.938 588.68 343.608L612.149 337.757C613.47 337.428 614.807 338.231 615.136 339.552L623.658 373.732C623.987 375.052 623.184 376.389 621.864 376.719L598.394 382.57C597.074 382.899 595.736 382.096 595.407 380.775L586.885 346.595Z"
        fill="#518DF8" />
    <path
        d="M587.886 346.896C587.59 345.708 588.313 344.504 589.501 344.208L611.573 338.705C612.762 338.408 613.965 339.132 614.262 340.32L621.967 371.223C622.263 372.411 621.54 373.615 620.351 373.911L598.279 379.414C597.091 379.71 595.887 378.987 595.591 377.799L587.886 346.896Z"
        fill="white" />
    <path fill-rule="evenodd" clip-rule="evenodd"
        d="M383.207 395.871H394.624V540.751H383.207V395.871Z" fill="#E9E9E9" />
    <path fill-rule="evenodd" clip-rule="evenodd"
        d="M271.377 400.634H361.566V427.542H286.405V540.751H271.377V400.634Z" fill="#D3D3D3" />
    <path fill-rule="evenodd" clip-rule="evenodd"
        d="M270.793 400.634H278.793V540.751H270.793V400.634Z" fill="#DBDBDB" />
    <path fill-rule="evenodd" clip-rule="evenodd"
        d="M663.432 400.634H679.432V540.751H663.432V400.634Z" fill="#E9E9E9" />
    <path fill-rule="evenodd" clip-rule="evenodd"
        d="M663.432 395.871H673.432V540.751H663.432V395.871Z" fill="#DBDBDB" />
    <path fill-rule="evenodd" clip-rule="evenodd"
        d="M531.008 400.634H670.008V427.19H549.715V540.751H531.008V400.634Z" fill="#D3D3D3" />
    <path fill-rule="evenodd" clip-rule="evenodd"
        d="M282.592 395.871H531.481V436.101H282.592V395.871Z" fill="#DBDBDB" />
    <path fill-rule="evenodd" clip-rule="evenodd"
        d="M525.773 400.634H537.19V436.101H525.773V400.634Z" fill="#E9E9E9" />
    <path fill-rule="evenodd" clip-rule="evenodd"
        d="M531.043 400.634H540.043V540.751H531.043V400.634Z" fill="#DBDBDB" />
    <path fill-rule="evenodd" clip-rule="evenodd"
        d="M532.479 403.015C532.479 399.07 535.677 395.871 539.622 395.871H684.748C688.693 395.871 691.891 399.07 691.891 403.015C691.891 406.96 688.693 410.158 684.748 410.158H539.622C535.677 410.158 532.479 406.96 532.479 403.015Z"
        fill="#E9E9E9" />
    <path fill-rule="evenodd" clip-rule="evenodd"
        d="M279.738 398.729H528.628V413.016H279.738V398.729Z" fill="#E9E9E9" />
    <path fill-rule="evenodd" clip-rule="evenodd"
        d="M258.807 403.015C258.807 399.07 262.005 395.871 265.95 395.871H542.414C546.36 395.871 549.558 399.07 549.558 403.015C549.558 406.96 546.36 410.158 542.414 410.158H265.95C262.005 410.158 258.807 406.96 258.807 403.015Z"
        fill="#DBDBDB" />
    <path fill-rule="evenodd" clip-rule="evenodd"
        d="M303.39 505.181L295.492 530.824L312.059 531.425C312.059 531.425 310.188 522.653 312.859 514.43C315.002 507.829 316.75 504.535 316.75 504.535L303.39 505.181Z"
        fill="#92691F" />
    <path fill-rule="evenodd" clip-rule="evenodd"
        d="M311.624 524.377C311.624 524.377 317.947 530.237 324.028 532.408C330.109 534.579 332.437 534.603 332.87 535.42L332.949 535.576C334.2 538.158 333.441 541.588 319.58 541.778C316.211 541.824 312.708 539.867 303.41 537.796L302.738 541.416C297.534 541.347 294.498 540.527 293.629 538.955C292.319 536.604 294.545 525.01 296.081 524.79C297.616 524.57 297.92 529.286 302.043 529.389C306.172 529.492 311.624 524.377 311.624 524.377Z"
        fill="#391B0B" />
    <path fill-rule="evenodd" clip-rule="evenodd"
        d="M323.883 532.355C323.695 532.518 323.468 532.69 323.202 532.853C322.278 533.42 320.885 533.871 319.013 533.444C318.061 533.226 317.001 532.618 315.959 531.851C314.912 531.081 313.863 530.136 312.93 529.22C311.997 528.304 311.177 527.415 310.592 526.754C310.298 526.424 310.064 526.151 309.902 525.96C309.876 525.93 309.852 525.902 309.831 525.876C309.968 525.77 310.1 525.667 310.225 525.567C310.243 525.589 310.262 525.612 310.283 525.637C310.443 525.825 310.675 526.095 310.966 526.423C311.546 527.077 312.358 527.958 313.28 528.864C314.204 529.77 315.235 530.698 316.255 531.448C317.281 532.203 318.275 532.762 319.124 532.956C320.855 533.351 322.114 532.934 322.941 532.427C323.089 532.336 323.224 532.242 323.345 532.149C323.524 532.221 323.703 532.29 323.883 532.355Z"
        fill="#81411E" />
    <path fill-rule="evenodd" clip-rule="evenodd"
        d="M265.631 424.913C265.631 424.913 331.424 430.174 340.489 430.455C349.554 430.735 356.48 443.674 349.46 455.617C341.576 469.024 320.155 507.621 315.967 516.545C312.425 524.09 296.327 520.998 299.224 509.473C302.683 495.679 309.128 464.733 322.897 452.558C322.897 452.558 289.41 464.699 270.548 452.924C259.787 446.207 265.631 424.913 265.631 424.913Z"
        fill="#7A3636" />
    <path fill-rule="evenodd" clip-rule="evenodd"
        d="M349.462 455.616L348.436 457.375C344.446 464.271 338.003 475.922 331.852 487.269L332.175 486.23C336.933 471.091 344.324 453.257 347.484 447.816C348.592 445.909 350.1 443.965 352.008 441.984C352.818 446.139 352.203 450.953 349.462 455.616Z"
        fill="white" fill-opacity="0.192499" />
    <path fill-rule="evenodd" clip-rule="evenodd"
        d="M374.989 505.48C374.989 505.48 379.387 525.038 385.112 527.131C387.316 527.937 368.22 530.238 368.22 530.238L363.426 511.474L374.989 505.48Z"
        fill="#92691F" />
    <path fill-rule="evenodd" clip-rule="evenodd"
        d="M365.462 523.631L365.143 540.142L371.725 540.192L371.792 536.48C371.792 536.48 376.922 539.556 380.396 540.638C385.068 542.097 403.527 541.333 405.612 539.11C407.698 536.877 407.743 533.324 403.461 532.887C399.18 532.451 392.1 531.151 389.052 528.818C385.365 526.007 383.962 521.547 382.891 521.543C381.252 521.537 381.125 526.784 372.806 526.858C369.639 526.886 365.462 523.631 365.462 523.631Z"
        fill="#391B0B" />
    <path fill-rule="evenodd" clip-rule="evenodd"
        d="M381.188 523.015C381.188 523.015 385.433 529.639 387.956 530.598C390.48 531.547 392.514 530.482 392.514 530.482C392.514 530.482 388.162 528.748 386.481 525.722C382.674 518.867 381.912 522.354 381.188 523.015Z"
        fill="#81411E" />
    <path fill-rule="evenodd" clip-rule="evenodd"
        d="M271.077 430.228C271.077 430.228 270.985 451.248 285.108 456.532C299.232 461.815 345.222 459.827 345.222 459.827C345.222 459.827 359.816 513.525 363.313 518.755C366.81 523.986 383.392 524.527 382.495 512.481C381.592 500.435 375.121 455.713 373.869 445.107C372.624 434.5 368.692 431.96 357.21 430.06C353.174 429.392 354.887 428.322 328.943 427.107C323.371 426.846 314.022 428.932 305.431 429.877C296.839 430.822 271.077 430.228 271.077 430.228Z"
        fill="#7A3636" />
    <path fill-rule="evenodd" clip-rule="evenodd"
        d="M316.979 430.681V428.24L318.129 428.068C322.311 427.447 326.113 426.975 328.942 427.107L331.925 427.252C354.758 428.407 353.335 429.419 357.209 430.06L357.955 430.186C368.618 432.033 372.476 434.614 373.782 444.419L374.148 447.37C375.876 460.962 381.646 501.158 382.495 512.481C382.562 513.387 382.531 514.222 382.413 514.99L379.052 498.062C374.098 472.966 371.322 458.096 370.724 453.452L370.599 452.487C369.48 444.244 366.552 434.016 357.103 434.683L356.287 434.752C349.634 435.258 337.018 433.982 318.438 430.923L316.979 430.681Z"
        fill="white" fill-opacity="0.192499" />
    <path
        d="M382.834 453.356C384.866 453.825 387.179 451.32 388.001 447.761C388.822 444.202 387.841 440.937 385.81 440.467C383.778 439.998 381.465 442.503 380.643 446.063C379.821 449.622 380.802 452.887 382.834 453.356Z"
        fill="white" fill-opacity="0.192499" />
    <path fill-rule="evenodd" clip-rule="evenodd"
        d="M281.265 402.314C281.265 402.314 296.656 405.877 296.5 407.275C296.347 408.681 289.571 408.897 289.571 408.897C289.571 408.897 302.097 416.986 301.1 418.564C300.103 420.142 291.936 421.92 288.547 420.647C285.156 419.374 276.369 410.111 276.369 410.111L281.265 402.314Z"
        fill="url(#paint16_linear_399_372)" />
    <path fill-rule="evenodd" clip-rule="evenodd"
        d="M281.404 356.716C276.249 363.078 258.671 382.513 258.671 382.513C258.671 382.513 276.249 395.032 280.675 397.681C287.933 402.021 280.552 413.536 275.229 412.257C268.016 410.52 249.808 397.959 241.252 392.875C232.697 387.792 235.97 379.584 242.3 372.095C247.163 366.342 257.733 354.557 265.17 344.211C272.57 333.917 291.408 344.37 281.404 356.716Z"
        fill="#EA5455" />
    <path fill-rule="evenodd" clip-rule="evenodd"
        d="M258.672 382.513C258.672 382.513 253.723 387.281 254.237 387.65C254.752 388.019 260.715 383.979 260.715 383.979L258.672 382.513Z"
        fill="black" fill-opacity="0.159856" />
    <path fill-rule="evenodd" clip-rule="evenodd"
        d="M312.095 310.007C316.418 310.48 316.111 318.089 310.849 318.486C309.773 325.821 305.938 329.315 301.261 329.719L301.52 340.813L280.835 340.801C280.835 340.801 286.66 332.964 286.37 322.235C286.079 311.506 286.564 301.427 286.564 301.427L313.357 301.908L312.095 310.007Z"
        fill="url(#paint17_linear_399_372)" />
    <path fill-rule="evenodd" clip-rule="evenodd"
        d="M303.632 289.313C319.569 293.336 312.994 310.328 312.994 310.328C308.179 309.671 303.545 315.514 301.788 321.244C296.707 326.467 290.126 326.458 285.75 323.416C285.75 323.416 279.729 304.793 281.698 298.592C283.668 292.391 289.106 285.647 303.632 289.313Z"
        fill="#2C272E" />
    <path fill-rule="evenodd" clip-rule="evenodd"
        d="M265.959 343.288C264.528 345.724 263.503 355.536 265.959 394.408C267.231 414.537 261.821 434.376 263.219 443.109C264.617 451.843 274.225 452.886 274.225 452.886L279.828 434.657L282.464 452.886C282.464 452.886 322.198 449.171 325.68 440.125C329.169 431.06 324.787 409.75 323.745 389.683C322.699 369.537 323.484 348.858 321.558 345.724C317.715 339.468 307.823 336.546 301.684 335.61C293.893 334.423 283.835 334.377 277.856 336.273C271.877 338.168 267.39 340.852 265.959 343.288Z"
        fill="#EA5455" />
    <path fill-rule="evenodd" clip-rule="evenodd"
        d="M306.387 357.131C309.523 380.265 313.716 396.498 318.966 405.83C321.137 409.688 323.342 411.279 325.582 410.602L325.05 405.475C324.52 400.287 324.017 394.942 323.744 389.683C323.553 386.016 323.424 382.331 323.327 378.737L306.387 357.131Z"
        fill="black" fill-opacity="0.159856" />
    <path fill-rule="evenodd" clip-rule="evenodd"
        d="M277.856 336.273C277.494 336.388 277.143 336.507 276.804 336.631C285.389 340.374 299.564 339.874 307.27 336.825C305.262 336.258 303.337 335.862 301.684 335.61C293.893 334.423 283.836 334.377 277.856 336.273Z"
        fill="#E5AA41" />
    <path fill-rule="evenodd" clip-rule="evenodd"
        d="M383.155 377.168C383.155 377.168 395.94 368.633 398.199 366.919C400.451 365.212 403.278 352.268 401.526 350.452C400.68 349.574 394.284 355.486 393.143 356.278C392.009 357.062 386.21 360.556 386.21 360.556C386.21 360.556 387.851 350.649 386.438 349.85C385.393 349.268 383.302 351.818 383.023 354.513C382.743 357.208 379.836 360.723 379.461 364.813C379.291 366.6 377.532 370.013 377.532 370.013L383.155 377.168Z"
        fill="url(#paint18_linear_399_372)" />
    <path fill-rule="evenodd" clip-rule="evenodd"
        d="M307.015 360.801C311.914 370.98 320.234 385.863 324.804 394.589C330.212 404.915 336.656 409.29 349.653 401.628C360.538 395.211 376.234 384.89 384.344 379.281C391.891 374.061 382.97 361.175 375.84 365.529C366.382 371.297 342.194 382.728 342.194 382.728C342.194 382.728 329.747 359.991 324.579 349.075C318.005 335.201 297.534 341.101 307.015 360.801Z"
        fill="#EA5455" />
    <path fill-rule="evenodd" clip-rule="evenodd"
        d="M342.195 382.728C342.195 382.728 344.471 390.744 345.008 390.428C345.545 390.111 344.631 381.579 344.631 381.579L342.195 382.728Z"
        fill="black" fill-opacity="0.159856" />
    <path fill-rule="evenodd" clip-rule="evenodd"
        d="M291.771 461.221L280.328 542.179L286.328 542.1L297.771 462.067L291.771 461.221Z"
        fill="#BFE7FF" />
    <path fill-rule="evenodd" clip-rule="evenodd"
        d="M329.932 461.221L341.375 542.179L335.376 542.1L323.933 462.067L329.932 461.221Z"
        fill="#91D6FF" />
    <path fill-rule="evenodd" clip-rule="evenodd"
        d="M256.886 461.221L245.443 542.179L251.443 542.1L262.886 462.067L256.886 461.221Z"
        fill="#BFE7FF" />
    <path fill-rule="evenodd" clip-rule="evenodd"
        d="M334.309 465.983C339.525 465.983 343.754 461.754 343.754 456.538C343.754 451.321 339.525 447.093 334.309 447.093H296.546C290.825 447.093 286.043 442.739 285.507 437.043L279.469 372.85C278.933 367.153 274.151 362.8 268.43 362.8H244.73C238.271 362.8 233.18 368.298 233.674 374.738L239.899 455.744C240.343 461.522 245.16 465.983 250.954 465.983H334.309Z"
        fill="#BFE7FF" />
    <path fill-rule="evenodd" clip-rule="evenodd"
        d="M343.752 456.457C343.7 456.458 343.648 456.458 343.596 456.458H291.613C285.82 456.458 281.003 451.998 280.558 446.222L274.25 364.363C277.194 366.121 279.268 369.21 279.611 372.847L285.644 436.806C286.182 442.501 290.963 446.853 296.683 446.853H334.333C339.536 446.853 343.754 451.071 343.754 456.274C343.754 456.335 343.753 456.396 343.752 456.457Z"
        fill="#91D6FF" />
    <path fill-rule="evenodd" clip-rule="evenodd"
        d="M557.984 394.543C557.984 394.13 557.65 393.796 557.238 393.796H473.102C472.689 393.796 472.355 394.13 472.355 394.543V395.639C472.355 396.052 472.689 396.386 473.102 396.386H557.238C557.65 396.386 557.984 396.052 557.984 395.639V394.543Z"
        fill="url(#paint19_linear_399_372)" />
    <path fill-rule="evenodd" clip-rule="evenodd"
        d="M557.992 394.543C557.992 394.13 557.658 393.796 557.246 393.796H524.919C524.507 393.796 524.172 394.13 524.172 394.543V395.639C524.172 396.052 524.507 396.386 524.919 396.386H557.246C557.658 396.386 557.992 396.052 557.992 395.639V394.543Z"
        fill="#518DF8" />
    <path fill-rule="evenodd" clip-rule="evenodd"
        d="M564.096 358.353C564.371 356.201 562.695 354.296 560.525 354.296H504.714C502.902 354.296 501.373 355.642 501.143 357.439L496.992 389.852C496.716 392.004 498.393 393.909 500.563 393.909H556.374C558.185 393.909 559.715 392.563 559.945 390.766L564.096 358.353Z"
        fill="#518DF8" />
    <path fill-rule="evenodd" clip-rule="evenodd"
        d="M562.396 358.353C562.672 356.201 560.995 354.296 558.826 354.296H504.194C502.383 354.296 500.853 355.642 500.623 357.439L496.472 389.852C496.197 392.004 497.873 393.909 500.043 393.909H554.675C556.486 393.909 558.015 392.563 558.246 390.766L562.396 358.353Z"
        fill="url(#paint20_linear_399_372)" />
    <path
        d="M560.447 359.821C560.695 357.884 559.186 356.17 557.233 356.17H505.475C503.844 356.17 502.468 357.381 502.261 358.999L498.521 388.236C498.273 390.173 499.782 391.887 501.735 391.887H553.493C555.124 391.887 556.5 390.675 556.707 389.058L560.447 359.821Z"
        fill="white" />
    <path fill-rule="evenodd" clip-rule="evenodd"
        d="M423.646 404.22C423.646 404.22 437.247 407.393 437.109 408.638C436.974 409.89 430.986 410.082 430.986 410.082C430.986 410.082 442.055 417.285 441.174 418.69C440.293 420.095 433.076 421.678 430.081 420.545C427.084 419.412 419.319 411.164 419.319 411.164L397.532 399.463L404.814 389.859L423.646 404.22Z"
        fill="url(#paint21_linear_399_372)" />
    <path fill-rule="evenodd" clip-rule="evenodd"
        d="M423.77 363.617C419.214 369.282 403.681 386.587 403.681 386.587L406.747 388.888L396.775 400.985C396.775 400.985 390.407 397.083 388.288 395.815C380.727 391.288 383.62 383.98 389.214 377.311C393.511 372.189 402.852 361.695 409.424 352.482C415.964 343.316 432.611 352.623 423.77 363.617Z"
        fill="#FFB66F" />
    <path fill-rule="evenodd" clip-rule="evenodd"
        d="M403.681 386.587C403.681 386.587 399.307 390.833 399.762 391.162C400.217 391.491 405.486 387.893 405.486 387.893L403.681 386.587Z"
        fill="black" fill-opacity="0.159856" />
    <path fill-rule="evenodd" clip-rule="evenodd"
        d="M406.129 387.623L393.131 400.491L399.63 404.744L408.559 389.459L406.129 387.623Z"
        fill="#FFEDC2" />
    <path fill-rule="evenodd" clip-rule="evenodd"
        d="M447.637 503.233L440.606 525.882L452.424 526.413C452.424 526.413 450.758 518.665 453.136 511.403C455.043 505.572 456.6 502.663 456.6 502.663L447.637 503.233Z"
        fill="url(#paint22_linear_399_372)" />
    <path fill-rule="evenodd" clip-rule="evenodd"
        d="M452.52 519.78C452.52 519.78 452.273 525.546 454.287 527.369C456.3 529.19 466.98 535.917 467.875 537.272C468.77 538.628 467.457 540.283 467.457 540.283C467.457 540.283 456.553 541.993 451.409 539.354C447.696 537.448 445.043 535.891 445.043 535.891L443.903 538.82L437.949 537.965C437.949 537.965 436.114 533.316 436.902 531.004C437.691 528.692 441.76 517.889 441.76 517.889L452.52 519.78Z"
        fill="#391B0B" />
    <path fill-rule="evenodd" clip-rule="evenodd"
        d="M413.249 426.031C422.138 426.898 465.922 437.326 474.937 439.178C483.952 441.03 491.574 451.051 484.7 462.654C476.978 475.679 455.151 516.158 455.151 516.158C455.016 516.191 454.884 516.249 454.748 516.249C450.308 516.249 446.35 515.641 442.539 512.985C442.539 512.985 448.33 470.54 461.813 458.712C461.813 458.712 426.995 471.231 409.583 457.571C399.311 449.513 403.453 425.075 413.249 426.031Z"
        fill="#33373E" />
    <path fill-rule="evenodd" clip-rule="evenodd"
        d="M481.575 442.255L479.184 472.278C479.381 471.928 479.576 471.582 479.768 471.24L482.046 442.637C481.892 442.506 481.735 442.379 481.575 442.255Z"
        fill="white" fill-opacity="0.192499" />
    <path fill-rule="evenodd" clip-rule="evenodd"
        d="M513.097 501.444C513.097 501.444 516.974 518.714 522.019 520.562C523.962 521.273 510.033 523.305 510.033 523.305L505.808 506.737L513.097 501.444Z"
        fill="url(#paint23_linear_399_372)" />
    <path fill-rule="evenodd" clip-rule="evenodd"
        d="M508.259 518.544L511.937 540.165L518.313 539.157L517.526 533.811C517.526 533.811 520.322 538.468 523.441 538.267C526.569 538.065 542.211 535.707 542.211 535.707C542.211 535.707 542.563 530.529 535.368 529.346C529.383 528.363 519.178 516.809 519.178 516.809L508.259 518.544Z"
        fill="#391B0B" />
    <path fill-rule="evenodd" clip-rule="evenodd"
        d="M420.708 423.171C420.708 423.171 407.876 450.35 425.909 459.682C443.348 468.707 489.752 457.063 489.752 457.063C489.752 457.063 488.819 464.596 489.752 471.314C492.188 488.861 504.17 510.449 505.26 514.007C505.809 515.798 519.173 513.151 519.173 511.026C519.173 508.901 512.355 460.537 511.141 450.236C509.934 439.934 506.122 438.438 494.99 435.622C492.432 434.975 459.286 427.436 456.515 427.656C432.709 429.544 420.708 423.171 420.708 423.171Z"
        fill="#42474F" />
    <path fill-rule="evenodd" clip-rule="evenodd"
        d="M456.515 427.656C459.286 427.436 492.432 434.975 494.99 435.622L496.817 436.091C506.313 438.575 509.832 440.428 511.055 449.547L511.384 452.165C512.386 459.804 515.094 477.769 517.237 492.725C514.819 487.228 512.818 481.129 511.234 474.427C507.542 458.808 508.332 445.982 507.341 443.736C506.349 441.49 457.861 434.32 449.53 432.84C445.903 432.196 443.858 430.599 443.393 428.048C447.419 428.161 451.793 428.031 456.515 427.656Z"
        fill="white" fill-opacity="0.192499" />
    <path fill-rule="evenodd" clip-rule="evenodd"
        d="M450.204 318.877C454.056 319.299 453.783 326.08 449.094 326.434C448.136 332.97 444.718 336.084 440.551 336.444L440.782 346.331L422.349 346.32C422.349 346.32 427.54 339.336 427.281 329.775C427.022 320.213 427.455 311.231 427.455 311.231L451.329 311.66L450.204 318.877Z"
        fill="url(#paint24_linear_399_372)" />
    <path fill-rule="evenodd" clip-rule="evenodd"
        d="M451.044 319.385C446.557 317.609 443.243 325.257 439.81 330.573C436.377 335.888 427.484 334.985 426.258 330.573C421.617 320.908 417.618 307.769 423.033 306.691C423.796 292.723 460.31 296.021 451.044 319.385Z"
        fill="#9E5229" />
    <path fill-rule="evenodd" clip-rule="evenodd"
        d="M426.02 301.156H433.933H434.044L434.119 301.239C441.148 309.095 442.722 320.664 439.437 331.099C439.183 331.427 438.907 331.727 438.611 332.001C442.29 321.471 440.881 309.618 433.82 301.656H425.432C425.619 301.483 425.815 301.316 426.02 301.156Z"
        fill="black" fill-opacity="0.199355" />
    <path
        d="M430.869 305.812C428.438 305.812 426.468 303.84 426.468 301.406C426.468 298.973 428.438 297 430.869 297C433.299 297 435.27 298.973 435.27 301.406C435.27 303.84 433.299 305.812 430.869 305.812Z"
        fill="#FB9934" />
    <path fill-rule="evenodd" clip-rule="evenodd"
        d="M454.712 348.001C458.792 353.987 465.593 374.303 465.979 378.873C466.413 384.145 460.753 392.544 460.66 400.176C460.578 407.809 464.882 426.915 463.589 429.062C462.305 431.209 419.692 443.621 417.292 442.601C414.891 441.581 406.604 430.581 408.498 426.111C410.402 421.64 418.268 411.5 417.367 405.408C416.478 399.318 411.31 376.836 408.744 369.184C406.188 361.532 407.04 353.499 411.81 350.206C414.171 348.577 420.469 343.948 431.685 343.97C442.901 343.991 454.395 347.537 454.712 348.001Z"
        fill="#FF9F43" />
    <path fill-rule="evenodd" clip-rule="evenodd"
        d="M463.859 373.966L444.304 359.916L444.31 362.483C444.382 378.33 445.38 386.725 461.977 412.695L461.593 410.048C461.052 406.206 460.633 402.608 460.66 400.176C460.718 395.361 462.993 390.241 464.555 385.793L463.859 373.966Z"
        fill="black" fill-opacity="0.159856" />
    <path fill-rule="evenodd" clip-rule="evenodd"
        d="M442.047 343.532C442.047 343.532 442.519 346.106 440.453 346.106C438.386 346.106 424.526 346.562 422.649 345.748C420.773 344.934 421.336 343.532 421.336 343.532H442.047Z"
        fill="#FFF6E1" />
    <path fill-rule="evenodd" clip-rule="evenodd"
        d="M511.126 378.861C511.126 378.861 522.412 371.328 524.407 369.815C526.395 368.309 528.89 356.885 527.344 355.283C526.597 354.507 520.95 359.725 519.943 360.424C518.943 361.116 513.822 364.2 513.822 364.2C513.822 364.2 515.271 355.456 514.024 354.751C513.101 354.238 511.256 356.488 511.009 358.866C510.762 361.245 508.196 364.347 507.864 367.956C507.715 369.533 507.131 371.577 507.131 371.577L475.815 385.025L479.092 399.648L511.126 378.861Z"
        fill="url(#paint25_linear_399_372)" />
    <path fill-rule="evenodd" clip-rule="evenodd"
        d="M443.91 364.415C448.234 373.4 455.58 386.534 459.614 394.235C464.388 403.349 470.077 407.21 481.551 400.447C482.894 399.656 485.799 397.892 485.799 397.892L478.695 382.12L474.967 383.767C474.967 383.767 463.978 363.701 459.416 354.067C453.612 341.822 435.54 347.029 443.91 364.415Z"
        fill="#FFB66F" />
    <path fill-rule="evenodd" clip-rule="evenodd"
        d="M474.966 383.768C474.966 383.768 476.975 390.842 477.45 390.563C477.924 390.283 477.117 382.753 477.117 382.753L474.966 383.768Z"
        fill="black" fill-opacity="0.159856" />
    <path fill-rule="evenodd" clip-rule="evenodd"
        d="M478.593 381.423L483.541 401.058L490.902 397.077L481.242 379.894L478.593 381.423Z"
        fill="#FFEDC2" />
    <path fill-rule="evenodd" clip-rule="evenodd"
        d="M431.341 298.15C431.341 298.15 427.193 292.84 422.403 294.233C417.612 295.626 413.279 304.165 415.336 312.191C417.383 320.219 415.695 324.797 413.212 330.207C406.54 344.76 429.638 354 429.638 354C429.638 354 427.836 343.217 431.341 336.705C434.952 329.999 437.002 321.399 437.002 316.137C437.002 306.986 431.341 298.15 431.341 298.15Z"
        fill="#9E5229" />
    <path fill-rule="evenodd" clip-rule="evenodd"
        d="M430.659 461.221L442.102 542.179L436.102 542.1L424.659 462.067L430.659 461.221Z"
        fill="#91D6FF" />
    <path fill-rule="evenodd" clip-rule="evenodd"
        d="M463.957 461.221L475.4 542.179L469.401 542.1L457.958 462.067L463.957 461.221Z"
        fill="#91D6FF" />
    <path fill-rule="evenodd" clip-rule="evenodd"
        d="M390.912 461.221L379.469 542.179L385.468 542.1L396.911 462.067L390.912 461.221Z"
        fill="#BFE7FF" />
    <path fill-rule="evenodd" clip-rule="evenodd"
        d="M468.334 465.983C473.551 465.983 477.779 461.754 477.779 456.538C477.779 451.321 473.551 447.093 468.334 447.093H430.572C424.85 447.093 420.068 442.739 419.533 437.043L413.495 372.85C412.959 367.153 408.177 362.8 402.455 362.8H378.755C372.297 362.8 367.205 368.298 367.7 374.738L373.924 455.744C374.368 461.522 379.185 465.983 384.98 465.983H468.334Z"
        fill="#BFE7FF" />
    <path fill-rule="evenodd" clip-rule="evenodd"
        d="M477.778 456.457C477.726 456.458 477.674 456.458 477.621 456.458H425.638C419.845 456.458 415.028 451.998 414.583 446.222L408.276 364.363C411.22 366.121 413.294 369.21 413.637 372.847L419.67 436.806C420.207 442.501 424.988 446.853 430.709 446.853H468.359C473.562 446.853 477.779 451.071 477.779 456.274C477.779 456.335 477.779 456.396 477.778 456.457Z"
        fill="#91D6FF" />
    <defs>
        <filter id="filter0_d_399_372" x="69.8574" y="83.0078" width="191.802" height="107.428"
            filterUnits="userSpaceOnUse" color-interpolation-filters="sRGB">
            <feFlood flood-opacity="0" result="BackgroundImageFix" />
            <feColorMatrix in="SourceAlpha" type="matrix"
                values="0 0 0 0 0 0 0 0 0 0 0 0 0 0 0 0 0 0 127 0" result="hardAlpha" />
            <feOffset dx="8" dy="9" />
            <feGaussianBlur stdDeviation="14" />
            <feColorMatrix type="matrix"
                values="0 0 0 0 0.0862745 0 0 0 0 0.113725 0 0 0 0 0.192157 0 0 0 0.7 0" />
            <feBlend mode="normal" in2="BackgroundImageFix" result="effect1_dropShadow_399_372" />
            <feBlend mode="normal" in="SourceGraphic" in2="effect1_dropShadow_399_372"
                result="shape" />
        </filter>
        <filter id="filter1_d_399_372" x="69.8574" y="141.592" width="224.949" height="198.679"
            filterUnits="userSpaceOnUse" color-interpolation-filters="sRGB">
            <feFlood flood-opacity="0" result="BackgroundImageFix" />
            <feColorMatrix in="SourceAlpha" type="matrix"
                values="0 0 0 0 0 0 0 0 0 0 0 0 0 0 0 0 0 0 127 0" result="hardAlpha" />
            <feOffset dx="8" dy="9" />
            <feGaussianBlur stdDeviation="14" />
            <feColorMatrix type="matrix"
                values="0 0 0 0 0.0862745 0 0 0 0 0.113725 0 0 0 0 0.192157 0 0 0 0.7 0" />
            <feBlend mode="normal" in2="BackgroundImageFix" result="effect1_dropShadow_399_372" />
            <feBlend mode="normal" in="SourceGraphic" in2="effect1_dropShadow_399_372"
                result="shape" />
        </filter>
        <filter id="filter2_d_399_372" x="95.5073" y="202.89" width="161.425" height="97.3125"
            filterUnits="userSpaceOnUse" color-interpolation-filters="sRGB">
            <feFlood flood-opacity="0" result="BackgroundImageFix" />
            <feColorMatrix in="SourceAlpha" type="matrix"
                values="0 0 0 0 0 0 0 0 0 0 0 0 0 0 0 0 0 0 127 0" result="hardAlpha" />
            <feOffset dy="13" />
            <feGaussianBlur stdDeviation="7.5" />
            <feColorMatrix type="matrix" values="0 0 0 0 0 0 0 0 0 0 0 0 0 0 0 0 0 0 0.144395 0" />
            <feBlend mode="normal" in2="BackgroundImageFix" result="effect1_dropShadow_399_372" />
            <feBlend mode="normal" in="SourceGraphic" in2="effect1_dropShadow_399_372"
                result="shape" />
        </filter>
        <filter id="filter3_d_399_372" x="275.234" y="105.237" width="272.182" height="197.484"
            filterUnits="userSpaceOnUse" color-interpolation-filters="sRGB">
            <feFlood flood-opacity="0" result="BackgroundImageFix" />
            <feColorMatrix in="SourceAlpha" type="matrix"
                values="0 0 0 0 0 0 0 0 0 0 0 0 0 0 0 0 0 0 127 0" result="hardAlpha" />
            <feOffset dx="6" dy="6" />
            <feGaussianBlur stdDeviation="8" />
            <feColorMatrix type="matrix"
                values="0 0 0 0 0.0862745 0 0 0 0 0.113725 0 0 0 0 0.192157 0 0 0 0.7 0" />
            <feBlend mode="normal" in2="BackgroundImageFix" result="effect1_dropShadow_399_372" />
            <feBlend mode="normal" in="SourceGraphic" in2="effect1_dropShadow_399_372"
                result="shape" />
        </filter>
        <linearGradient id="paint0_linear_399_372" x1="553.835" y1="311.939" x2="542.755"
            y2="361.416" gradientUnits="userSpaceOnUse">
            <stop stop-color="#FFAFAF" />
            <stop offset="1" stop-color="#F07777" />
        </linearGradient>
        <linearGradient id="paint1_linear_399_372" x1="552.975" y1="302.545" x2="546.327"
            y2="335.064" gradientUnits="userSpaceOnUse">
            <stop stop-color="#FDC6C6" />
            <stop offset="1" stop-color="#FAB2B2" />
        </linearGradient>
        <linearGradient id="paint2_linear_399_372" x1="505.964" y1="505.352" x2="504.371"
            y2="535.133" gradientUnits="userSpaceOnUse">
            <stop stop-color="#FDC6C6" />
            <stop offset="1" stop-color="#FAB2B2" />
        </linearGradient>
        <linearGradient id="paint3_linear_399_372" x1="474.892" y1="543.704" x2="426.817"
            y2="451.427" gradientUnits="userSpaceOnUse">
            <stop stop-color="#28324F" />
            <stop offset="1" stop-color="#222735" />
        </linearGradient>
        <linearGradient id="paint4_linear_399_372" x1="469.772" y1="340.915" x2="467.62"
            y2="369.518" gradientUnits="userSpaceOnUse">
            <stop stop-color="#FDC6C6" />
            <stop offset="1" stop-color="#FAB2B2" />
        </linearGradient>
        <linearGradient id="paint5_linear_399_372" x1="548.735" y1="370.46" x2="548.104" y2="388.93"
            gradientUnits="userSpaceOnUse">
            <stop stop-color="#FDC6C6" />
            <stop offset="1" stop-color="#FAB2B2" />
        </linearGradient>
        <linearGradient id="paint6_linear_399_372" x1="241.336" y1="202.269" x2="231.447"
            y2="203.194" gradientUnits="userSpaceOnUse">
            <stop stop-color="#4D63A0" />
            <stop offset="1" stop-color="#222735" />
        </linearGradient>
        <linearGradient id="paint7_linear_399_372" x1="126.013" y1="401.433" x2="126.013"
            y2="417.998" gradientUnits="userSpaceOnUse">
            <stop stop-color="#FE62BE" />
            <stop offset="1" stop-color="#FDB3A8" />
        </linearGradient>
        <linearGradient id="paint8_linear_399_372" x1="102.293" y1="388.795" x2="104.024"
            y2="405.27" gradientUnits="userSpaceOnUse">
            <stop stop-color="#FE62BE" />
            <stop offset="1" stop-color="#FDB3A8" />
        </linearGradient>
        <linearGradient id="paint9_linear_399_372" x1="663.729" y1="503.858" x2="662.133"
            y2="533.708" gradientUnits="userSpaceOnUse">
            <stop stop-color="#FDC6C6" />
            <stop offset="1" stop-color="#FAB2B2" />
        </linearGradient>
        <linearGradient id="paint10_linear_399_372" x1="659.097" y1="331.529" x2="654.857"
            y2="392.079" gradientUnits="userSpaceOnUse">
            <stop stop-color="#FDC6C6" />
            <stop offset="1" stop-color="#FAB2B2" />
        </linearGradient>
        <linearGradient id="paint11_linear_399_372" x1="713.443" y1="307.528" x2="702.218"
            y2="357.065" gradientUnits="userSpaceOnUse">
            <stop stop-color="#FFAFAF" />
            <stop offset="1" stop-color="#F07777" />
        </linearGradient>
        <linearGradient id="paint12_linear_399_372" x1="712.687" y1="298.112" x2="706.027"
            y2="330.709" gradientUnits="userSpaceOnUse">
            <stop stop-color="#FDC6C6" />
            <stop offset="1" stop-color="#FAB2B2" />
        </linearGradient>
        <linearGradient id="paint13_linear_399_372" x1="628.452" y1="505.061" x2="626.891"
            y2="538.334" gradientUnits="userSpaceOnUse">
            <stop stop-color="#FDC6C6" />
            <stop offset="1" stop-color="#FAB2B2" />
        </linearGradient>
        <linearGradient id="paint14_linear_399_372" x1="738.38" y1="364.401" x2="736.873"
            y2="403.785" gradientUnits="userSpaceOnUse">
            <stop stop-color="#FDC6C6" />
            <stop offset="1" stop-color="#FAB2B2" />
        </linearGradient>
        <linearGradient id="paint15_linear_399_372" x1="585.223" y1="334.275" x2="597.148"
            y2="382.102" gradientUnits="userSpaceOnUse">
            <stop stop-color="#9FF6EC" />
            <stop offset="1" stop-color="#7D9DFF" />
        </linearGradient>
        <linearGradient id="paint16_linear_399_372" x1="290.951" y1="390.303" x2="302.702"
            y2="416.423" gradientUnits="userSpaceOnUse">
            <stop stop-color="#FDC6C6" />
            <stop offset="1" stop-color="#A47070" />
        </linearGradient>
        <linearGradient id="paint17_linear_399_372" x1="321.017" y1="291.839" x2="317.541"
            y2="338.739" gradientUnits="userSpaceOnUse">
            <stop stop-color="#FDC6C6" />
            <stop offset="1" stop-color="#A47070" />
        </linearGradient>
        <linearGradient id="paint18_linear_399_372" x1="406.319" y1="343.096" x2="403.969"
            y2="375.735" gradientUnits="userSpaceOnUse">
            <stop stop-color="#FDC6C6" />
            <stop offset="1" stop-color="#A47070" />
        </linearGradient>
        <linearGradient id="paint19_linear_399_372" x1="551.74" y1="393.207" x2="551.74"
            y2="396.386" gradientUnits="userSpaceOnUse">
            <stop stop-color="#9FF6EC" />
            <stop offset="1" stop-color="#7D9DFF" />
        </linearGradient>
        <linearGradient id="paint20_linear_399_372" x1="558.033" y1="345.282" x2="558.033"
            y2="393.909" gradientUnits="userSpaceOnUse">
            <stop stop-color="#9FF6EC" />
            <stop offset="1" stop-color="#7D9DFF" />
        </linearGradient>
        <linearGradient id="paint21_linear_399_372" x1="421.21" y1="368.874" x2="441.755"
            y2="415.819" gradientUnits="userSpaceOnUse">
            <stop stop-color="#FDC6C6" />
            <stop offset="1" stop-color="#FFCCA1" />
        </linearGradient>
        <linearGradient id="paint22_linear_399_372" x1="459.367" y1="496.881" x2="456.67"
            y2="525.059" gradientUnits="userSpaceOnUse">
            <stop stop-color="#FDC6C6" />
            <stop offset="1" stop-color="#FAB2B2" />
        </linearGradient>
        <linearGradient id="paint23_linear_399_372" x1="525.042" y1="496.123" x2="522.81"
            y2="522.105" gradientUnits="userSpaceOnUse">
            <stop stop-color="#FDC6C6" />
            <stop offset="1" stop-color="#FAB2B2" />
        </linearGradient>
        <linearGradient id="paint24_linear_399_372" x1="458.155" y1="302.686" x2="455.057"
            y2="344.483" gradientUnits="userSpaceOnUse">
            <stop stop-color="#FDC6C6" />
            <stop offset="1" stop-color="#FFCCA1" />
        </linearGradient>
        <linearGradient id="paint25_linear_399_372" x1="536.826" y1="343.73" x2="533.835"
            y2="397.408" gradientUnits="userSpaceOnUse">
            <stop stop-color="#FDC6C6" />
            <stop offset="1" stop-color="#FFCCA1" />
        </linearGradient>
    </defs>
</svg>