<svg width="745" height="544" viewBox="0 0 745 544" fill="none" xmlns="http://www.w3.org/2000/svg">
    <path opacity="0.0845424"
        d="M673.322 164.249C682.699 151.731 700.455 149.18 712.981 158.552C725.381 167.83 728.006 185.315 718.959 197.81L718.681 198.187L644.381 297.374C634.918 310.007 617.342 313.21 604.042 304.802L603.64 304.544L556.866 273.948L509.707 342.593C500.939 355.356 483.566 358.694 470.703 350.171L470.315 349.909C457.545 341.146 454.205 323.783 462.733 310.928L462.995 310.54L524.794 220.586C534.001 207.185 552.143 203.492 565.843 212.144L566.257 212.41L613.9 243.575L673.322 164.249Z"
        fill="#0a83cf" />
    <path opacity="0.0845424"
        d="M430.119 3.29424C432.497 -0.160162 437.233 -1.03872 440.697 1.33194C444.116 3.67139 445.019 8.30087 442.758 11.7421L442.666 11.8791L424.149 38.779C421.434 42.5698 416.182 43.4829 412.346 40.8606L412.21 40.7654L401.575 33.1946L390.05 51.4538C387.84 54.9536 383.236 56.0368 379.697 53.9185L379.558 53.8332C376.048 51.6305 374.961 47.0392 377.086 43.5109L377.172 43.3722L392.456 19.158C394.974 15.169 400.259 13.9705 404.26 16.4812L404.469 16.6168L404.674 16.7584L415.532 24.4883L430.119 3.29424Z"
        fill="#0a83cf" />
    <path opacity="0.070266" fill-rule="evenodd" clip-rule="evenodd"
        d="M634.904 126.808V108.831H652.893C654.274 108.831 655.393 107.712 655.393 106.331V97.6761C655.393 96.2954 654.274 95.1761 652.893 95.1761H634.904V77.0664C634.904 75.6857 633.785 74.5664 632.404 74.5664H623.609C622.228 74.5664 621.109 75.6857 621.109 77.0664V95.1761H603.12C601.739 95.1761 600.62 96.2954 600.62 97.6761V106.331C600.62 107.712 601.739 108.831 603.12 108.831H621.109V126.808C621.109 128.189 622.228 129.308 623.609 129.308H632.404C633.785 129.308 634.904 128.189 634.904 126.808Z"
        fill="#00CFE8" />
    <path opacity="0.0739397" fill-rule="evenodd" clip-rule="evenodd"
        d="M91.604 20C142.195 20 183.208 60.9886 183.208 111.551C183.208 162.113 142.195 203.101 91.604 203.101C41.0125 203.101 0 162.113 0 111.551C0 60.9886 41.0125 20 91.604 20ZM91.604 65.3034C66.0475 65.3034 45.3298 86.0089 45.3298 111.551C45.3298 137.092 66.0475 157.798 91.604 157.798C117.16 157.798 137.878 137.092 137.878 111.551C137.878 86.0089 117.16 65.3034 91.604 65.3034Z"
        fill="#00CFE8" />
    <path fill-rule="evenodd" clip-rule="evenodd"
        d="M76.5975 85H546.726C555.562 85 562.726 92.1634 562.726 101V305.224C562.726 314.061 555.562 321.224 546.726 321.224H76.5975C67.761 321.224 60.5975 314.061 60.5975 305.224V101C60.5975 92.1634 67.761 85 76.5975 85Z"
        fill="#E7FCFF" />
    <path opacity="0.383371" fill-rule="evenodd" clip-rule="evenodd"
        d="M84.1483 85H546.726C555.562 85 562.726 92.1634 562.726 101V305.224C562.726 314.061 555.562 321.224 546.726 321.224H84.1483C75.3118 321.224 68.1483 314.061 68.1483 305.224V101C68.1483 92.1634 75.3118 85 84.1483 85Z"
        fill="#00CFE8" />
    <path fill-rule="evenodd" clip-rule="evenodd"
        d="M85.6991 92.5591H545.175C550.698 92.5591 555.175 97.0362 555.175 102.559V303.665C555.175 309.188 550.698 313.665 545.175 313.665H85.6991C80.1762 313.665 75.6991 309.188 75.6991 303.665V102.559C75.6991 97.0362 80.1762 92.5591 85.6991 92.5591Z"
        fill="#E7FCFF" />
    <path fill-rule="evenodd" clip-rule="evenodd"
        d="M280.852 293.822H350.023C353.336 293.822 356.023 296.509 356.023 299.822V313.665H274.852V299.822C274.852 296.509 277.538 293.822 280.852 293.822Z"
        fill="#D4EFFF" />
    <path fill-rule="evenodd" clip-rule="evenodd"
        d="M288.402 293.822H357.573C360.887 293.822 363.573 296.509 363.573 299.822V321.224H282.402V299.822C282.402 296.509 285.089 293.822 288.402 293.822Z"
        fill="#91D6FF" />
    <g filter="url(#filter0_dd_399_706)">
        <path
            d="M95.2457 102.008H220.269C223.246 102.008 225.658 104.421 225.658 107.397V148.047C225.658 151.023 223.246 153.436 220.269 153.436H95.2457C92.2696 153.436 89.8569 151.023 89.8569 148.047V107.397C89.8569 104.421 92.2696 102.008 95.2457 102.008Z"
            fill="black" />
    </g>
    <path
        d="M95.2457 102.008H220.269C223.246 102.008 225.658 104.421 225.658 107.397V148.047C225.658 151.023 223.246 153.436 220.269 153.436H95.2457C92.2696 153.436 89.8569 151.023 89.8569 148.047V107.397C89.8569 104.421 92.2696 102.008 95.2457 102.008Z"
        fill="white" />
    <path opacity="0.454078" fill-rule="evenodd" clip-rule="evenodd"
        d="M131.565 131.032H156.993C157.837 131.032 158.521 131.716 158.521 132.559C158.521 133.403 157.837 134.087 156.993 134.087H131.565C130.722 134.087 130.038 133.403 130.038 132.559C130.038 131.716 130.722 131.032 131.565 131.032Z"
        fill="#D7939F" />
    <path fill-rule="evenodd" clip-rule="evenodd"
        d="M131.565 122.375H146.821C147.664 122.375 148.348 123.059 148.348 123.903C148.348 124.747 147.664 125.431 146.821 125.431H131.565C130.722 125.431 130.038 124.747 130.038 123.903C130.038 123.059 130.722 122.375 131.565 122.375Z"
        fill="#0a83cf" />
    <path fill-rule="evenodd" clip-rule="evenodd"
        d="M204.814 120.284C206.984 117.429 211.054 116.876 213.905 119.048C214.561 119.548 215.116 120.168 215.54 120.876C215.758 121.241 215.64 121.714 215.276 121.932C214.912 122.151 214.439 122.033 214.221 121.668C213.897 121.128 213.474 120.655 212.974 120.274C210.843 118.65 207.82 119.022 206.141 121.085L206.038 121.216L203.653 124.353C199.928 129.253 193.625 131.414 187.694 129.848L187.44 129.779L185.521 129.237C185.398 129.202 185.273 129.17 185.148 129.143C181.64 128.369 178.169 130.541 177.31 134.01L177.27 134.182L176.874 135.98C176.734 136.616 176.463 137.216 176.077 137.741C174.551 139.817 171.634 140.262 169.56 138.735C169.218 138.483 169.145 138.001 169.397 137.658C169.648 137.316 170.13 137.243 170.472 137.494C171.861 138.518 173.816 138.22 174.838 136.829C175.064 136.521 175.232 136.175 175.333 135.807L175.372 135.649L175.768 133.851C176.736 129.451 181.084 126.67 185.479 127.639L185.71 127.694L185.939 127.755L187.858 128.297C193.173 129.798 198.858 127.945 202.273 123.622L202.429 123.421L204.814 120.284Z"
        fill="#0a83cf" />
    <path fill-rule="evenodd" clip-rule="evenodd"
        d="M197.883 119.353C199.453 115.857 203.558 114.296 207.05 115.869C207.752 116.184 208.396 116.615 208.957 117.142C210.276 118.384 211.498 120.347 212.643 123.035C212.809 123.426 212.628 123.878 212.237 124.045C211.847 124.212 211.395 124.03 211.228 123.639C210.159 121.13 209.044 119.338 207.903 118.264C207.467 117.854 206.966 117.519 206.42 117.273C203.751 116.072 200.624 117.22 199.354 119.838L199.286 119.984L198.791 121.086C198.676 121.343 198.543 121.591 198.395 121.83C196.567 124.766 192.708 125.663 189.775 123.834C189.426 123.616 189.043 123.458 188.642 123.366C186.69 122.919 184.746 124.102 184.231 126.022L184.198 126.157L183.342 129.899C183.084 131.026 182.537 132.067 181.754 132.917C179.313 135.571 175.216 135.785 172.514 133.434L172.37 133.305L168.884 130.092C168.572 129.804 168.551 129.317 168.839 129.004C169.108 128.712 169.549 128.675 169.861 128.905L169.926 128.959L173.412 132.173C175.486 134.083 178.714 133.95 180.623 131.874C181.178 131.271 181.579 130.543 181.793 129.754L181.842 129.555L182.699 125.813C183.346 122.985 186.16 121.217 188.985 121.865C189.482 121.979 189.959 122.165 190.401 122.416L190.589 122.527C192.801 123.907 195.711 123.23 197.089 121.016C197.164 120.896 197.233 120.772 197.297 120.646L197.388 120.455L197.883 119.353Z"
        fill="#D7939F" />
    <path
        d="M112.491 138.669C118.249 138.669 122.917 133.996 122.917 128.231C122.917 122.466 118.249 117.793 112.491 117.793C106.732 117.793 102.064 122.466 102.064 128.231C102.064 133.996 106.732 138.669 112.491 138.669Z"
        fill="#0a83cf" />
    <g filter="url(#filter1_dd_399_706)">
        <path
            d="M94.8569 160.592H253.806C256.568 160.592 258.806 162.83 258.806 165.592V298.271C258.806 301.033 256.568 303.271 253.806 303.271H94.8569C92.0955 303.271 89.8569 301.033 89.8569 298.271V165.592C89.8569 162.83 92.0955 160.592 94.8569 160.592Z"
            fill="black" />
    </g>
    <path
        d="M94.8569 160.592H253.806C256.568 160.592 258.806 162.83 258.806 165.592V298.271C258.806 301.033 256.568 303.271 253.806 303.271H94.8569C92.0955 303.271 89.8569 301.033 89.8569 298.271V165.592C89.8569 162.83 92.0955 160.592 94.8569 160.592Z"
        fill="white" />
    <mask id="mask0_399_706" style="mask-type:luminance" maskUnits="userSpaceOnUse" x="89" y="160"
        width="170" height="144">
        <g opacity="0.414737">
            <path
                d="M94.8569 160.592H253.806C256.568 160.592 258.806 162.83 258.806 165.592V298.271C258.806 301.033 256.568 303.271 253.806 303.271H94.8569C92.0955 303.271 89.8569 301.033 89.8569 298.271V165.592C89.8569 162.83 92.0955 160.592 94.8569 160.592Z"
                fill="#CEF9FF" />
        </g>
    </mask>
    <g mask="url(#mask0_399_706)">
        <path opacity="0.414737" fill-rule="evenodd" clip-rule="evenodd"
            d="M112.509 268.982C125.899 265.149 135.546 259.32 141.45 251.497C150.307 239.761 153.292 228.386 168.524 228.386C183.755 228.386 185.708 245.808 202.174 245.808C218.639 245.808 219.54 223.59 225.012 214.769C228.661 208.887 233.633 205.947 239.929 205.947V280.348C239.929 282.049 238.55 283.428 236.849 283.428H115.589C113.888 283.428 112.509 282.049 112.509 280.348V268.982Z"
            fill="#CEF9FF" />
    </g>
    <mask id="mask1_399_706" style="mask-type:luminance" maskUnits="userSpaceOnUse" x="89" y="160"
        width="170" height="144">
        <path
            d="M94.8569 160.592H253.806C256.568 160.592 258.806 162.83 258.806 165.592V298.271C258.806 301.033 256.568 303.271 253.806 303.271H94.8569C92.0955 303.271 89.8569 301.033 89.8569 298.271V165.592C89.8569 162.83 92.0955 160.592 94.8569 160.592Z"
            fill="#8EEAF6" />
    </mask>
    <g mask="url(#mask1_399_706)">
        <path d="M155.926 174.765H103.071V180.435H155.926V174.765Z" fill="#8EEAF6" />
    </g>
    <mask id="mask2_399_706" style="mask-type:luminance" maskUnits="userSpaceOnUse" x="89" y="160"
        width="170" height="144">
        <path
            d="M94.8569 160.592H253.806C256.568 160.592 258.806 162.83 258.806 165.592V298.271C258.806 301.033 256.568 303.271 253.806 303.271H94.8569C92.0955 303.271 89.8569 301.033 89.8569 298.271V165.592C89.8569 162.83 92.0955 160.592 94.8569 160.592Z"
            fill="#8EEAF6" fill-opacity="0.401934" />
    </mask>
    <g mask="url(#mask2_399_706)">
        <path fill-rule="evenodd" clip-rule="evenodd"
            d="M105.905 188.939H124.776C126.342 188.939 127.611 190.208 127.611 191.774C127.611 193.339 126.342 194.608 124.776 194.608H105.905C104.34 194.608 103.071 193.339 103.071 191.774C103.071 190.208 104.34 188.939 105.905 188.939Z"
            fill="#8EEAF6" fill-opacity="0.401934" />
    </g>
    <mask id="mask3_399_706" style="mask-type:luminance" maskUnits="userSpaceOnUse" x="89" y="160"
        width="170" height="144">
        <path
            d="M94.8569 160.592H253.806C256.568 160.592 258.806 162.83 258.806 165.592V298.271C258.806 301.033 256.568 303.271 253.806 303.271H94.8569C92.0955 303.271 89.8569 301.033 89.8569 298.271V165.592C89.8569 162.83 92.0955 160.592 94.8569 160.592Z"
            fill="#8EEAF6" fill-opacity="0.451705" />
    </mask>
    <g mask="url(#mask3_399_706)">
        <path fill-rule="evenodd" clip-rule="evenodd"
            d="M226.243 181.379C228.068 181.379 229.547 179.899 229.547 178.072C229.547 176.246 228.068 174.765 226.243 174.765C224.419 174.765 222.94 176.246 222.94 178.072C222.94 179.899 224.419 181.379 226.243 181.379Z"
            fill="#8EEAF6" fill-opacity="0.451705" />
    </g>
    <mask id="mask4_399_706" style="mask-type:luminance" maskUnits="userSpaceOnUse" x="89" y="160"
        width="170" height="144">
        <path
            d="M94.8569 160.592H253.806C256.568 160.592 258.806 162.83 258.806 165.592V298.271C258.806 301.033 256.568 303.271 253.806 303.271H94.8569C92.0955 303.271 89.8569 301.033 89.8569 298.271V165.592C89.8569 162.83 92.0955 160.592 94.8569 160.592Z"
            fill="#8EEAF6" fill-opacity="0.451705" />
    </mask>
    <g mask="url(#mask4_399_706)">
        <path fill-rule="evenodd" clip-rule="evenodd"
            d="M235.682 181.379C237.506 181.379 238.985 179.899 238.985 178.072C238.985 176.246 237.506 174.765 235.682 174.765C233.857 174.765 232.378 176.246 232.378 178.072C232.378 179.899 233.857 181.379 235.682 181.379Z"
            fill="#8EEAF6" fill-opacity="0.451705" />
    </g>
    <mask id="mask5_399_706" style="mask-type:luminance" maskUnits="userSpaceOnUse" x="89" y="160"
        width="170" height="144">
        <path
            d="M94.8569 160.592H253.806C256.568 160.592 258.806 162.83 258.806 165.592V298.271C258.806 301.033 256.568 303.271 253.806 303.271H94.8569C92.0955 303.271 89.8569 301.033 89.8569 298.271V165.592C89.8569 162.83 92.0955 160.592 94.8569 160.592Z"
            fill="#8EEAF6" fill-opacity="0.451705" />
    </mask>
    <g mask="url(#mask5_399_706)">
        <path fill-rule="evenodd" clip-rule="evenodd"
            d="M245.12 181.379C246.945 181.379 248.424 179.899 248.424 178.072C248.424 176.246 246.945 174.765 245.12 174.765C243.296 174.765 241.817 176.246 241.817 178.072C241.817 179.899 243.296 181.379 245.12 181.379Z"
            fill="#8EEAF6" fill-opacity="0.451705" />
    </g>
    <g filter="url(#filter2_d_399_706)">
        <path
            d="M292.718 115.237H517.931C522.064 115.237 525.415 118.588 525.415 122.721V273.237C525.415 277.371 522.064 280.721 517.931 280.721H292.718C288.585 280.721 285.234 277.371 285.234 273.237V122.721C285.234 118.588 288.585 115.237 292.718 115.237Z"
            fill="black" />
    </g>
    <path
        d="M292.718 115.237H517.931C522.064 115.237 525.415 118.588 525.415 122.721V273.237C525.415 277.371 522.064 280.721 517.931 280.721H292.718C288.585 280.721 285.234 277.371 285.234 273.237V122.721C285.234 118.588 288.585 115.237 292.718 115.237Z"
        fill="white" />
    <path fill-rule="evenodd" clip-rule="evenodd"
        d="M325.853 200.101V259.287H317.023V200.101H325.853Z" fill="#E9C7CD" />
    <path fill-rule="evenodd" clip-rule="evenodd"
        d="M325.853 214.245V259.287H317.023V214.245H325.853Z" fill="#D7939F" />
    <path fill-rule="evenodd" clip-rule="evenodd"
        d="M325.853 242.533V259.287H317.023V242.533H325.853Z" fill="#0a83cf" />
    <path fill-rule="evenodd" clip-rule="evenodd"
        d="M347.045 185.957V259.287H338.215V185.957H347.045Z" fill="#E9C7CD" />
    <path fill-rule="evenodd" clip-rule="evenodd"
        d="M347.045 207.172V259.287H338.215V207.172H347.045Z" fill="#D7939F" />
    <path fill-rule="evenodd" clip-rule="evenodd"
        d="M347.045 242.533V259.287H338.215V242.533H347.045Z" fill="#0a83cf" />
    <path fill-rule="evenodd" clip-rule="evenodd"
        d="M368.238 196.565V259.287H359.407V196.565H368.238Z" fill="#E9C7CD" />
    <path fill-rule="evenodd" clip-rule="evenodd"
        d="M368.238 217.781V259.287H359.407V217.781H368.238Z" fill="#D7939F" />
    <path fill-rule="evenodd" clip-rule="evenodd"
        d="M368.238 246.069V259.287H359.407V246.069H368.238Z" fill="#0a83cf" />
    <path fill-rule="evenodd" clip-rule="evenodd" d="M389.43 178.885V259.287H380.6V178.885H389.43Z"
        fill="#E9C7CD" />
    <path fill-rule="evenodd" clip-rule="evenodd" d="M389.43 200.101V259.287H380.6V200.101H389.43Z"
        fill="#D7939F" />
    <path fill-rule="evenodd" clip-rule="evenodd" d="M389.43 228.389V259.287H380.6V228.389H389.43Z"
        fill="#0a83cf" />
    <path fill-rule="evenodd" clip-rule="evenodd"
        d="M410.623 164.741V259.287H401.792V164.741H410.623Z" fill="#E9C7CD" />
    <path fill-rule="evenodd" clip-rule="evenodd"
        d="M410.623 193.029V259.287H401.792V193.029H410.623Z" fill="#D7939F" />
    <path fill-rule="evenodd" clip-rule="evenodd"
        d="M410.623 235.46V259.287H401.792V235.46H410.623Z" fill="#0a83cf" />
    <path fill-rule="evenodd" clip-rule="evenodd"
        d="M431.815 185.957V259.287H422.985V185.957H431.815Z" fill="#E9C7CD" />
    <path fill-rule="evenodd" clip-rule="evenodd"
        d="M431.815 207.172V259.287H422.985V207.172H431.815Z" fill="#D7939F" />
    <path fill-rule="evenodd" clip-rule="evenodd"
        d="M431.815 239.704V259.287H422.985V239.704H431.815Z" fill="#0a83cf" />
    <path fill-rule="evenodd" clip-rule="evenodd"
        d="M453.008 193.029V259.287H444.177V193.029H453.008Z" fill="#E9C7CD" />
    <path fill-rule="evenodd" clip-rule="evenodd"
        d="M453.008 207.173V259.287H444.177V207.173H453.008Z" fill="#D7939F" />
    <path fill-rule="evenodd" clip-rule="evenodd"
        d="M453.008 234.753V259.287H444.177V234.753H453.008Z" fill="#0a83cf" />
    <path fill-rule="evenodd" clip-rule="evenodd" d="M474.2 178.885V259.287H465.37V178.885H474.2Z"
        fill="#E9C7CD" />
    <path fill-rule="evenodd" clip-rule="evenodd" d="M474.2 207.173V259.287H465.37V207.173H474.2Z"
        fill="#D7939F" />
    <path fill-rule="evenodd" clip-rule="evenodd" d="M474.2 241.826V259.287H465.37V241.826H474.2Z"
        fill="#0a83cf" />
    <path fill-rule="evenodd" clip-rule="evenodd"
        d="M495.392 193.029V259.287H486.562V193.029H495.392Z" fill="#E9C7CD" />
    <path fill-rule="evenodd" clip-rule="evenodd"
        d="M495.392 207.173V259.287H486.562V207.173H495.392Z" fill="#D7939F" />
    <path fill-rule="evenodd" clip-rule="evenodd"
        d="M495.392 241.826V259.287H486.562V241.826H495.392Z" fill="#0a83cf" />
    <path opacity="0.57573" fill-rule="evenodd" clip-rule="evenodd"
        d="M316.318 143.525H386.955C388.127 143.525 389.077 144.475 389.077 145.646C389.077 146.818 388.127 147.768 386.955 147.768H316.318C315.147 147.768 314.197 146.818 314.197 145.646C314.197 144.475 315.147 143.525 316.318 143.525Z"
        fill="#0a83cf" />
    <path d="M353.756 131.502H314.197V135.746H353.756V131.502Z" fill="#0a83cf" />
    <path fill-rule="evenodd" clip-rule="evenodd"
        d="M558.041 449.882L569.484 540.29L563.484 540.21L552.041 450.728L558.041 449.882Z"
        fill="#BFE7FF" />
    <path fill-rule="evenodd" clip-rule="evenodd"
        d="M471.172 454.648C471.172 449.431 475.401 445.203 480.618 445.203H518.38C524.101 445.203 528.883 440.849 529.419 435.153L535.457 370.96C535.993 365.263 540.775 360.91 546.496 360.91H570.196C576.32 360.91 581.284 365.874 581.284 371.998C581.284 372.282 581.274 372.565 581.252 372.848L575.028 453.854C574.584 459.632 569.766 464.093 563.972 464.093H480.618C475.401 464.093 471.172 459.864 471.172 454.648Z"
        fill="#91D6FF" />
    <path fill-rule="evenodd" clip-rule="evenodd"
        d="M569.943 360.91C570.518 360.91 571.082 360.954 571.634 361.038C571.722 361.6 571.768 362.176 571.768 362.762C571.768 363.046 571.757 363.331 571.735 363.614L565.516 444.332C565.07 450.108 560.254 454.568 554.46 454.568H471.33L471.174 454.567C471.173 454.506 471.172 454.445 471.172 454.384C471.172 449.181 475.39 444.963 480.593 444.963H518.243C523.963 444.963 528.745 440.611 529.282 434.916L535.315 370.957C535.852 365.262 540.634 360.91 546.354 360.91H569.943Z"
        fill="#BFE7FF" />
    <path fill-rule="evenodd" clip-rule="evenodd"
        d="M545.276 345.34C557.474 342.498 558.278 325.746 549.004 319.934C558.568 299.875 536.451 279.958 521.301 292.241C511.369 287.987 503.115 304.586 512.357 317.477C508.482 339.613 516.368 345.334 530.584 345.577L545.276 345.34Z"
        fill="#422851" />
    <path fill-rule="evenodd" clip-rule="evenodd"
        d="M545.124 341.339C545.124 341.339 539.191 339.946 538.985 330.217C538.779 320.489 538.923 317.169 538.923 317.169L525.853 316.933C525.853 316.933 525.71 327.774 525.708 331.696C525.703 342.229 518.368 341.339 518.368 341.339C518.368 341.339 519.893 349.88 531.736 350.546C540.983 351.067 545.124 341.339 545.124 341.339Z"
        fill="url(#paint0_linear_399_706)" />
    <path fill-rule="evenodd" clip-rule="evenodd"
        d="M541.97 312.311C547.801 312.085 546.85 320.625 540.793 320.614C540.793 320.614 537.275 332.746 525.061 332.746C515.141 332.746 514.496 318.606 514.406 315.785C514.309 312.777 514.297 302.896 514.297 302.896L542.197 302.883L541.97 312.311Z"
        fill="url(#paint1_linear_399_706)" />
    <path d="M527.416 324.595C527.416 324.595 524.506 327.06 521.137 324.752" stroke="#F77B7B"
        stroke-width="1.5" stroke-linecap="round" />
    <path d="M525.495 327.45C524.59 327.867 523.719 327.898 522.941 327.481" stroke="#F49494"
        stroke-linecap="round" />
    <path d="M541.376 316.904C541.316 315.534 541.734 314.446 543.13 314.227" stroke="#F77B7B"
        stroke-linecap="round" />
    <path fill-rule="evenodd" clip-rule="evenodd"
        d="M542.893 311.255C542.893 311.255 539.697 315.546 539.05 315.569C538.402 315.592 538.176 309.989 538.176 309.989C534.255 309.689 524.334 307.712 521.901 303.107C520.201 307.17 516.949 308.975 514.813 308.628L514.408 317.261L513.411 299.906H543.675L542.893 311.255Z"
        fill="#422851" />
    <path fill-rule="evenodd" clip-rule="evenodd"
        d="M485.405 512.891C485.405 512.891 490.636 523.462 486.348 526.793C482.053 530.124 470.709 536.368 470.709 536.368L500.763 534.478L494.083 511.424L485.405 512.891Z"
        fill="url(#paint2_linear_399_706)" />
    <path fill-rule="evenodd" clip-rule="evenodd"
        d="M497.856 522.951C496.373 523.124 497.957 528.12 494.745 528.5C491.541 528.88 489.983 524.146 486.346 525.647C482.709 527.148 469.446 534.906 468.923 538.078C468.395 541.249 473.336 542.182 480.113 541.466C486.891 540.749 488.14 538.337 493.227 539.309C498.309 540.28 502.115 538.732 501.948 535.017C501.78 531.303 499.339 522.778 497.856 522.951Z"
        fill="#222D4E" />
    <path fill-rule="evenodd" clip-rule="evenodd"
        d="M484.687 526.417L485.348 527.407C485.654 527.867 485.53 528.487 485.07 528.794C485.048 528.808 485.026 528.822 485.003 528.835L476.037 533.841C475.747 534.003 475.394 534.01 475.097 533.859L473.705 533.153C475.891 531.569 477.679 530.378 479.654 529.21C481.17 528.313 482.849 527.388 484.687 526.417Z"
        fill="white" fill-opacity="0.540975" />
    <path fill-rule="evenodd" clip-rule="evenodd"
        d="M530.677 419.725C521.579 420.131 470.939 431.338 461.739 433.242C452.538 435.145 444.76 445.448 451.776 457.377C459.656 470.768 479.987 508.799 484.923 517.372C487.366 521.616 499.692 519.237 496.797 512.114C491.4 498.838 488.893 465.485 475.132 453.324C475.132 453.324 521.409 461.382 541.399 452.151C555.927 445.442 552.64 418.742 530.677 419.725Z"
        fill="url(#paint3_linear_399_706)" />
    <path fill-rule="evenodd" clip-rule="evenodd"
        d="M466.211 365.893C466.211 365.893 466.313 358.486 463.724 354.615C461.134 350.744 461.031 346.632 459.072 346.766C457.112 346.901 459.052 356.458 459.052 356.458C459.052 356.458 456.565 355.508 454.779 354.306C452.993 353.103 447.576 347.176 446.31 348.226C444.164 350.016 447.621 360.111 449.503 362.129C451.393 364.148 461.713 370.787 461.713 370.787L466.211 365.893Z"
        fill="url(#paint4_linear_399_706)" />
    <path fill-rule="evenodd" clip-rule="evenodd"
        d="M522.124 361.454C517.892 371.276 510.142 389.319 506.947 394.703C502.943 401.444 496.63 404.414 489.238 399.412C481.47 394.156 460.083 373.657 459.456 369.014C458.835 364.37 464.069 358.799 468.806 361.683C473.542 364.568 493.224 380.956 493.224 380.956C493.224 380.956 501.167 360.583 507.557 348.782C513.09 338.571 528.566 346.522 522.124 361.454Z"
        fill="#0a83cf" />
    <path fill-rule="evenodd" clip-rule="evenodd"
        d="M493.142 380.966C491.72 385.793 490.842 388.067 490.51 387.787C490.177 387.508 490.304 384.603 490.891 379.074L493.142 380.966Z"
        fill="black" fill-opacity="0.302803" />
    <path fill-rule="evenodd" clip-rule="evenodd"
        d="M564.422 349.619C564.422 349.619 554.222 383.79 553.92 390.258C553.618 396.727 562.262 415.739 560.791 420.545C557.397 431.649 514.074 436.431 512.419 421.492C511.647 414.526 513.253 408.273 511.402 400.064C509.558 391.855 502.144 379.656 506.349 368.187C510.554 356.719 509.427 346.108 512.435 344.103C515.443 342.097 522.474 339.967 522.474 339.967C525.893 345.002 537.435 344.928 542.943 339.612C542.943 339.612 556.626 342.268 564.422 349.619Z"
        fill="#0a83cf" />
    <path fill-rule="evenodd" clip-rule="evenodd"
        d="M555.282 355.154C548.483 365.949 548.504 384.744 544.852 387.206C541.201 389.668 526.989 387.252 526.989 389.201C526.989 391.151 546.629 409.016 543.405 417.556C541.716 422.028 542.174 426.029 544.778 429.558L545.628 429.373C553.367 427.623 559.588 424.481 560.791 420.545C562.262 415.739 552.621 396.727 552.923 390.258C553.18 384.768 561.286 359.315 563.731 351.747C561.741 348.234 558.925 349.369 555.282 355.154Z"
        fill="black" fill-opacity="0.199355" />
    <path fill-rule="evenodd" clip-rule="evenodd"
        d="M543.689 383.794C543.689 383.794 535.098 376.187 532.468 375.304C529.838 374.421 514.435 373.36 514.533 375.355C514.643 377.493 522.916 377.37 523.773 378.421C524.63 379.472 524.825 386.659 528.065 387.465C531.299 388.272 540.994 389.663 540.994 389.663L543.689 383.794Z"
        fill="url(#paint5_linear_399_706)" />
    <path fill-rule="evenodd" clip-rule="evenodd"
        d="M566.544 351.583C575.595 364.364 583.322 383.833 586.289 391.423C589.255 399.013 586.263 410.462 573.219 408.214C560.2 405.973 539.484 393.792 537.192 390.239C534.9 386.686 538.382 380.221 542.767 381.067C546.83 381.85 566.98 390.423 566.98 390.423C566.98 390.423 554.017 367.432 550.851 361.269C545.563 350.976 558.571 340.322 566.544 351.583Z"
        fill="#0a83cf" />
    <path fill-rule="evenodd" clip-rule="evenodd"
        d="M566.775 390.265C571.301 392.515 573.289 393.169 572.737 392.225C572.185 391.281 569.334 389.152 564.184 385.836L566.775 390.265Z"
        fill="black" fill-opacity="0.302803" />
    <path fill-rule="evenodd" clip-rule="evenodd"
        d="M234.062 509.194C234.062 509.194 233.926 517.905 239.273 521C244.619 524.094 252.901 529.844 252.901 529.844L221.393 530.912L222.291 509.116L234.062 509.194Z"
        fill="#F8CFCF" />
    <path fill-rule="evenodd" clip-rule="evenodd"
        d="M220.293 518.794L219.78 532.926H227.099L227.6 531.105C227.6 531.105 230.356 530.992 231.948 531.778C233.631 532.61 233.857 533.014 233.857 533.014L257.071 533.063C257.071 533.063 258.216 528.495 251.14 525.191C244.064 521.887 238.911 517.197 237.933 516.717C236.947 516.233 234.958 515.96 233.557 517.096C232.157 518.232 231.049 521.218 227.875 521.312C223.79 521.433 221.443 516.404 220.293 518.794Z"
        fill="#4B4B4B" />
    <path d="M240.132 518.25L237.725 520.577" stroke="white" stroke-width="2" stroke-linecap="round" />
    <path d="M243.641 520.014L241.234 522.342" stroke="white" stroke-width="2"
        stroke-linecap="round" />
    <path d="M247.15 521.779L244.744 524.107" stroke="white" stroke-width="2" stroke-linecap="round" />
    <path fill-rule="evenodd" clip-rule="evenodd"
        d="M211.001 321C211.001 321 219.755 417.38 220.027 424.079C220.299 430.779 217.215 442.342 217.275 454.874C217.315 463.229 217.691 482.129 218.402 511.575L237.711 511.984C243.121 458.773 245.856 428.177 245.914 420.198C246.001 408.229 246.745 322.152 246.745 322.152L211.001 321Z"
        fill="#383838" />
    <path opacity="0.283552" fill-rule="evenodd" clip-rule="evenodd"
        d="M224.92 427.08L224.941 427.318C225.232 431.404 222.694 444.846 217.328 467.645L217.275 454.874C217.216 442.566 220.19 431.193 220.038 424.443L220.027 424.08C219.935 421.822 218.88 409.379 217.522 393.873L218.156 396.144C221.879 409.596 224.133 419.908 224.92 427.08Z"
        fill="white" fill-opacity="0.192499" />
    <path fill-rule="evenodd" clip-rule="evenodd"
        d="M187.478 507.966L183.755 530.525L197.482 530.457L197.917 507.613L187.478 507.966Z"
        fill="#F8CFCF" />
    <path fill-rule="evenodd" clip-rule="evenodd"
        d="M183.638 520.557L183.528 523.91C182.156 525.431 181.168 528.474 180.563 533.039C180.563 536.229 201.778 536.134 202.798 533.039C202.057 528.068 200.888 524.957 199.29 523.707L199.278 520.385C199.273 519.031 198.362 517.849 197.055 517.498L194.992 516.945C192.985 514.018 190.251 514.121 187.907 517.311L186.001 517.724C184.658 518.015 183.684 519.183 183.638 520.557Z"
        fill="#4B4B4B" />
    <path d="M188.687 519.749H194.244" stroke="white" stroke-width="2" stroke-linecap="round" />
    <path d="M188.687 522.394H194.244" stroke="white" stroke-width="2" stroke-linecap="round" />
    <path d="M189.57 525.038H193.36" stroke="white" stroke-width="2" stroke-linecap="round" />
    <path fill-rule="evenodd" clip-rule="evenodd"
        d="M194.402 322.265C194.402 322.265 188.268 388.331 188.352 400.983C188.435 413.635 190.239 419.191 187.671 428.267C185.959 434.318 184.373 461.491 182.913 509.786L201.904 511.865C209.992 460.186 214.476 430.764 215.356 423.599C216.675 412.852 232.981 321.354 232.981 321.354L194.402 322.265Z"
        fill="#2E2E2E" />
    <path opacity="0.283552" fill-rule="evenodd" clip-rule="evenodd"
        d="M199.531 367.105L198.373 371.299C194.981 383.674 191.85 396.761 192.67 415.456L192.71 416.309C192.912 420.359 190.335 443.861 184.981 486.817L184.472 489.836C183.947 492.915 183.479 495.543 183.07 497.718L183.186 493.913C183.869 472.915 185.705 435.216 187.671 428.268C190.239 419.192 188.435 413.635 188.352 400.983C188.293 392.127 191.281 357.098 193.079 336.877L194.402 322.265L202.418 322.076L202.438 324.327C202.579 345.099 201.61 359.359 199.531 367.105Z"
        fill="white" fill-opacity="0.192499" />
    <path fill-rule="evenodd" clip-rule="evenodd"
        d="M287.836 240.566C287.836 240.566 286.25 231.828 286.82 230.058C287.307 228.529 291.909 226.324 291.909 226.324C291.909 226.324 299.914 213.818 301.666 215.091C303.091 216.123 297.497 225.343 297.497 225.343C297.497 225.343 302.598 230.636 302.527 233.002C302.455 235.368 294.201 242.774 294.201 242.774L287.836 240.566Z"
        fill="#F8CFCF" />
    <path fill-rule="evenodd" clip-rule="evenodd"
        d="M292.081 226.198C292.081 226.198 295.626 225.721 296.191 226.812C296.672 227.742 293.726 230.379 293.726 231.12C293.726 231.861 293.768 237.472 294.005 237.523C294.242 237.574 297.556 228.367 296.85 226.42C296.268 224.821 292.081 226.198 292.081 226.198Z"
        fill="#F28585" />
    <path fill-rule="evenodd" clip-rule="evenodd"
        d="M245.547 251.684C236.262 243.662 222.318 258.124 237.866 271.57C243.798 276.699 262.429 289.494 266.996 292.307C274.268 296.786 280.243 292.744 282.698 285.698C284.781 279.723 297.239 247.743 295.654 243.046C294.62 239.982 289.072 237.002 286.287 239.412C282.217 242.936 269.767 273.84 269.767 273.84C269.767 273.84 256.105 260.805 245.547 251.684Z"
        fill="#0a83cf" />
    <path fill-rule="evenodd" clip-rule="evenodd"
        d="M269.767 273.839C272.485 277.137 273.943 278.534 274.139 278.03C274.335 277.526 273.257 275.156 270.905 270.918L269.767 273.839Z"
        fill="black" fill-opacity="0.159856" />
    <path d="M285.205 241.393C288.445 239.893 291.984 241.747 293.934 244.723" stroke="#9B384B"
        stroke-linecap="round" />
    <path fill-rule="evenodd" clip-rule="evenodd"
        d="M205.743 242.432C205.743 242.432 211.081 241.203 211.266 232.628C211.451 224.053 211.321 221.126 211.321 221.126L223.977 220.918C223.977 220.918 224.105 230.475 224.107 233.932C224.112 241.457 229.813 243.49 229.813 243.49C229.813 243.49 229.339 251.719 218.684 252.306C210.365 252.765 205.743 242.432 205.743 242.432Z"
        fill="#F8C5C5" />
    <path fill-rule="evenodd" clip-rule="evenodd"
        d="M235.252 211.882L234.969 219.986C237.361 217.23 238.976 213.814 239.455 209.433L235.252 211.882Z"
        fill="url(#paint6_linear_399_706)" />
    <path fill-rule="evenodd" clip-rule="evenodd"
        d="M210.159 216.791C204.914 216.592 205.769 224.121 211.218 224.11C211.218 224.11 217.074 235.654 226.269 235.684C230.697 235.698 232.143 231.831 233.471 229.116C234.798 226.401 235.773 222.34 235.854 219.854C235.941 217.203 235.952 208.493 235.952 208.493L209.955 208.481L210.159 216.791Z"
        fill="#F8CFCF" />
    <path fill-rule="evenodd" clip-rule="evenodd"
        d="M235.952 212.489H217.669C217.477 215.728 216.379 218.418 213.593 220.402C213.672 225.146 215.291 228.601 218.099 231.023C220.543 224.155 235.496 226.034 234.408 230.515C232.124 239.929 210.708 240.142 212.007 218.476C211.153 217.334 208.098 217.121 207.092 218.263C205.374 213.529 206.107 206.833 211.075 205.864C207.175 195.777 260.197 193.643 235.952 212.489Z"
        fill="#424242" />
    <path d="M224.237 230.099C224.237 230.099 226.619 231.815 229.755 229.939" stroke="#CC6969"
        stroke-linecap="round" />
    <path d="M210.977 221.089C211.031 219.881 210.655 218.922 209.399 218.729" stroke="#DE6767"
        stroke-linecap="round" />
    <path fill-rule="evenodd" clip-rule="evenodd"
        d="M208.09 241L223.193 250.796L230.002 242.887C230.002 242.887 244.349 247.327 247.011 252.518C250.851 260.008 245.791 320.022 247.997 323.643C252.697 331.36 246.448 336.658 225.758 338.604C205.068 340.55 186.712 338.957 190.043 328.658C193.375 318.359 180.52 251.147 191.853 247.445C195.394 246.288 208.09 241 208.09 241Z"
        fill="#0a83cf" />
    <path fill-rule="evenodd" clip-rule="evenodd"
        d="M197.898 259.529C198.812 261.144 198.341 266.737 196.483 276.309C194.901 284.464 196.71 292.899 201.488 299.705L201.756 300.081C203.372 302.311 204.861 305.247 206.225 308.889C209.568 317.82 201.856 325.266 207.766 339.239L207.051 339.205C195.456 338.606 187.791 335.623 190.043 328.658C192.775 320.214 184.625 273.51 187.848 254.921C193.427 256.015 196.777 257.551 197.898 259.529Z"
        fill="black" fill-opacity="0.159856" />
    <path fill-rule="evenodd" clip-rule="evenodd"
        d="M208.09 241L221.599 249.795C219.618 252.093 218.557 254.766 218.156 257.709C212.964 253.656 207.567 247.992 205.895 241.902L208.09 241Z"
        fill="#9B384B" />
    <path fill-rule="evenodd" clip-rule="evenodd"
        d="M224.26 249.566C226.545 251.108 228.367 253.839 229.85 256.944C231.629 253.376 232.31 248.664 232.31 243.639L230.079 242.759L224.26 249.566Z"
        fill="#9B384B" />
    <path fill-rule="evenodd" clip-rule="evenodd"
        d="M221.599 249.794L221.776 249.893C222.585 250.344 223.595 250.211 224.26 249.566C229.353 268.206 232.935 288.724 234.019 309.576L228.703 318.389L222.486 310.141C223.296 288.469 223.29 267.339 221.599 249.794Z"
        fill="#D7939F" />
    <path
        d="M237.89 294.81L250.196 296.609C251.504 296.8 252.428 297.99 252.29 299.305L250.082 320.318C249.939 321.672 248.727 322.654 247.374 322.511C247.341 322.508 247.308 322.504 247.275 322.499L234.969 320.7C233.661 320.509 232.737 319.319 232.875 318.004L235.083 296.991C235.226 295.637 236.438 294.655 237.791 294.798C237.824 294.801 237.857 294.805 237.89 294.81Z"
        fill="#6182EC" />
    <path fill-rule="evenodd" clip-rule="evenodd"
        d="M239.474 294.407L252.341 296.931L261.146 296.783C262.506 296.76 263.628 297.845 263.651 299.206C263.652 299.305 263.648 299.405 263.637 299.504L261.432 320.486C261.302 321.724 260.268 322.671 259.023 322.692L249.617 322.849L236.318 320.241C235.066 319.996 234.209 318.835 234.342 317.566L236.549 296.567C236.691 295.214 237.904 294.232 239.257 294.374C239.33 294.382 239.402 294.393 239.474 294.407Z"
        fill="#96EFFA" />
    <path
        d="M240.753 300.081L246.659 301.161C247.481 301.312 248.049 302.071 247.962 302.902L247.71 305.297C247.618 306.175 246.83 306.813 245.952 306.721C245.911 306.716 245.871 306.711 245.831 306.703L239.925 305.623C239.103 305.472 238.535 304.713 238.622 303.881L238.874 301.487C238.966 300.608 239.754 299.971 240.632 300.063C240.673 300.067 240.713 300.073 240.753 300.081Z"
        fill="#74CFDB" />
    <path
        d="M252.237 296.92L252.754 296.974C253.193 297.02 253.512 297.414 253.466 297.853L250.918 322.097C250.872 322.536 250.478 322.855 250.039 322.809L249.522 322.755C249.082 322.708 248.763 322.315 248.81 321.875L251.358 297.632C251.404 297.192 251.798 296.873 252.237 296.92Z"
        fill="#EAEFFF" />
    <path
        d="M252.94 296.993L253.457 297.048C253.896 297.094 254.215 297.487 254.169 297.927L251.621 322.171C251.574 322.61 251.181 322.929 250.741 322.883L250.224 322.828C249.785 322.782 249.466 322.389 249.512 321.949L252.061 297.705C252.107 297.266 252.5 296.947 252.94 296.993Z"
        fill="#7AD2DD" />
    <path fill-rule="evenodd" clip-rule="evenodd"
        d="M221.891 306.414C221.891 306.414 226.478 305.498 228.355 304.034C230.231 302.57 235.916 301.535 235.916 301.535L234.098 305.34C234.098 305.34 248.03 304.041 248.36 305.406C248.69 306.772 244.66 308.256 244.66 308.256C244.66 308.256 242.673 311.944 240.749 314.082C238.929 316.105 229.886 315.865 226.715 314.602C223.976 313.512 220.998 314.057 220.998 314.057L221.891 306.414Z"
        fill="#F8CFCF" />
    <path fill-rule="evenodd" clip-rule="evenodd"
        d="M185.003 253.239C189.985 242.542 207.043 249.749 202.744 261.209C198.58 272.31 188.49 298.23 188.49 298.23C188.49 298.23 220.463 302.263 222.955 304.144C226.28 306.653 224.225 313.813 221.399 315.088C219.008 316.166 201.246 316.796 183.867 315.435C175.27 314.762 168.912 311.092 168.025 301.559C167.403 294.883 180.203 263.544 185.003 253.239Z"
        fill="#0a83cf" />
    <path fill-rule="evenodd" clip-rule="evenodd"
        d="M188.502 298.224C186.731 301.57 186.098 303.277 186.605 303.345C187.111 303.413 188.651 301.829 191.225 298.591L188.502 298.224Z"
        fill="black" fill-opacity="0.159856" />
    <path d="M220.704 303.599C221.69 306.727 220.998 310.396 219.63 312.988" stroke="#9B384B"
        stroke-linecap="round" />
    <path fill-rule="evenodd" clip-rule="evenodd"
        d="M85.3646 443.346C93.5936 439.651 103.26 443.326 106.955 451.555C106.969 451.587 106.984 451.619 106.997 451.65L109.86 458.135C101.631 461.83 91.9647 458.155 88.2695 449.926C88.2553 449.894 88.2412 449.863 88.2272 449.831L85.3646 443.346Z"
        fill="#02D3AF" />
    <path fill-rule="evenodd" clip-rule="evenodd"
        d="M97.1757 447.302C105.425 453.172 110.774 459.714 113.239 466.926C115.717 474.173 116.732 486.321 116.271 503.347C116.263 503.611 116.47 503.83 116.731 503.838C116.992 503.845 117.21 503.637 117.217 503.373C117.681 486.241 116.658 473.997 114.135 466.614C111.599 459.197 106.123 452.5 97.7216 446.521C97.5079 446.369 97.2125 446.421 97.0617 446.636C96.911 446.852 96.962 447.15 97.1757 447.302Z"
        fill="#02B596" />
    <path fill-rule="evenodd" clip-rule="evenodd"
        d="M155.49 439.32C147.393 435.511 137.741 438.988 133.933 447.086C133.918 447.118 133.903 447.15 133.888 447.182L130.674 454.133C138.772 457.942 148.423 454.465 152.231 446.367C152.246 446.335 152.261 446.303 152.276 446.271L155.49 439.32Z"
        fill="#02D3AF" />
    <path fill-rule="evenodd" clip-rule="evenodd"
        d="M90.4987 423.385C98.3426 421.718 106.053 426.725 107.72 434.569L109.07 440.919C101.226 442.586 93.5157 437.579 91.8484 429.735L90.4987 423.385Z"
        fill="#02D3AF" />
    <path fill-rule="evenodd" clip-rule="evenodd"
        d="M96.2671 428.452C102.312 432.672 106.402 437.223 108.547 442.099L108.679 442.406L108.812 442.729C111.01 448.185 114.648 462.475 119.708 485.545C119.764 485.803 120.017 485.966 120.272 485.91C120.528 485.854 120.689 485.6 120.633 485.342L120.006 482.496L119.273 479.202C114.703 458.761 111.421 446.281 109.413 441.715C107.19 436.662 102.984 431.981 96.8047 427.667C96.5893 427.517 96.2944 427.571 96.1459 427.787C95.9975 428.004 96.0517 428.301 96.2671 428.452Z"
        fill="#02B596" />
    <path fill-rule="evenodd" clip-rule="evenodd"
        d="M143.625 418.561C134.982 418.408 127.851 425.292 127.699 433.935L127.699 433.94L127.566 441.653C136.209 441.805 143.339 434.922 143.492 426.278L143.492 426.274L143.625 418.561Z"
        fill="#02D3AF" />
    <path fill-rule="evenodd" clip-rule="evenodd"
        d="M137.952 421.662C132.391 429.822 128.327 437.699 125.764 445.293C123.204 452.874 120.651 464.581 118.101 480.424C118.059 480.684 118.234 480.93 118.492 480.972C118.751 481.014 118.994 480.837 119.036 480.577L119.349 478.651L119.564 477.353C121.931 463.186 124.297 452.6 126.66 445.601C129.194 438.095 133.218 430.295 138.732 422.203C138.88 421.985 138.826 421.688 138.61 421.539C138.395 421.389 138.1 421.444 137.952 421.662Z"
        fill="#02B596" />
    <path fill-rule="evenodd" clip-rule="evenodd"
        d="M125.906 416.317C122.9 424.882 120.732 435.473 119.403 448.089C118.074 460.706 117.797 473.322 118.573 485.939L120.773 486.139C119.985 471.414 120.065 458.758 121.011 448.173C121.957 437.588 123.956 427.002 127.006 416.417L125.906 416.317Z"
        fill="#02B596" />
    <path fill-rule="evenodd" clip-rule="evenodd"
        d="M125.523 420.762C129.413 421.74 133.354 419.352 134.324 415.428C135.294 411.504 132.43 399.531 130.868 399.138C129.306 398.745 121.205 407.961 120.235 411.885C119.265 415.809 121.632 419.783 125.523 420.762Z"
        fill="#C2FFF4" />
    <path fill-rule="evenodd" clip-rule="evenodd"
        d="M126.602 417.672C129.309 418.353 132.064 416.633 132.757 413.83C133.45 411.027 130.876 403.774 129.789 403.501C128.702 403.227 123.649 408.562 122.956 411.365C122.263 414.168 123.896 416.992 126.602 417.672Z"
        fill="#02D3AF" />
    <path fill-rule="evenodd" clip-rule="evenodd"
        d="M127.727 417.005L131.785 404.341C132.026 403.588 131.616 402.781 130.87 402.538C130.123 402.294 129.323 402.707 129.081 403.46L125.024 416.124C124.782 416.877 125.192 417.685 125.938 417.928C126.685 418.171 127.486 417.758 127.727 417.005Z"
        fill="url(#paint7_linear_399_706)" />
    <path fill-rule="evenodd" clip-rule="evenodd"
        d="M103.952 403.586C107.838 411.79 111.1 422.096 113.741 434.505C116.381 446.913 117.975 459.432 118.523 472.06L116.355 472.489C115.6 457.762 114.198 445.184 112.15 434.756C110.103 424.328 107.009 414.009 102.868 403.801L103.952 403.586Z"
        fill="#02B596" />
    <path fill-rule="evenodd" clip-rule="evenodd"
        d="M104.798 407.967C101.031 409.346 96.8629 407.383 95.4881 403.582C94.1132 399.781 95.709 387.575 97.2217 387.02C98.7344 386.466 107.755 394.785 109.129 398.586C110.504 402.387 108.565 406.587 104.798 407.967Z"
        fill="#C2FFF4" />
    <path fill-rule="evenodd" clip-rule="evenodd"
        d="M103.402 405.008C100.781 405.968 97.861 404.545 96.8789 401.83C95.8969 399.115 97.6988 391.632 98.7511 391.247C99.8034 390.861 105.386 395.639 106.368 398.354C107.35 401.069 106.022 404.048 103.402 405.008Z"
        fill="#02D3AF" />
    <path fill-rule="evenodd" clip-rule="evenodd"
        d="M102.214 404.462L96.8544 392.291C96.5357 391.568 96.8587 390.722 97.5756 390.402C98.2926 390.082 99.1321 390.409 99.4507 391.132L104.81 403.303C105.129 404.026 104.806 404.872 104.089 405.192C103.372 405.512 102.532 405.185 102.214 404.462Z"
        fill="url(#paint8_linear_399_706)" />
    <path fill-rule="evenodd" clip-rule="evenodd"
        d="M151.021 441.348C139.793 445.742 131.965 450.819 127.538 456.599C123.112 462.378 120.187 471.342 118.744 483.49C118.713 483.752 118.899 483.99 119.158 484.021C119.418 484.053 119.654 483.866 119.685 483.604C121.109 471.611 123.983 462.804 128.287 457.183C132.592 451.563 140.282 446.575 151.363 442.239C151.607 442.143 151.728 441.867 151.633 441.621C151.539 441.375 151.264 441.253 151.021 441.348Z"
        fill="#02B596" />
    <path fill-rule="evenodd" clip-rule="evenodd"
        d="M120.931 476.595C117.377 463.93 108.582 459.451 94.5477 463.157C105.055 466.591 112.989 471.07 118.347 476.595H120.931Z"
        fill="#02B596" />
    <path fill-rule="evenodd" clip-rule="evenodd"
        d="M120.876 473.677C124.43 461.012 132.13 455.605 143.976 457.457C136.781 463.371 129.942 468.778 123.459 473.677H120.876Z"
        fill="#02B596" />
    <path fill-rule="evenodd" clip-rule="evenodd"
        d="M120.837 477.452C117.66 466.217 119.777 455.763 127.188 446.092C126.812 459.398 125.337 469.442 122.761 476.222L120.837 477.452Z"
        fill="#02B596" />
    <path fill-rule="evenodd" clip-rule="evenodd"
        d="M116.174 473.677C114.067 467.587 111.971 459.082 110.401 450.837C118.163 453.959 120.657 466.397 118.163 473.677H116.174Z"
        fill="#02D3AF" />
    <path
        d="M103.032 467.571H133.684C134.797 467.571 135.7 468.473 135.7 469.587C135.7 469.645 135.697 469.704 135.692 469.762L129.785 537.355C129.694 538.396 128.822 539.196 127.777 539.196H108.938C107.893 539.196 107.021 538.396 106.93 537.355L101.023 469.762C100.926 468.653 101.747 467.675 102.856 467.578C102.914 467.573 102.973 467.571 103.032 467.571Z"
        fill="#9B384B" />
    <mask id="mask6_399_706" style="mask-type:luminance" maskUnits="userSpaceOnUse" x="101" y="467"
        width="35" height="73">
        <path
            d="M103.032 467.571H133.684C134.797 467.571 135.7 468.473 135.7 469.587C135.7 469.645 135.697 469.704 135.692 469.762L129.785 537.355C129.694 538.396 128.822 539.196 127.777 539.196H108.938C107.893 539.196 107.021 538.396 106.93 537.355L101.023 469.762C100.926 468.653 101.747 467.675 102.856 467.578C102.914 467.573 102.973 467.571 103.032 467.571Z"
            fill="#8175FF" />
    </mask>
    <g mask="url(#mask6_399_706)">
        <path fill-rule="evenodd" clip-rule="evenodd"
            d="M96.4105 463.099H109.355C101.333 493.552 125.481 514.488 109.355 544.941H96.4105V463.099Z"
            fill="#0a83cf" />
    </g>
    <path fill-rule="evenodd" clip-rule="evenodd"
        d="M678.747 449.882L667.304 540.29L673.304 540.21L684.747 450.728L678.747 449.882Z"
        fill="#91D6FF" />
    <path fill-rule="evenodd" clip-rule="evenodd"
        d="M645.448 449.882L634.005 540.29L640.005 540.21L651.448 450.728L645.448 449.882Z"
        fill="#91D6FF" />
    <path fill-rule="evenodd" clip-rule="evenodd"
        d="M718.495 449.882L729.938 540.29L723.939 540.21L712.496 450.728L718.495 449.882Z"
        fill="#BFE7FF" />
    <path fill-rule="evenodd" clip-rule="evenodd"
        d="M631.627 454.648C631.627 449.431 635.856 445.203 641.072 445.203H678.835C684.556 445.203 689.338 440.849 689.874 435.153L695.912 370.96C696.447 365.263 701.229 360.91 706.951 360.91H730.651C736.775 360.91 741.739 365.874 741.739 371.998C741.739 372.282 741.728 372.565 741.706 372.848L735.482 453.854C735.038 459.632 730.221 464.093 724.427 464.093H641.072C635.856 464.093 631.627 459.864 631.627 454.648Z"
        fill="#91D6FF" />
    <path fill-rule="evenodd" clip-rule="evenodd"
        d="M730.397 360.91C730.972 360.91 731.537 360.954 732.088 361.038C732.177 361.6 732.222 362.176 732.222 362.762C732.222 363.046 732.212 363.331 732.19 363.614L725.97 444.332C725.525 450.108 720.708 454.568 714.915 454.568H631.785L631.629 454.567C631.628 454.506 631.627 454.445 631.627 454.384C631.627 449.181 635.845 444.963 641.048 444.963H678.698C684.418 444.963 689.199 440.611 689.737 434.916L695.77 370.957C696.307 365.262 701.088 360.91 706.809 360.91H730.397Z"
        fill="#BFE7FF" />
    <path fill-rule="evenodd" clip-rule="evenodd"
        d="M643.11 511.415C643.11 511.415 648.356 522.01 644.056 525.349C639.749 528.688 628.373 534.946 628.373 534.946L658.512 533.052L651.813 509.944L643.11 511.415Z"
        fill="url(#paint9_linear_399_706)" />
    <path fill-rule="evenodd" clip-rule="evenodd"
        d="M655.527 521.002C654.578 521.455 656.137 525.712 652.8 525.413C649.464 525.115 647.37 520.714 644.909 521C642.448 521.285 640.886 525.716 636.202 528.803C631.518 531.89 624.573 535.572 625.039 538.675C625.504 541.779 636.433 542.61 641.97 541.582C647.506 540.556 650.091 538.33 653.683 538.507C657.275 538.685 659.532 538.245 660.659 535.939C661.784 533.632 656.621 520.48 655.527 521.002Z"
        fill="#EEDFE8" />
    <path fill-rule="evenodd" clip-rule="evenodd"
        d="M655.26 535.167L654.953 535.149C650.501 534.774 647.447 537.573 643.21 538.363C638.972 539.153 627.796 539.426 626.012 536.775C625.927 536.65 625.848 536.521 625.776 536.39C625.176 537.128 624.894 537.916 625.039 538.835C625.504 541.789 636.434 542.58 641.971 541.602C647.508 540.625 650.093 538.507 653.685 538.676L654.324 538.7C657.547 538.787 659.603 538.293 660.661 536.231C660.919 535.729 660.861 534.648 660.602 533.283C659.1 534.311 657.204 535.226 655.26 535.167Z"
        fill="#EC7AA5" />
    <path fill-rule="evenodd" clip-rule="evenodd"
        d="M688.513 418.031C679.388 418.439 628.603 429.671 619.376 431.58C610.149 433.488 602.349 443.814 609.384 455.771C617.287 469.194 637.677 507.313 642.627 515.906C645.077 520.16 657.439 517.775 654.535 510.636C649.122 497.328 646.608 463.898 632.808 451.709C632.808 451.709 679.218 459.786 699.265 450.534C713.835 443.808 710.539 417.046 688.513 418.031Z"
        fill="#413C75" />
    <path fill-rule="evenodd" clip-rule="evenodd"
        d="M624.861 361.074C624.861 361.074 624.964 355.65 622.367 351.77C619.77 347.89 619.667 343.768 617.701 343.903C615.736 344.038 617.682 353.618 617.682 353.618C617.682 353.618 615.188 352.665 613.396 351.46C611.605 350.255 606.172 344.314 604.903 345.366C602.75 347.16 606.217 357.279 608.105 359.302C610 361.326 619.35 366.98 619.35 366.98L646.884 394.719L651.001 379.993L624.861 361.074Z"
        fill="url(#paint10_linear_399_706)" />
    <path fill-rule="evenodd" clip-rule="evenodd"
        d="M679.935 358.625C675.69 368.47 667.918 386.555 664.714 391.951C660.699 398.708 654.367 401.685 646.954 396.672C645.92 395.972 643.918 394.4 640.949 391.954C641.608 385.532 644.007 380.164 648.143 375.848C650.015 377.397 650.952 378.172 650.952 378.172C650.952 378.172 658.917 357.752 665.325 345.923C670.875 335.689 686.395 343.659 679.935 358.625Z"
        fill="#EA5455" />
    <path fill-rule="evenodd" clip-rule="evenodd"
        d="M650.869 378.183C649.443 383.021 648.563 385.299 648.23 385.019C647.896 384.739 648.024 381.828 648.612 376.286L650.869 378.183Z"
        fill="black" fill-opacity="0.159856" />
    <path fill-rule="evenodd" clip-rule="evenodd"
        d="M698.279 320.411V329.122L704.676 323.972C704.676 323.972 706.643 315.626 708.242 309.427C709.245 305.539 711.688 292.383 701.852 293C693.794 278.796 670.328 287.587 670.142 304.94C669.917 325.811 670.1 333.937 670.1 333.937C683.37 334.698 690.839 332.78 698.279 320.411Z"
        fill="#422851" />
    <path fill-rule="evenodd" clip-rule="evenodd"
        d="M704.815 336.997C704.815 336.997 698.864 335.6 698.657 325.849C698.451 316.099 698.596 312.77 698.596 312.77L685.488 312.534C685.488 312.534 685.345 323.401 685.343 327.331C685.337 336.889 678.309 337.672 678.309 337.672C678.309 337.672 679.511 345.557 691.388 346.225C700.662 346.748 704.815 336.997 704.815 336.997Z"
        fill="url(#paint11_linear_399_706)" />
    <path fill-rule="evenodd" clip-rule="evenodd"
        d="M701.651 307.901C707.499 307.675 706.545 316.235 700.471 316.223C700.471 316.223 696.943 328.384 684.693 328.384C674.746 328.384 674.098 314.211 674.008 311.383C673.911 308.369 673.899 298.465 673.899 298.465L701.879 298.452L701.651 307.901Z"
        fill="url(#paint12_linear_399_706)" />
    <path fill-rule="evenodd" clip-rule="evenodd"
        d="M702.104 307.845C699.681 308.245 699.975 309.849 699.316 309.709C695.97 308.997 682.426 309.936 680.682 302.488C678.512 307.141 677.981 308.285 673.203 309.534V295.899L703.425 293C703.425 293 702.956 307.704 702.104 307.845Z"
        fill="#422851" />
    <path d="M687.055 320.214C687.055 320.214 684.137 322.685 680.758 320.372" stroke="#F77B7B"
        stroke-width="1.5" stroke-linecap="round" />
    <path d="M685.129 323.075C684.221 323.494 683.348 323.525 682.567 323.107" stroke="#F49494"
        stroke-linecap="round" />
    <path d="M701.055 312.505C700.995 311.131 701.414 310.041 702.815 309.822" stroke="#F77B7B"
        stroke-linecap="round" />
    <path fill-rule="evenodd" clip-rule="evenodd"
        d="M703.485 336C696.017 340.574 687.384 342.251 679.347 337.284C666.231 363.145 662.962 394.002 666.117 428.106C685.242 435.678 701.317 434.189 715.001 425.534L703.485 336Z"
        fill="#FFE4F4" />
    <path fill-rule="evenodd" clip-rule="evenodd"
        d="M610.417 511.84C610.417 511.84 610.575 524.311 600.299 528.973C590.03 533.635 582.713 533.355 583.644 536.959C584.576 540.563 611.306 540.418 613.802 537.599C615.929 535.201 620.556 512.872 621.83 514.579L610.417 511.84Z"
        fill="url(#paint13_linear_399_706)" />
    <path fill-rule="evenodd" clip-rule="evenodd"
        d="M617.88 529.452C616.306 528.318 614.981 534.853 610.704 533.036C606.426 531.219 609.8 525.213 607.108 524.105C604.416 522.997 599.217 528.953 592.314 530.401C585.41 531.847 579.804 533.114 578.211 535.801C576.839 538.111 578.211 538.849 578.211 538.849C578.211 538.849 584.857 542.168 588.987 542.899C594.987 543.96 612.327 544.667 614.226 542.732C615.393 541.545 618.668 530.019 617.88 529.452Z"
        fill="#EEDFE8" />
    <path fill-rule="evenodd" clip-rule="evenodd"
        d="M577.836 536.073C576.535 538.195 578.589 539.299 578.835 539.422L579.825 539.844C581.706 540.625 585.947 542.302 589.082 542.901C594.83 544 612.63 544.651 614.545 542.761C614.881 542.43 615.296 541.217 615.699 539.641L614.477 539.774C608.599 540.396 595.479 541.523 589.003 539.998C583.256 538.644 580.109 536.416 578.675 535.116C578.326 535.415 578.044 535.733 577.836 536.073Z"
        fill="#EC7AA5" />
    <path fill-rule="evenodd" clip-rule="evenodd"
        d="M717.103 414.176C725.947 432.853 724.155 445.398 711.726 451.812C693.698 461.115 639.726 450.112 639.726 450.112C639.726 450.112 640.69 457.876 639.726 464.802C637.207 482.889 625.227 513.023 622.693 516.809C619.188 522.045 608.511 518.096 608.31 513.737C608.108 509.377 616.358 453.693 617.613 443.074C618.861 432.455 622.801 430.913 634.31 428.01C636.954 427.343 668.221 419.573 671.085 419.799C687.493 421.097 702.832 419.222 717.103 414.176Z"
        fill="#524D87" />
    <path fill-rule="evenodd" clip-rule="evenodd"
        d="M702.561 448.92C684.712 450.92 637.457 446.798 635.56 448.671C633.748 450.46 634.05 481.575 629.985 499.585L630.603 497.884C634.426 487.267 638.395 474.354 639.726 464.802C640.69 457.876 639.726 450.112 639.726 450.112L641.902 450.533C652.161 452.46 695.861 459.999 711.726 451.812C720.323 447.376 723.831 440.006 722.25 429.703C719.528 441.349 712.966 447.755 702.561 448.92Z"
        fill="white" fill-opacity="0.056108" />
    <path fill-rule="evenodd" clip-rule="evenodd"
        d="M703.159 336.021C690.79 376.537 683.373 433.979 722.001 423.986C701.481 386.205 729.377 369.201 723.054 349.676C720.892 343 703.32 335.497 703.159 336.021Z"
        fill="#EA5455" />
    <path fill-rule="evenodd" clip-rule="evenodd"
        d="M717.109 352.845C703.13 354.955 714.653 379.362 710.039 383.039C705.425 386.716 697.393 387.113 696.527 389.359C694.786 393.874 703.2 405.271 721.769 423.55L722.001 423.986C704.127 391.075 722.989 373.93 723.97 357.151C721.899 353.902 719.612 352.467 717.109 352.845Z"
        fill="black" fill-opacity="0.159856" />
    <path fill-rule="evenodd" clip-rule="evenodd"
        d="M680.001 337C675.281 348.838 673.013 358.127 670.896 375.503C669.719 385.151 669.425 399.93 670.014 419.84L664.181 420.987C661.401 390.227 660.476 372.867 661.405 368.907C663.745 358.938 665.33 353.113 668.419 344C670.121 338.998 680.001 337 680.001 337Z"
        fill="#EA5455" />
    <path fill-rule="evenodd" clip-rule="evenodd"
        d="M700.561 382.017C700.561 382.017 692.946 374.392 690.308 373.507C687.671 372.622 673.224 371.559 673.322 373.559C673.432 375.701 682.729 375.578 683.588 376.632C684.448 377.685 685.643 385.888 688.893 386.697C692.136 387.506 698.859 389.9 698.859 389.9L728.783 405.361L725.595 389.901L700.561 382.017Z"
        fill="url(#paint14_linear_399_706)" />
    <path fill-rule="evenodd" clip-rule="evenodd"
        d="M723.482 349.731C732.559 362.542 740.309 382.056 743.284 389.664C746.258 397.272 743.258 408.747 730.177 406.494C729.139 406.315 727.775 405.897 726.086 405.24C721.277 398.647 720.433 392.987 722.228 387.947C723.356 388.423 723.92 388.661 723.92 388.661C723.92 388.661 710.919 365.617 707.744 359.439C702.441 349.122 715.487 338.444 723.482 349.731Z"
        fill="#EA5455" />
    <path fill-rule="evenodd" clip-rule="evenodd"
        d="M723.92 388.661C728.322 390.811 730.246 391.414 729.693 390.468C729.139 389.522 726.376 387.426 721.404 384.182L723.92 388.661Z"
        fill="black" fill-opacity="0.159856" />
    <path fill-rule="evenodd" clip-rule="evenodd"
        d="M587.763 343.058L611.233 337.206C612.553 336.877 613.891 337.68 614.22 339.001L622.742 373.181C623.071 374.501 622.268 375.839 620.947 376.168L597.478 382.019C596.157 382.349 594.82 381.545 594.491 380.225L585.969 346.045C585.64 344.724 586.443 343.387 587.763 343.058Z"
        fill="url(#paint15_linear_399_706)" />
    <path fill-rule="evenodd" clip-rule="evenodd"
        d="M588.679 343.608L612.148 337.757C613.469 337.428 614.806 338.231 615.135 339.552L623.657 373.732C623.987 375.052 623.183 376.389 621.863 376.719L598.393 382.57C597.073 382.899 595.736 382.096 595.406 380.775L586.884 346.595C586.555 345.275 587.359 343.938 588.679 343.608Z"
        fill="#518DF8" />
    <path
        d="M589.5 344.208L611.572 338.704C612.761 338.408 613.964 339.131 614.261 340.32L621.966 371.223C622.262 372.411 621.539 373.614 620.35 373.911L598.278 379.414C597.09 379.71 595.886 378.987 595.59 377.799L587.885 346.896C587.589 345.708 588.312 344.504 589.5 344.208Z"
        fill="white" />
    <path fill-rule="evenodd" clip-rule="evenodd"
        d="M383.206 395.872H394.622V540.751H383.206V395.872Z" fill="#E9E9E9" />
    <path fill-rule="evenodd" clip-rule="evenodd"
        d="M271.376 400.634H361.565V427.542H286.404V540.751H271.376V400.634Z" fill="#D3D3D3" />
    <path fill-rule="evenodd" clip-rule="evenodd"
        d="M270.793 400.634H278.793V540.751H270.793V400.634Z" fill="#DBDBDB" />
    <path fill-rule="evenodd" clip-rule="evenodd"
        d="M663.431 400.634H679.431V540.751H663.431V400.634Z" fill="#E9E9E9" />
    <path fill-rule="evenodd" clip-rule="evenodd"
        d="M663.431 395.872H673.431V540.751H663.431V395.872Z" fill="#DBDBDB" />
    <path fill-rule="evenodd" clip-rule="evenodd"
        d="M531.008 400.634H670.008V427.19H549.715V540.751H531.008V400.634Z" fill="#D3D3D3" />
    <path fill-rule="evenodd" clip-rule="evenodd"
        d="M282.591 395.872L531.481 395.872V436.102H282.591V395.872Z" fill="#DBDBDB" />
    <path fill-rule="evenodd" clip-rule="evenodd"
        d="M525.772 400.634H537.189V436.101H525.772V400.634Z" fill="#E9E9E9" />
    <path fill-rule="evenodd" clip-rule="evenodd"
        d="M531.043 400.634H540.043V540.751H531.043V400.634Z" fill="#DBDBDB" />
    <path fill-rule="evenodd" clip-rule="evenodd"
        d="M539.621 395.872H684.747C688.692 395.872 691.89 399.07 691.89 403.015C691.89 406.96 688.692 410.158 684.747 410.158H539.621C535.676 410.158 532.477 406.96 532.477 403.015C532.477 399.07 535.676 395.872 539.621 395.872Z"
        fill="#E9E9E9" />
    <path fill-rule="evenodd" clip-rule="evenodd"
        d="M279.737 398.729H528.626V413.016H279.737V398.729Z" fill="#E9E9E9" />
    <path fill-rule="evenodd" clip-rule="evenodd"
        d="M265.95 395.872H542.414C546.359 395.872 549.557 399.07 549.557 403.015C549.557 406.96 546.359 410.158 542.414 410.158H265.95C262.004 410.158 258.806 406.96 258.806 403.015C258.806 399.07 262.004 395.872 265.95 395.872Z"
        fill="#DBDBDB" />
    <path fill-rule="evenodd" clip-rule="evenodd"
        d="M303.389 505.181L295.492 530.824L312.059 531.425C312.059 531.425 310.188 522.653 312.859 514.43C315.001 507.829 316.75 504.535 316.75 504.535L303.389 505.181Z"
        fill="#92691F" />
    <path fill-rule="evenodd" clip-rule="evenodd"
        d="M311.625 524.378C315.84 528.285 319.975 530.962 324.029 532.41C330.109 534.581 332.437 534.605 332.871 535.421L332.95 535.577C334.2 538.159 333.442 541.589 319.581 541.779C316.212 541.825 312.709 539.868 303.41 537.798L302.739 541.417C297.535 541.349 294.499 540.528 293.63 538.956C292.32 536.605 294.546 525.011 296.082 524.791C297.617 524.572 297.92 529.287 302.043 529.39C306.173 529.494 311.625 524.378 311.625 524.378Z"
        fill="#391B0B" />
    <path fill-rule="evenodd" clip-rule="evenodd"
        d="M311.625 524.378C315.723 528.176 319.745 530.812 323.69 532.286C322.573 533.344 321.033 533.65 319.069 533.201C316.667 532.653 313.592 530.087 309.844 525.503L310.028 525.724C311.006 524.958 311.625 524.378 311.625 524.378Z"
        fill="#81411E" />
    <path fill-rule="evenodd" clip-rule="evenodd"
        d="M265.632 424.913C309.494 428.42 334.447 430.268 340.49 430.455C349.555 430.735 356.481 443.674 349.461 455.617C341.577 469.024 320.156 507.621 315.969 516.546C312.426 524.09 296.328 520.999 299.225 509.473C302.684 495.68 309.129 464.733 322.898 452.558C322.898 452.558 289.411 464.699 270.549 452.924C263.375 448.446 261.736 439.109 265.632 424.913Z"
        fill="#7A3636" />
    <path fill-rule="evenodd" clip-rule="evenodd"
        d="M349.461 455.617L348.436 457.376C344.445 464.272 338.003 475.923 331.851 487.27L332.175 486.231C336.932 471.092 344.323 453.258 347.483 447.817C348.591 445.91 350.099 443.966 352.008 441.985C352.817 446.14 352.202 450.954 349.461 455.617Z"
        fill="white" fill-opacity="0.192499" />
    <path fill-rule="evenodd" clip-rule="evenodd"
        d="M374.988 505.479C374.988 505.479 379.386 525.038 385.111 527.131C387.315 527.937 368.219 530.238 368.219 530.238L363.426 511.474L374.988 505.479Z"
        fill="#92691F" />
    <path fill-rule="evenodd" clip-rule="evenodd"
        d="M365.461 523.631L365.142 540.142L371.724 540.192L371.792 536.48C371.792 536.48 376.921 539.556 380.395 540.638C385.068 542.097 403.526 541.333 405.611 539.11C407.698 536.877 407.742 533.324 403.46 532.887C399.179 532.451 392.099 531.151 389.051 528.818C385.364 526.007 383.962 521.547 382.89 521.543C381.251 521.537 381.124 526.784 372.805 526.858C369.638 526.886 365.461 523.631 365.461 523.631Z"
        fill="#391B0B" />
    <path fill-rule="evenodd" clip-rule="evenodd"
        d="M381.187 523.015C381.187 523.015 385.432 529.639 387.956 530.598C390.48 531.548 392.514 530.482 392.514 530.482C392.514 530.482 388.162 528.748 386.481 525.722C382.674 518.867 381.912 522.355 381.187 523.015Z"
        fill="#81411E" />
    <path fill-rule="evenodd" clip-rule="evenodd"
        d="M271.076 430.227C271.014 444.241 275.692 453.009 285.108 456.532C299.231 461.815 345.221 459.827 345.221 459.827C345.221 459.827 359.816 513.525 363.313 518.755C366.81 523.985 383.392 524.527 382.495 512.481C381.591 500.435 375.12 455.713 373.868 445.107C372.623 434.5 368.692 431.96 357.209 430.06C353.173 429.392 354.886 428.322 328.942 427.107C323.37 426.846 314.021 428.932 305.43 429.877C299.702 430.507 288.251 430.624 271.076 430.227Z"
        fill="#7A3636" />
    <path fill-rule="evenodd" clip-rule="evenodd"
        d="M316.979 430.681V428.24L318.129 428.068C322.311 427.447 326.113 426.974 328.942 427.107L331.925 427.252C354.758 428.407 353.335 429.418 357.209 430.06L357.955 430.186C368.618 432.033 372.477 434.614 373.782 444.419L374.148 447.37C375.876 460.962 381.646 501.158 382.495 512.481C382.562 513.387 382.531 514.222 382.413 514.989L379.052 498.062C374.098 472.966 371.323 458.096 370.724 453.452L370.599 452.487C369.48 444.244 366.552 434.016 357.103 434.683L356.287 434.751C349.635 435.258 337.018 433.982 318.438 430.923L316.979 430.681Z"
        fill="white" fill-opacity="0.192499" />
    <path
        d="M382.834 453.356C384.865 453.825 387.179 451.32 388 447.761C388.822 444.202 387.841 440.937 385.809 440.467C383.777 439.998 381.464 442.503 380.643 446.063C379.821 449.622 380.802 452.887 382.834 453.356Z"
        fill="white" fill-opacity="0.192499" />
    <path fill-rule="evenodd" clip-rule="evenodd"
        d="M281.264 402.315C281.264 402.315 296.655 405.878 296.499 407.277C296.346 408.683 289.57 408.899 289.57 408.899C289.57 408.899 302.096 416.987 301.099 418.566C300.102 420.144 291.935 421.921 288.546 420.648C285.155 419.376 276.368 410.113 276.368 410.113L281.264 402.315Z"
        fill="url(#paint16_linear_399_706)" />
    <path fill-rule="evenodd" clip-rule="evenodd"
        d="M281.404 356.716C276.248 363.079 258.671 382.513 258.671 382.513C258.671 382.513 276.248 395.033 280.674 397.681C287.933 402.022 280.552 413.537 275.229 412.258C268.015 410.52 249.808 397.959 241.252 392.876C232.697 387.792 235.97 379.585 242.3 372.095C247.162 366.343 257.733 354.557 265.17 344.211C272.57 333.917 291.407 344.37 281.404 356.716Z"
        fill="#EA5455" />
    <path fill-rule="evenodd" clip-rule="evenodd"
        d="M258.671 382.513C255.371 385.692 253.893 387.404 254.236 387.65C254.579 387.896 256.738 386.672 260.714 383.979L258.671 382.513Z"
        fill="black" fill-opacity="0.159856" />
    <path fill-rule="evenodd" clip-rule="evenodd"
        d="M312.096 310.007C316.419 310.481 316.112 318.089 310.85 318.486C309.774 325.821 305.939 329.315 301.262 329.72L301.521 340.813L280.836 340.801C280.836 340.801 286.661 332.964 286.371 322.235C286.08 311.506 286.566 301.427 286.566 301.427L313.358 301.908L312.096 310.007Z"
        fill="url(#paint17_linear_399_706)" />
    <path fill-rule="evenodd" clip-rule="evenodd"
        d="M303.634 289.313C319.57 293.336 312.996 310.328 312.996 310.328C308.181 309.671 303.547 315.514 301.789 321.244C296.708 326.467 290.128 326.458 285.751 323.416C281.737 311.001 280.387 302.726 281.7 298.592C283.67 292.391 289.108 285.647 303.634 289.313Z"
        fill="#2C272E" />
    <path fill-rule="evenodd" clip-rule="evenodd"
        d="M265.959 343.287C264.528 345.723 263.503 355.535 265.959 394.408C267.23 414.537 261.821 434.376 263.219 443.109C264.151 448.931 267.819 452.19 274.225 452.886L279.828 434.657L282.464 452.886C308.953 450.409 323.358 446.155 325.679 440.125C329.169 431.06 324.787 409.75 323.745 389.683C322.698 369.537 323.483 348.858 321.558 345.723C317.715 339.468 307.823 336.545 301.683 335.61C293.893 334.422 283.835 334.377 277.856 336.273C271.877 338.168 267.389 340.851 265.959 343.287Z"
        fill="#EA5455" />
    <path fill-rule="evenodd" clip-rule="evenodd"
        d="M306.388 357.13C309.524 380.265 313.717 396.498 318.967 405.829C321.138 409.688 323.343 411.279 325.583 410.602L325.051 405.475C324.52 400.287 324.018 394.942 323.745 389.683C323.554 386.016 323.424 382.33 323.328 378.737L306.388 357.13Z"
        fill="black" fill-opacity="0.159856" />
    <path fill-rule="evenodd" clip-rule="evenodd"
        d="M277.856 336.273C277.493 336.388 277.143 336.507 276.804 336.631C285.388 340.374 299.563 339.874 307.269 336.824C305.262 336.258 303.336 335.862 301.683 335.61C293.893 334.422 283.835 334.377 277.856 336.273Z"
        fill="#E5AA41" />
    <path fill-rule="evenodd" clip-rule="evenodd"
        d="M383.156 377.168C383.156 377.168 395.94 368.633 398.2 366.919C400.452 365.212 403.278 352.268 401.526 350.452C400.68 349.574 394.284 355.486 393.143 356.278C392.01 357.062 386.21 360.556 386.21 360.556C386.21 360.556 387.851 350.649 386.438 349.85C385.393 349.268 383.303 351.818 383.023 354.513C382.744 357.208 379.836 360.723 379.461 364.813C379.292 366.6 377.533 370.013 377.533 370.013L383.156 377.168Z"
        fill="url(#paint18_linear_399_706)" />
    <path fill-rule="evenodd" clip-rule="evenodd"
        d="M307.015 360.801C311.914 370.98 320.235 385.863 324.805 394.589C330.212 404.915 336.656 409.29 349.654 401.628C360.538 395.211 376.234 384.89 384.345 379.281C391.891 374.061 382.97 361.175 375.841 365.529C366.382 371.297 342.195 382.728 342.195 382.728C342.195 382.728 329.748 359.991 324.58 349.075C318.005 335.201 297.535 341.101 307.015 360.801Z"
        fill="#EA5455" />
    <path fill-rule="evenodd" clip-rule="evenodd"
        d="M342.195 382.728C343.712 388.072 344.65 390.639 345.008 390.428C345.366 390.216 345.24 387.267 344.631 381.579L342.195 382.728Z"
        fill="black" fill-opacity="0.159856" />
    <path fill-rule="evenodd" clip-rule="evenodd"
        d="M291.769 461.22L280.326 542.179L286.325 542.099L297.768 462.067L291.769 461.22Z"
        fill="#BFE7FF" />
    <path fill-rule="evenodd" clip-rule="evenodd"
        d="M329.931 461.22L341.374 542.179L335.375 542.099L323.932 462.067L329.931 461.22Z"
        fill="#91D6FF" />
    <path fill-rule="evenodd" clip-rule="evenodd"
        d="M256.884 461.22L245.441 542.179L251.441 542.099L262.884 462.067L256.884 461.22Z"
        fill="#BFE7FF" />
    <path fill-rule="evenodd" clip-rule="evenodd"
        d="M343.753 456.537C343.753 451.321 339.524 447.092 334.307 447.092H296.545C290.824 447.092 286.042 442.739 285.506 437.043L279.468 372.849C278.932 367.153 274.15 362.8 268.429 362.8H244.729C238.605 362.8 233.641 367.764 233.641 373.888C233.641 374.171 233.651 374.455 233.673 374.737L239.898 455.744C240.341 461.521 245.159 465.983 250.953 465.983H334.307C339.524 465.983 343.753 461.754 343.753 456.537Z"
        fill="#BFE7FF" />
    <path fill-rule="evenodd" clip-rule="evenodd"
        d="M274.25 364.363L280.557 446.222C281.002 451.998 285.818 456.458 291.612 456.458H343.595L343.751 456.456C343.752 456.395 343.753 456.334 343.753 456.273C343.753 451.071 339.535 446.853 334.332 446.853H296.682C290.962 446.853 286.18 442.501 285.643 436.806L279.61 372.847C279.267 369.21 277.193 366.121 274.25 364.363Z"
        fill="#91D6FF" />
    <path fill-rule="evenodd" clip-rule="evenodd"
        d="M557.236 393.796H473.1C472.687 393.796 472.353 394.131 472.353 394.543V395.64C472.353 396.052 472.687 396.386 473.1 396.386H557.236C557.648 396.386 557.983 396.052 557.983 395.64V394.543C557.983 394.131 557.648 393.796 557.236 393.796Z"
        fill="url(#paint19_linear_399_706)" />
    <path fill-rule="evenodd" clip-rule="evenodd"
        d="M557.244 393.796H524.917C524.505 393.796 524.171 394.131 524.171 394.543V395.64C524.171 396.052 524.505 396.386 524.917 396.386H557.244C557.656 396.386 557.99 396.052 557.99 395.64V394.543C557.99 394.131 557.656 393.796 557.244 393.796Z"
        fill="#518DF8" />
    <path fill-rule="evenodd" clip-rule="evenodd"
        d="M560.523 354.296H504.712C502.9 354.296 501.371 355.642 501.141 357.439L496.99 389.852C496.738 391.824 498.132 393.627 500.104 393.88C500.255 393.899 500.408 393.909 500.561 393.909H556.372C558.184 393.909 559.713 392.563 559.943 390.766L564.094 358.353C564.347 356.381 562.953 354.578 560.98 354.325C560.829 354.306 560.676 354.296 560.523 354.296Z"
        fill="#518DF8" />
    <path fill-rule="evenodd" clip-rule="evenodd"
        d="M558.824 354.296H504.193C502.381 354.296 500.852 355.642 500.622 357.439L496.471 389.852C496.218 391.824 497.612 393.627 499.584 393.88C499.736 393.899 499.889 393.909 500.042 393.909H554.673C556.485 393.909 558.014 392.563 558.244 390.766L562.395 358.353C562.648 356.381 561.254 354.578 559.281 354.325C559.13 354.306 558.977 354.296 558.824 354.296Z"
        fill="url(#paint20_linear_399_706)" />
    <path
        d="M557.232 356.17H505.474C503.843 356.17 502.467 357.382 502.26 358.999L498.52 388.236C498.293 390.011 499.548 391.634 501.323 391.861C501.459 391.878 501.596 391.887 501.734 391.887H553.492C555.123 391.887 556.499 390.675 556.706 389.058L560.446 359.821C560.673 358.046 559.418 356.423 557.644 356.196C557.507 356.179 557.37 356.17 557.232 356.17Z"
        fill="white" />
    <path fill-rule="evenodd" clip-rule="evenodd"
        d="M423.645 404.22C423.645 404.22 437.246 407.393 437.109 408.638C436.974 409.89 430.985 410.082 430.985 410.082C430.985 410.082 442.055 417.285 441.173 418.69C440.292 420.095 433.076 421.678 430.08 420.545C427.084 419.412 419.319 411.164 419.319 411.164L397.531 399.463L404.814 389.859L423.645 404.22Z"
        fill="url(#paint21_linear_399_706)" />
    <path fill-rule="evenodd" clip-rule="evenodd"
        d="M423.769 363.617C419.213 369.282 403.679 386.587 403.679 386.587C403.679 386.587 404.701 387.354 406.746 388.888L396.773 400.985C392.528 398.384 389.699 396.66 388.286 395.815C380.726 391.288 383.619 383.98 389.212 377.311C393.509 372.189 402.851 361.695 409.423 352.482C415.962 343.316 432.609 352.623 423.769 363.617Z"
        fill="#FFB66F" />
    <path fill-rule="evenodd" clip-rule="evenodd"
        d="M403.679 386.587C400.764 389.418 399.458 390.943 399.761 391.162C400.064 391.381 401.972 390.291 405.485 387.893L403.679 386.587Z"
        fill="black" fill-opacity="0.159856" />
    <path fill-rule="evenodd" clip-rule="evenodd"
        d="M406.128 387.623L393.13 400.491L399.629 404.744L408.557 389.459L406.128 387.623Z"
        fill="#FFEDC2" />
    <path fill-rule="evenodd" clip-rule="evenodd"
        d="M447.636 503.233L440.605 525.882L452.423 526.412C452.423 526.412 450.757 518.665 453.135 511.403C455.042 505.572 456.599 502.663 456.599 502.663L447.636 503.233Z"
        fill="url(#paint22_linear_399_706)" />
    <path fill-rule="evenodd" clip-rule="evenodd"
        d="M452.52 519.78C452.52 519.78 452.273 525.546 454.287 527.369C456.3 529.19 466.979 535.917 467.874 537.272C468.769 538.628 467.456 540.283 467.456 540.283C467.456 540.283 456.552 541.993 451.409 539.354C447.695 537.448 445.042 535.891 445.042 535.891L443.902 538.82L437.949 537.965C437.949 537.965 436.113 533.316 436.902 531.004C437.69 528.692 441.759 517.889 441.759 517.889C441.759 517.889 445.346 518.519 452.52 519.78Z"
        fill="#391B0B" />
    <path fill-rule="evenodd" clip-rule="evenodd"
        d="M413.249 426.031C422.138 426.898 465.922 437.326 474.937 439.178C483.952 441.03 491.574 451.051 484.7 462.654C479.552 471.338 469.703 489.172 455.151 516.158C455.016 516.191 454.884 516.249 454.748 516.249C450.308 516.249 446.35 515.641 442.539 512.985C446.399 484.688 452.824 466.597 461.813 458.712C461.813 458.712 426.996 471.231 409.583 457.571C399.311 449.513 403.453 425.075 413.249 426.031Z"
        fill="#33373E" />
    <path fill-rule="evenodd" clip-rule="evenodd"
        d="M484.7 462.654C483.304 465.009 481.51 468.146 479.478 471.756L481.811 442.442C487.056 446.685 489.676 454.255 484.7 462.654Z"
        fill="white" fill-opacity="0.192499" />
    <path fill-rule="evenodd" clip-rule="evenodd"
        d="M513.096 501.444C513.096 501.444 516.973 518.714 522.019 520.562C523.962 521.273 510.033 523.305 510.033 523.305L505.808 506.737L513.096 501.444Z"
        fill="url(#paint23_linear_399_706)" />
    <path fill-rule="evenodd" clip-rule="evenodd"
        d="M508.257 518.544L511.936 540.165L518.312 539.157L517.524 533.811C517.524 533.811 520.321 538.468 523.44 538.267C526.568 538.065 542.21 535.707 542.21 535.707C542.21 535.707 542.562 530.529 535.367 529.346C529.382 528.363 519.177 516.809 519.177 516.809L508.257 518.544Z"
        fill="#391B0B" />
    <path fill-rule="evenodd" clip-rule="evenodd"
        d="M420.706 423.171C412.152 441.29 413.885 453.461 425.907 459.682C443.347 468.708 489.75 457.063 489.75 457.063C489.75 457.063 488.817 464.596 489.75 471.314C492.187 488.861 504.169 510.449 505.259 514.007C505.808 515.799 519.172 513.151 519.172 511.026C519.172 508.901 512.353 460.537 511.14 450.236C509.932 439.934 506.121 438.438 494.988 435.622C492.431 434.975 459.285 427.437 456.514 427.656C440.643 428.915 428.707 427.42 420.706 423.171Z"
        fill="#42474F" />
    <path fill-rule="evenodd" clip-rule="evenodd"
        d="M456.514 427.657C459.285 427.437 492.431 434.975 494.988 435.622L496.816 436.091C506.311 438.575 509.831 440.429 511.053 449.547L511.382 452.165C512.384 459.805 515.093 477.769 517.235 492.725C514.817 487.229 512.817 481.129 511.232 474.427C507.541 458.808 508.331 445.983 507.339 443.737C506.348 441.491 457.86 434.32 449.528 432.841C445.902 432.197 443.856 430.599 443.391 428.048C447.418 428.162 451.792 428.031 456.514 427.657Z"
        fill="white" fill-opacity="0.192499" />
    <path fill-rule="evenodd" clip-rule="evenodd"
        d="M450.204 318.878C454.056 319.3 453.783 326.08 449.094 326.434C448.135 332.97 444.717 336.084 440.55 336.445L440.781 346.331L422.349 346.32C422.349 346.32 427.54 339.336 427.281 329.775C427.022 320.213 427.455 311.231 427.455 311.231L451.329 311.66L450.204 318.878Z"
        fill="url(#paint24_linear_399_706)" />
    <path fill-rule="evenodd" clip-rule="evenodd"
        d="M451.042 319.386C446.556 317.609 443.242 325.257 439.809 330.573C436.376 335.889 427.482 334.986 426.256 330.573C421.616 320.909 417.616 307.77 423.032 306.691C423.794 292.723 460.308 296.021 451.042 319.386Z"
        fill="#9E5229" />
    <path fill-rule="evenodd" clip-rule="evenodd"
        d="M425.713 301.405C424.15 302.735 423.151 304.501 423.032 306.691C417.616 307.769 421.616 320.908 426.256 330.573C427.396 334.676 435.165 335.744 439.01 331.601C442.517 321.086 441.02 309.328 433.931 301.406L425.713 301.405Z"
        fill="black" fill-opacity="0.199355" />
    <path
        d="M430.869 305.812C428.438 305.812 426.468 303.84 426.468 301.406C426.468 298.973 428.438 297 430.869 297C433.299 297 435.27 298.973 435.27 301.406C435.27 303.84 433.299 305.812 430.869 305.812Z"
        fill="#FB9934" />
    <path fill-rule="evenodd" clip-rule="evenodd"
        d="M454.71 348.001C458.791 353.987 465.592 374.303 465.977 378.873C466.412 384.145 460.752 392.544 460.659 400.176C460.576 407.809 464.881 426.915 463.587 429.062C462.304 431.209 419.691 443.621 417.29 442.601C414.89 441.581 406.603 430.581 408.496 426.11C410.4 421.64 418.266 411.499 417.366 405.408C416.476 399.318 411.308 376.836 408.742 369.184C406.187 361.532 407.039 353.498 411.809 350.206C414.169 348.577 420.467 343.948 431.683 343.969C442.899 343.991 454.394 347.537 454.71 348.001Z"
        fill="#FF9F43" />
    <path fill-rule="evenodd" clip-rule="evenodd"
        d="M463.859 373.966L444.304 359.916L444.309 362.483C444.382 378.33 445.379 386.725 461.977 412.695L461.593 410.048C461.052 406.206 460.633 402.608 460.659 400.176C460.718 395.361 462.992 390.241 464.554 385.793L463.859 373.966Z"
        fill="black" fill-opacity="0.159856" />
    <path fill-rule="evenodd" clip-rule="evenodd"
        d="M442.046 343.532C442.361 345.248 441.829 346.106 440.452 346.106C438.385 346.106 424.526 346.562 422.649 345.748C421.397 345.205 420.959 344.466 421.335 343.532H442.046Z"
        fill="#FFF6E1" />
    <path fill-rule="evenodd" clip-rule="evenodd"
        d="M511.126 378.861C511.126 378.861 522.412 371.328 524.407 369.816C526.395 368.309 528.89 356.886 527.344 355.283C526.596 354.507 520.95 359.725 519.943 360.424C518.942 361.117 513.822 364.2 513.822 364.2C513.822 364.2 515.271 355.456 514.024 354.751C513.101 354.238 511.256 356.488 511.009 358.866C510.762 361.245 508.195 364.347 507.864 367.957C507.714 369.534 507.13 371.577 507.13 371.577L475.815 385.025L479.091 399.648L511.126 378.861Z"
        fill="url(#paint25_linear_399_706)" />
    <path fill-rule="evenodd" clip-rule="evenodd"
        d="M443.908 364.416C448.233 373.4 455.578 386.534 459.613 394.236C464.386 403.349 470.075 407.21 481.55 400.448C482.445 399.92 483.861 399.068 485.797 397.892L478.694 382.12C476.208 383.218 474.965 383.768 474.965 383.768C474.965 383.768 463.976 363.702 459.414 354.068C453.61 341.823 435.538 347.03 443.908 364.416Z"
        fill="#FFB66F" />
    <path fill-rule="evenodd" clip-rule="evenodd"
        d="M474.965 383.768C476.304 388.484 477.132 390.749 477.448 390.563C477.765 390.376 477.654 387.773 477.115 382.753L474.965 383.768Z"
        fill="black" fill-opacity="0.159856" />
    <path fill-rule="evenodd" clip-rule="evenodd"
        d="M478.593 381.424L483.541 401.058L490.902 397.078L481.242 379.895L478.593 381.424Z"
        fill="#FFEDC2" />
    <path fill-rule="evenodd" clip-rule="evenodd"
        d="M431.341 298.15C431.341 298.15 427.192 292.84 422.402 294.233C417.611 295.626 413.278 304.165 415.336 312.191C417.383 320.219 415.694 324.797 413.211 330.207C406.54 344.76 429.637 354 429.637 354C428.436 346.811 429.004 341.046 431.341 336.705C434.951 329.999 437.001 321.399 437.001 316.137C437.001 306.986 431.341 298.15 431.341 298.15Z"
        fill="#9E5229" />
    <path fill-rule="evenodd" clip-rule="evenodd"
        d="M430.659 461.22L442.102 542.179L436.102 542.099L424.659 462.067L430.659 461.22Z"
        fill="#91D6FF" />
    <path fill-rule="evenodd" clip-rule="evenodd"
        d="M463.958 461.22L475.401 542.179L469.401 542.099L457.958 462.067L463.958 461.22Z"
        fill="#91D6FF" />
    <path fill-rule="evenodd" clip-rule="evenodd"
        d="M390.911 461.22L379.468 542.179L385.467 542.099L396.91 462.067L390.911 461.22Z"
        fill="#BFE7FF" />
    <path fill-rule="evenodd" clip-rule="evenodd"
        d="M477.779 456.537C477.779 451.321 473.551 447.092 468.334 447.092H430.572C424.85 447.092 420.068 442.739 419.532 437.043L413.495 372.849C412.959 367.153 408.177 362.8 402.455 362.8H378.755C372.631 362.8 367.667 367.764 367.667 373.888C367.667 374.171 367.678 374.455 367.7 374.737L373.924 455.744C374.368 461.521 379.185 465.983 384.98 465.983H468.334C473.551 465.983 477.779 461.754 477.779 456.537Z"
        fill="#BFE7FF" />
    <path fill-rule="evenodd" clip-rule="evenodd"
        d="M408.276 364.363L414.583 446.222C415.028 451.998 419.845 456.458 425.638 456.458H477.621L477.778 456.456C477.779 456.395 477.779 456.334 477.779 456.273C477.779 451.071 473.562 446.853 468.359 446.853H430.709C424.988 446.853 420.207 442.501 419.67 436.806L413.637 372.847C413.294 369.21 411.22 366.121 408.276 364.363Z"
        fill="#91D6FF" />
    <defs>
        <filter id="filter0_dd_399_706" x="69.8569" y="83.0083" width="191.801" height="107.428"
            filterUnits="userSpaceOnUse" color-interpolation-filters="sRGB">
            <feFlood flood-opacity="0" result="BackgroundImageFix" />
            <feColorMatrix in="SourceAlpha" type="matrix"
                values="0 0 0 0 0 0 0 0 0 0 0 0 0 0 0 0 0 0 127 0" result="hardAlpha" />
            <feOffset dx="8" dy="9" />
            <feGaussianBlur stdDeviation="14" />
            <feColorMatrix type="matrix"
                values="0 0 0 0 0.0755213 0 0 0 0 0.582569 0 0 0 0 0.878793 0 0 0 0.229458 0" />
            <feBlend mode="normal" in2="BackgroundImageFix" result="effect1_dropShadow_399_706" />
            <feColorMatrix in="SourceAlpha" type="matrix"
                values="0 0 0 0 0 0 0 0 0 0 0 0 0 0 0 0 0 0 127 0" result="hardAlpha" />
            <feOffset dy="2" />
            <feGaussianBlur stdDeviation="7.5" />
            <feColorMatrix type="matrix"
                values="0 0 0 0 0.503982 0 0 0 0 0.700178 0 0 0 0 1 0 0 0 0.233829 0" />
            <feBlend mode="normal" in2="effect1_dropShadow_399_706"
                result="effect2_dropShadow_399_706" />
            <feBlend mode="normal" in="SourceGraphic" in2="effect2_dropShadow_399_706"
                result="shape" />
        </filter>
        <filter id="filter1_dd_399_706" x="69.8569" y="141.592" width="224.949" height="198.68"
            filterUnits="userSpaceOnUse" color-interpolation-filters="sRGB">
            <feFlood flood-opacity="0" result="BackgroundImageFix" />
            <feColorMatrix in="SourceAlpha" type="matrix"
                values="0 0 0 0 0 0 0 0 0 0 0 0 0 0 0 0 0 0 127 0" result="hardAlpha" />
            <feOffset dx="8" dy="9" />
            <feGaussianBlur stdDeviation="14" />
            <feColorMatrix type="matrix"
                values="0 0 0 0 0.0755213 0 0 0 0 0.582569 0 0 0 0 0.878793 0 0 0 0.229458 0" />
            <feBlend mode="normal" in2="BackgroundImageFix" result="effect1_dropShadow_399_706" />
            <feColorMatrix in="SourceAlpha" type="matrix"
                values="0 0 0 0 0 0 0 0 0 0 0 0 0 0 0 0 0 0 127 0" result="hardAlpha" />
            <feOffset dy="2" />
            <feGaussianBlur stdDeviation="7.5" />
            <feColorMatrix type="matrix"
                values="0 0 0 0 0.503982 0 0 0 0 0.700178 0 0 0 0 1 0 0 0 0.233829 0" />
            <feBlend mode="normal" in2="effect1_dropShadow_399_706"
                result="effect2_dropShadow_399_706" />
            <feBlend mode="normal" in="SourceGraphic" in2="effect2_dropShadow_399_706"
                result="shape" />
        </filter>
        <filter id="filter2_d_399_706" x="275.234" y="105.237" width="272.181" height="197.485"
            filterUnits="userSpaceOnUse" color-interpolation-filters="sRGB">
            <feFlood flood-opacity="0" result="BackgroundImageFix" />
            <feColorMatrix in="SourceAlpha" type="matrix"
                values="0 0 0 0 0 0 0 0 0 0 0 0 0 0 0 0 0 0 127 0" result="hardAlpha" />
            <feOffset dx="6" dy="6" />
            <feGaussianBlur stdDeviation="8" />
            <feColorMatrix type="matrix"
                values="0 0 0 0 0.70188 0 0 0 0 0.70188 0 0 0 0 0.70188 0 0 0 0.208725 0" />
            <feBlend mode="normal" in2="BackgroundImageFix" result="effect1_dropShadow_399_706" />
            <feBlend mode="normal" in="SourceGraphic" in2="effect1_dropShadow_399_706"
                result="shape" />
        </filter>
        <linearGradient id="paint0_linear_399_706" x1="-662.557" y1="-631.06" x2="-1371.12"
            y2="4368.57" gradientUnits="userSpaceOnUse">
            <stop stop-color="#FFAFAF" />
            <stop offset="1" stop-color="#F07777" />
        </linearGradient>
        <linearGradient id="paint1_linear_399_706" x1="-455.565" y1="117.548" x2="-1121.14"
            y2="3029.01" gradientUnits="userSpaceOnUse">
            <stop stop-color="#FDC6C6" />
            <stop offset="1" stop-color="#FAB2B2" />
        </linearGradient>
        <linearGradient id="paint2_linear_399_706" x1="-770.928" y1="415.141" x2="-930.477"
            y2="2469.54" gradientUnits="userSpaceOnUse">
            <stop stop-color="#FDC6C6" />
            <stop offset="1" stop-color="#FAB2B2" />
        </linearGradient>
        <linearGradient id="paint3_linear_399_706" x1="-2333.18" y1="10262.3" x2="-7141.86"
            y2="1282.62" gradientUnits="userSpaceOnUse">
            <stop stop-color="#28324F" />
            <stop offset="1" stop-color="#222735" />
        </linearGradient>
        <linearGradient id="paint4_linear_399_706" x1="-446.746" y1="-330.377" x2="-604.797"
            y2="2531.85" gradientUnits="userSpaceOnUse">
            <stop stop-color="#FDC6C6" />
            <stop offset="1" stop-color="#FAB2B2" />
        </linearGradient>
        <linearGradient id="paint5_linear_399_706" x1="-690.037" y1="807.618" x2="-755.264"
            y2="1343.64" gradientUnits="userSpaceOnUse">
            <stop stop-color="#FDC6C6" />
            <stop offset="1" stop-color="#FAB2B2" />
        </linearGradient>
        <linearGradient id="paint6_linear_399_706" x1="552.659" y1="612.375" x2="215.974"
            y2="786.699" gradientUnits="userSpaceOnUse">
            <stop stop-color="#4D63A0" />
            <stop offset="1" stop-color="#222735" />
        </linearGradient>
        <linearGradient id="paint7_linear_399_706" x1="598.733" y1="298.97" x2="598.733"
            y2="1955.47" gradientUnits="userSpaceOnUse">
            <stop stop-color="#FE62BE" />
            <stop offset="1" stop-color="#FDB3A8" />
        </linearGradient>
        <linearGradient id="paint8_linear_399_706" x1="-378.55" y1="336.307" x2="-205.398"
            y2="1983.74" gradientUnits="userSpaceOnUse">
            <stop stop-color="#FE62BE" />
            <stop offset="1" stop-color="#FDB3A8" />
        </linearGradient>
        <linearGradient id="paint9_linear_399_706" x1="-616.831" y1="414.898" x2="-776.666"
            y2="2471.87" gradientUnits="userSpaceOnUse">
            <stop stop-color="#FDC6C6" />
            <stop offset="1" stop-color="#FAB2B2" />
        </linearGradient>
        <linearGradient id="paint10_linear_399_706" x1="-1383.34" y1="-1088.49" x2="-1742.69"
            y2="4967.77" gradientUnits="userSpaceOnUse">
            <stop stop-color="#FDC6C6" />
            <stop offset="1" stop-color="#FAB2B2" />
        </linearGradient>
        <linearGradient id="paint11_linear_399_706" x1="-494.534" y1="-637.666" x2="-1196.37"
            y2="4373.01" gradientUnits="userSpaceOnUse">
            <stop stop-color="#FFAFAF" />
            <stop offset="1" stop-color="#F07777" />
        </linearGradient>
        <linearGradient id="paint12_linear_399_706" x1="-298.749" y1="114.51" x2="-965.558"
            y2="3029.77" gradientUnits="userSpaceOnUse">
            <stop stop-color="#FDC6C6" />
            <stop offset="1" stop-color="#FAB2B2" />
        </linearGradient>
        <linearGradient id="paint13_linear_399_706" x1="-997.336" y1="750.835" x2="-1154.21"
            y2="2522.19" gradientUnits="userSpaceOnUse">
            <stop stop-color="#FDC6C6" />
            <stop offset="1" stop-color="#FAB2B2" />
        </linearGradient>
        <linearGradient id="paint14_linear_399_706" x1="-1618.04" y1="1110.91" x2="-1771.63"
            y2="2526.13" gradientUnits="userSpaceOnUse">
            <stop stop-color="#FDC6C6" />
            <stop offset="1" stop-color="#FAB2B2" />
        </linearGradient>
        <linearGradient id="paint15_linear_399_706" x1="2304.32" y1="-1026.58" x2="3496.78"
            y2="3756.12" gradientUnits="userSpaceOnUse">
            <stop stop-color="#9FF6EC" />
            <stop offset="1" stop-color="#7D9DFF" />
        </linearGradient>
        <linearGradient id="paint16_linear_399_706" x1="-788.717" y1="219.713" x2="463.468"
            y2="2793.99" gradientUnits="userSpaceOnUse">
            <stop stop-color="#FDC6C6" />
            <stop offset="1" stop-color="#A47070" />
        </linearGradient>
        <linearGradient id="paint17_linear_399_706" x1="-1198.52" y1="-808.722" x2="-1461.59"
            y2="3884.02" gradientUnits="userSpaceOnUse">
            <stop stop-color="#FDC6C6" />
            <stop offset="1" stop-color="#A47070" />
        </linearGradient>
        <linearGradient id="paint18_linear_399_706" x1="-673.664" y1="-422.586" x2="-862.149"
            y2="2842.59" gradientUnits="userSpaceOnUse">
            <stop stop-color="#FDC6C6" />
            <stop offset="1" stop-color="#A47070" />
        </linearGradient>
        <linearGradient id="paint19_linear_399_706" x1="-5322.14" y1="334.868" x2="-5322.14"
            y2="652.778" gradientUnits="userSpaceOnUse">
            <stop stop-color="#9FF6EC" />
            <stop offset="1" stop-color="#7D9DFF" />
        </linearGradient>
        <linearGradient id="paint20_linear_399_706" x1="-3968.61" y1="-547.066" x2="-3968.61"
            y2="4315.61" gradientUnits="userSpaceOnUse">
            <stop stop-color="#9FF6EC" />
            <stop offset="1" stop-color="#7D9DFF" />
        </linearGradient>
        <linearGradient id="paint21_linear_399_706" x1="-1387.37" y1="-5.4078" x2="880.522"
            y2="4589.9" gradientUnits="userSpaceOnUse">
            <stop stop-color="#FDC6C6" />
            <stop offset="1" stop-color="#FFCCA1" />
        </linearGradient>
        <linearGradient id="paint22_linear_399_706" x1="-287.343" y1="-166.749" x2="-410.14"
            y2="2662.19" gradientUnits="userSpaceOnUse">
            <stop stop-color="#FDC6C6" />
            <stop offset="1" stop-color="#FAB2B2" />
        </linearGradient>
        <linearGradient id="paint23_linear_399_706" x1="-226.741" y1="-114.718" x2="-352.634"
            y2="2489.21" gradientUnits="userSpaceOnUse">
            <stop stop-color="#FDC6C6" />
            <stop offset="1" stop-color="#FAB2B2" />
        </linearGradient>
        <linearGradient id="paint24_linear_399_706" x1="-895.901" y1="-678.101" x2="-1130.32"
            y2="3503.93" gradientUnits="userSpaceOnUse">
            <stop stop-color="#FDC6C6" />
            <stop offset="1" stop-color="#FFCCA1" />
        </linearGradient>
        <linearGradient id="paint25_linear_399_706" x1="-1672.98" y1="-25.4473" x2="-1972.39"
            y2="3990.86" gradientUnits="userSpaceOnUse">
            <stop stop-color="#FDC6C6" />
            <stop offset="1" stop-color="#FFCCA1" />
        </linearGradient>
    </defs>
</svg>