<svg width="835" height="845" viewBox="0 0 835 845" fill="none" xmlns="http://www.w3.org/2000/svg">
<path d="M567.21 184.86C562.55 158.32 558.88 131.78 555.48 105.24L554.24 95.29L553.63 90.29L553.48 89.05C553.449 88.6667 553.392 88.2858 553.31 87.91L552.91 86.04C551.904 81.249 550.04 76.679 547.41 72.55C544.907 68.6345 541.708 65.2111 537.97 62.45C534.425 59.8574 530.441 57.9264 526.21 56.75C522.213 55.6485 518.049 55.2792 513.92 55.66L495.36 57.41L475.45 59.14C468.783 59.72 462.147 60.2667 455.54 60.78C428.987 62.9333 402.44 64.8133 375.9 66.42C362.62 67.27 349.35 68.01 336.07 68.74L331.07 69.02L328.58 69.15H327.95H327.65H327.53L327.07 69.26C326.76 69.33 326.45 69.38 326.15 69.43C325.843 69.4435 325.539 69.5042 325.25 69.61C324.67 69.83 324.08 69.93 323.52 70.11C320.345 71.2352 317.528 73.1901 315.363 75.7716C313.199 78.3531 311.765 81.467 311.21 84.79C311.046 85.8116 310.973 86.8455 310.99 87.88C311.028 88.1419 311.051 88.4056 311.06 88.67V89.62L311.25 94.62L311.89 114.53C312.76 141.09 313.37 167.64 313.89 194.19C314.04 200.83 314.1 207.47 314.2 214.11V214.95V216.03L314.13 218.19L313.93 222.49C313.861 223.933 313.717 225.372 313.5 226.8C313.31 228.23 313.1 229.66 312.89 231.09C312.44 233.955 311.829 236.793 311.06 239.59C310.68 240.99 310.39 242.42 309.89 243.78C309.39 245.14 308.95 246.53 308.46 247.89C300.397 269.864 284.558 288.119 263.94 299.2C261.35 300.51 258.74 301.81 256.08 302.95C253.42 304.09 250.64 305.02 247.89 305.95C245.1 306.75 242.29 307.48 239.46 308.17C236.63 308.86 233.75 309.17 230.89 309.6C229.462 309.819 228.023 309.959 226.58 310.02L222.26 310.26C218.84 310.42 217.88 310.35 216.08 310.37H206.08L166.24 310.17C152.96 310.01 139.69 309.93 126.41 309.71L89.48 309.05C87.5194 309.042 85.5728 309.381 83.73 310.05C81.7901 310.727 79.9856 311.743 78.4 313.05C76.7214 314.443 75.3028 316.122 74.21 318.01C73.1274 319.948 72.4153 322.071 72.11 324.27L72.03 324.71L71.98 324.92C71.9778 324.963 71.9778 325.007 71.98 325.05V325.41L71.89 327.9L71.7 332.9L71.29 342.9L70.46 362.82C69.83 376.1 69.24 389.38 68.51 402.66C67.78 415.94 67.02 429.12 66.21 442.41C65.4 455.7 64.53 468.97 63.56 482.26C63.1133 488.927 62.63 495.567 62.11 502.18L60.85 519.06C60.7563 522.971 61.3974 526.865 62.74 530.54C64.1805 534.433 66.3113 538.034 69.03 541.17C71.9016 544.481 75.3509 547.242 79.21 549.32L80.68 550.15C81.19 550.38 81.68 550.57 82.24 550.79L83.82 551.47C84.3499 551.686 84.8946 551.863 85.45 552L87.11 552.52C87.39 552.6 87.67 552.71 87.95 552.77L88.81 552.93L90.55 553.28L91.43 553.47C91.5877 553.511 91.7481 553.541 91.91 553.56L92.53 553.62C105.81 554.993 119.093 556.463 132.38 558.03C158.95 561.2 185.53 564.64 212.1 569.03C185.57 573.72 159.03 577.4 132.49 580.82C119.217 582.5 105.947 584.09 92.68 585.59L92.06 585.66C91.87 585.66 91.54 585.66 91.29 585.71L89.68 585.78L86.44 585.9L84.82 585.95C84.27 585.95 83.73 585.9 83.19 585.87L79.93 585.65C78.8355 585.602 77.7441 585.499 76.66 585.34L73.41 584.8C72.32 584.61 71.23 584.43 70.14 584.2L66.94 583.34C58.2611 580.943 50.1028 576.956 42.88 571.58C27.7275 560.341 17.3716 543.8 13.88 525.26L13.51 523.5C13.39 522.92 13.35 522.33 13.26 521.74L12.84 518.19L12.65 516.41L12.5 514.8L12.28 512.31L11.43 502.31C10.85 495.643 10.3033 489.007 9.79001 482.4C8.70001 469.12 7.79001 455.85 6.79001 442.58C5.79001 429.31 4.96001 416.03 4.17001 402.75C3.38001 389.47 2.60001 376.2 1.85001 362.93L0.850006 343.02L0.350006 333.02L0.110001 328.02L0 325.53V323.7V321.64C0.145018 299.147 8.70717 277.524 24 261.03C31.6161 252.74 40.6856 245.914 50.76 240.89C60.9332 235.905 71.9293 232.814 83.21 231.77L87.44 231.46C88.78 231.38 90.51 231.28 91.09 231.27L96.09 231.11L106.09 230.85L126.01 230.33C139.28 229.98 152.56 229.77 165.84 229.49L205.67 228.93L215.67 228.85C216.928 228.88 218.186 228.846 219.44 228.75C219.656 228.735 219.874 228.735 220.09 228.75C220.305 228.781 220.524 228.76 220.73 228.69C221.14 228.56 221.57 228.58 221.97 228.48C222.356 228.327 222.759 228.223 223.17 228.17C223.531 227.965 223.917 227.81 224.32 227.71C224.676 227.493 225.051 227.309 225.44 227.16C226.952 226.363 228.307 225.299 229.44 224.02C230.558 222.751 231.451 221.3 232.08 219.73C232.158 219.534 232.248 219.344 232.35 219.16C232.48 218.98 232.43 218.75 232.51 218.56C232.57 218.15 232.86 217.78 232.83 217.34C232.852 217.128 232.889 216.917 232.94 216.71C233.026 216.508 233.064 216.289 233.05 216.07C233.05 215.85 233.05 215.63 233.05 215.41V215.07V214.91V214.82V214.51C233.05 207.87 233.05 201.23 233.18 194.59C233.43 168.03 233.79 141.47 234.41 114.91L234.86 94.99L235.01 89.99L235.1 88.07L235.22 85.97L235.51 81.79C236.087 76.208 237.165 70.6892 238.73 65.3C241.852 54.5521 246.938 44.4754 253.73 35.58C260.449 26.7765 268.71 19.2649 278.11 13.41C287.452 7.58272 297.799 3.55033 308.62 1.52C311.3 1.02 314.02 0.719999 316.71 0.389999C318.058 0.226717 319.413 0.13326 320.77 0.110001L324.82 0H326.82H327.64H328.27L330.76 0.100006L335.76 0.330002C349.04 0.940002 362.32 1.55 375.6 2.28C402.16 3.68 428.723 5.31334 455.29 7.18001C461.957 7.62667 468.597 8.11 475.21 8.63L495.14 10.18L505.14 11L510.14 11.4L512.99 11.67L516.46 12.04C525.619 13.1471 534.495 15.9373 542.64 20.27C550.569 24.5037 557.647 30.1654 563.52 36.97C569.223 43.6019 573.632 51.2438 576.52 59.5C579.345 67.5211 580.641 76.0011 580.34 84.5L580.22 87.61C580.22 88.17 580.15 88.53 580.1 88.96L579.97 90.2L579.4 95.2L578.25 105.2C575.06 131.71 571.64 158.28 567.21 184.86Z" fill="#0A83CF"/>
<path d="M447.68 378.17C444.03 380.17 440.36 381.96 436.77 383.95C433.18 385.94 429.57 387.88 426.01 389.89C418.92 393.89 412.01 398.13 405.19 402.55C398.37 406.97 391.83 411.55 385.44 416.34C382.24 418.72 379.15 421.22 376.04 423.68C372.93 426.14 369.96 428.74 367.04 431.38C361.15 436.59 355.53 442.02 350.27 447.69C345.091 453.222 340.265 459.073 335.82 465.21L334.21 467.48C333.67 468.23 333.21 469.03 332.66 469.8C331.66 471.37 330.59 472.88 329.6 474.45L326.76 479.21C326.27 479.99 325.82 480.79 325.4 481.61L324.1 484.05L322.8 486.47C322.38 487.28 322 488.12 321.6 488.95C320.82 490.61 319.97 492.22 319.25 493.95L317.09 498.95C316.38 500.63 315.79 502.37 315.09 504.07C312.537 510.93 310.416 517.944 308.74 525.07C307.025 532.277 305.673 539.567 304.69 546.91L304.29 549.68L303.99 552.48L303.37 558.09C303.03 561.98 302.62 565.85 302.37 569.73C302.12 573.61 301.77 577.47 301.63 581.35L301.33 587.15C301.23 589.08 301.2 591.02 301.13 592.95C300.66 608.42 300.89 623.88 301.71 639.6C302.05 647.45 302.56 655.4 303.09 663.37L304.81 687.59C305.38 695.73 306 703.94 306.51 712.2L308.13 736.09L308.63 741.89L308.89 744.56L309.02 745.84L309.17 747.04C309.457 749.661 309.935 752.258 310.6 754.81C310.98 756.332 311.573 757.793 312.36 759.15C312.53 759.37 312.65 759.63 312.82 759.84C312.99 760.05 313.11 760.27 313.29 760.45L313.55 760.75C313.629 760.869 313.72 760.979 313.82 761.08C314.07 761.32 314.27 761.59 314.5 761.84C316.429 763.857 318.778 765.424 321.38 766.43C323.837 767.41 326.481 767.827 329.12 767.65L352.89 766.9L377.4 766.24C410.08 765.34 442.77 764.71 475.45 764.18L499.97 763.84L512.21 763.71H513.69L514.1 763.64C514.368 763.598 514.639 763.582 514.91 763.59C515.19 763.64 515.43 763.48 515.69 763.45C515.943 763.388 516.201 763.352 516.46 763.34C518.474 762.863 520.361 761.956 521.99 760.68C523.69 759.425 525.062 757.778 525.99 755.88C526.914 754.034 527.433 752.012 527.51 749.95L527.57 749.55V738.86V726.6L527.72 677.6L528.14 628.6C528.14 626.39 528.14 625.16 528.35 621.01C528.43 619.26 528.54 617.51 528.67 615.77C528.8 614.03 529.13 612.28 529.38 610.54C529.63 608.8 529.93 607.07 530.27 605.34C530.61 603.61 531.12 601.92 531.57 600.22C532.47 596.82 533.582 593.48 534.9 590.22C535.22 589.4 535.53 588.58 535.9 587.77L537.02 585.38C537.78 583.8 538.56 582.22 539.35 580.66C539.73 579.86 540.18 579.11 540.63 578.36L541.99 576.11C542.92 574.62 543.83 573.11 544.82 571.68C545.81 570.25 546.9 568.88 547.96 567.49C549.02 566.1 550.08 564.71 551.28 563.49C553.571 560.864 556.012 558.374 558.59 556.03C568.915 546.592 581.213 539.572 594.59 535.48C597.95 534.6 601.32 533.67 604.73 533.08C606.44 532.81 608.16 532.56 609.88 532.34L612.45 532.01C613.31 531.92 614.17 531.9 615.03 531.85C616.75 531.76 618.47 531.7 620.19 531.65H621.48H622.12H622.53H624.06L630.19 531.78C646.54 532.12 662.88 532.59 679.19 533.04C695.5 533.49 711.88 534.04 728.19 534.61L740.45 535.07L746.58 535.29L749.64 535.41H750.41H751.55C754.843 535.624 758.144 535.13 761.23 533.96L761.54 533.87L761.82 533.72L762.39 533.43C762.77 533.25 763.17 533.09 763.57 532.91C763.97 532.73 764.28 532.44 764.66 532.22C765.055 532.033 765.428 531.802 765.77 531.53C766.492 531.027 767.186 530.487 767.85 529.91C768.17 529.61 768.504 529.32 768.85 529.04C769.18 528.74 769.44 528.38 769.76 528.04C772.287 525.364 774.153 522.135 775.21 518.61C775.3 518.15 775.43 517.7 775.56 517.25L775.77 516.56C775.83 516.327 775.871 516.09 775.89 515.85C775.95 515.38 776.03 514.85 776.12 514.42L776.2 514.06C776.241 513.903 776.261 513.742 776.26 513.58L776.34 512.04L776.97 499.78L778.32 475.26C780.167 442.56 782.28 409.863 784.66 377.17C785.867 360.817 787.15 344.483 788.51 328.17L788.77 325.1L788.83 324.34C788.83 324.09 788.83 323.8 788.89 323.65L788.95 322.54L789.11 320.31V319.75V319.19V318.08C789.11 317.33 789.11 316.58 789.06 315.82L788.76 313.58C788.69 312.821 788.58 312.067 788.43 311.32L787.9 309.09L787.64 307.96C787.54 307.59 787.39 307.23 787.27 306.87L786.52 304.66C786.263 303.92 785.956 303.198 785.6 302.5L784.6 300.33L783.41 298.27C783.04 297.559 782.623 296.874 782.16 296.22L780.76 294.22C780.52 293.9 780.3 293.54 780.05 293.22L779.24 292.31C774.904 287.165 769.494 283.031 763.39 280.2C762.6 279.85 761.79 279.57 760.98 279.2C760.17 278.83 759.37 278.52 758.54 278.28L756 277.58C755.159 277.311 754.3 277.101 753.43 276.95L750.79 276.49L749.45 276.26L747.91 276.09L741.78 275.42C725.43 273.57 709.08 271.74 692.72 269.47C709.05 267.04 725.39 265.06 741.72 263.06L747.85 262.33L749.38 262.15L751.1 262.05L754.58 261.87C755.749 261.795 756.921 261.795 758.09 261.87L761.62 262.07C762.8 262.15 763.96 262.39 765.13 262.55C766.3 262.71 767.49 262.9 768.66 263.14C778.195 265.24 787.131 269.469 794.8 275.51L796.28 276.65C796.76 277.04 797.2 277.48 797.66 277.89L800.4 280.44C801.305 281.303 802.163 282.215 802.97 283.17L805.46 286L807.7 289.06C808.476 290.063 809.191 291.111 809.84 292.2L811.78 295.51C812.09 296.06 812.43 296.61 812.72 297.18L813.53 298.92L815.13 302.44C815.68 303.61 816.02 304.85 816.47 306.07C816.92 307.29 817.32 308.52 817.7 309.76L818.6 313.56L819.03 315.47L819.24 316.47L819.37 317.47L819.87 321.36L820.1 323.31L820.25 324.92L820.54 327.98C822.06 344.32 823.494 360.653 824.84 376.98C827.554 409.647 829.974 442.313 832.1 474.98L833.67 499.49L834.42 511.74L834.51 513.27C834.51 513.47 834.51 513.96 834.51 514.32V515.49C834.51 517.05 834.51 518.61 834.51 520.18C834.51 520.96 834.51 521.75 834.42 522.53L834.19 524.88C834.02 526.44 833.85 528.01 833.65 529.58C831.633 542.264 826.789 554.332 819.478 564.891C812.166 575.45 802.574 584.229 791.41 590.58C779.992 597.053 767.258 600.861 754.16 601.72L751.71 601.9H750.71H749.94L746.88 602.04L740.75 602.33L728.5 602.9C712.16 603.6 695.82 604.31 679.5 604.9C663.18 605.49 646.82 606.13 630.5 606.61L624.37 606.81H622.84H622.49H622.37L622.12 606.86C621.791 606.933 621.457 606.98 621.12 607C620.96 607 620.8 607 620.64 607L620.19 607.15C619.892 607.237 619.588 607.304 619.28 607.35H619.05L618.84 607.45L618.42 607.63C618.134 607.738 617.84 607.821 617.54 607.88C615.256 608.938 613.232 610.484 611.61 612.41C611.189 612.841 610.804 613.306 610.46 613.8C610.253 614.015 610.087 614.266 609.97 614.54C609.815 614.797 609.645 615.044 609.46 615.28C609.33 615.54 609.24 615.83 609.09 616.08L608.88 616.46C608.787 616.571 608.719 616.7 608.68 616.84C608.601 617.117 608.501 617.388 608.38 617.65C608.32 617.78 608.26 617.91 608.19 618.04C608.12 618.17 608.13 618.32 608.1 618.46C607.909 618.991 607.771 619.541 607.69 620.1C607.647 620.378 607.583 620.652 607.5 620.92C607.5 621.2 607.5 621.49 607.5 621.77C607.45 622.051 607.42 622.335 607.41 622.62C607.43 622.913 607.43 623.207 607.41 623.5C607.35 623.43 607.41 626.29 607.41 628.17L608.29 677.17L608.9 726.17L608.99 738.43V744.56V747.62V749.22L608.91 751.88C608.575 766.213 605.02 780.287 598.51 793.06C591.953 805.791 582.626 816.891 571.215 825.544C559.804 834.196 546.599 840.182 532.57 843.06C530.824 843.36 529.064 843.64 527.29 843.9C525.53 844.14 523.77 844.46 522 844.53C520.23 844.6 518.46 844.74 516.69 844.81L514.04 844.91H512.45H500.19L475.68 844.81C443.014 844.583 410.324 844.2 377.61 843.66L353.09 843.23L327.83 842.64C320.922 842.416 314.062 841.41 307.38 839.64C287.495 834.33 269.96 822.515 257.57 806.08C256.57 804.71 255.57 803.3 254.63 801.89C253.69 800.48 252.73 798.89 251.83 797.37C250.93 795.85 250.13 794.23 249.31 792.64C248.49 791.05 247.83 789.43 247.12 787.81C244.598 781.698 242.757 775.326 241.63 768.81C240.692 763.344 240.114 757.822 239.9 752.28L239.82 750.43L239.77 748.65C239.77 747.44 239.71 746.33 239.7 745.2V738.75L240.21 713.61L240.74 689.2C241.06 672.82 241.54 656.12 242.51 639.14C243.01 630.67 243.72 622.14 244.51 613.56C244.99 609.27 245.39 604.99 245.99 600.71L246.84 594.29C247.12 592.15 247.48 590.02 247.84 587.88C249.09 579.34 250.71 570.88 252.46 562.43C253.33 558.22 254.33 554.04 255.26 549.85C255.75 547.73 256.33 545.55 256.87 543.41L257.7 540.19L258.62 536.97C261.007 528.324 263.875 519.817 267.21 511.49C270.559 503.062 274.475 494.87 278.93 486.97C283.348 479.031 288.362 471.439 293.93 464.26L296.01 461.58C296.69 460.68 297.4 459.8 298.15 458.95L302.55 453.82C304.05 452.15 305.61 450.53 307.15 448.9C307.93 448.1 308.68 447.27 309.48 446.49L311.89 444.16C313.52 442.64 315.07 441.04 316.76 439.59L321.76 435.22C323.43 433.77 325.21 432.46 326.92 431.08C328.63 429.7 330.37 428.35 332.14 427.08C339.074 421.963 346.285 417.233 353.74 412.91C361.08 408.6 368.633 404.665 376.37 401.12C384.04 397.57 391.81 394.33 399.69 391.51C415.328 385.86 431.37 381.401 447.68 378.17Z" fill="#0A83CF"/>
<path d="M235.86 481.26C234.91 478.59 234 475.89 233.16 473.18C232.32 470.47 231.57 467.71 230.8 464.95C230.43 463.57 230.09 462.18 229.8 460.78C229.51 459.38 229.13 457.99 228.85 456.59L227.96 452.36L227.18 448.09C225.177 436.492 224.323 424.725 224.63 412.96C224.798 406.904 225.325 400.863 226.21 394.87C226.6 391.87 227.21 388.81 227.86 385.76C228.14 384.24 228.58 382.76 228.95 381.22C229.32 379.68 229.69 378.22 230.15 376.68C233.758 364.299 239.148 352.509 246.15 341.68L248.97 337.68C249.92 336.33 250.85 334.96 251.9 333.68C253.97 331.12 255.98 328.45 258.25 326.05L261.62 322.37C262.77 321.18 263.99 320.06 265.18 318.9C266.37 317.74 267.57 316.58 268.8 315.47L272.58 312.25C282.713 303.86 293.836 296.744 305.7 291.06C307.16 290.36 308.62 289.6 310.09 288.94L314.52 287.03L318.98 285.16C320.47 284.56 321.92 284.07 323.39 283.52C326.34 282.47 329.27 281.32 332.25 280.37L336.71 278.9C338.19 278.39 339.71 278.01 341.27 277.56L345.85 276.27L350.41 275.13C353.47 274.33 356.48 273.69 359.5 273.03C365.5 271.73 371.5 270.71 377.41 269.73C400.97 265.99 423.31 264.21 443.49 261.21C445.98 260.82 448.49 260.44 450.91 260.02L457.91 258.63C459.07 258.4 460.25 258.24 461.4 257.94L464.88 257.11C467.19 256.53 469.52 256.11 471.81 255.42C476.4 254.07 480.99 252.87 485.52 251.31L488.93 250.2L490.63 249.65L492.32 249.01L499.06 246.5C534.88 232.5 568.59 210.76 600.33 184.82L600.83 184.42C606.456 179.821 613.215 176.819 620.399 175.729C627.584 174.639 634.929 175.501 641.666 178.225C648.402 180.948 654.283 185.433 658.691 191.21C663.099 196.987 665.872 203.843 666.72 211.06L667.03 213.69L667.27 215.97L667.71 220.41C667.984 223.33 668.224 226.223 668.43 229.09C668.88 234.85 669.17 240.56 669.43 246.27C669.86 257.68 670.02 269.08 669.72 280.49C669.42 291.9 668.89 303.35 667.83 314.8C667.33 320.527 666.724 326.26 666.01 332C665.29 337.73 664.41 343.48 663.49 349.22C659.725 372.641 653.601 395.621 645.21 417.81C640.765 429.312 635.487 440.475 629.42 451.21C623.175 462.313 615.864 472.783 607.59 482.47C603.339 487.412 598.812 492.109 594.03 496.54C591.55 498.72 589.16 500.94 586.56 502.99C585.27 503.99 584.02 505.08 582.69 506.06L578.69 508.98L577.69 509.7L576.59 510.45L574.39 511.92C573.011 512.884 571.583 513.775 570.11 514.59L562.05 519.01C559.35 520.54 556.71 521.72 554.05 523.01C551.39 524.3 548.78 525.57 546.11 526.76C524.959 536.08 502.817 542.968 480.11 547.29C457.871 551.452 435.217 552.976 412.62 551.83C390.3 550.6 368.32 546.72 347.72 539.56C368.924 537.969 389.955 534.59 410.59 529.46C430.471 524.5 449.878 517.808 468.59 509.46C486.694 501.29 504.039 491.531 520.42 480.3C522.42 478.92 524.36 477.44 526.33 476.03C528.3 474.62 530.33 473.19 532.03 471.73L537.42 467.46C538.214 466.863 538.951 466.193 539.62 465.46L540.62 464.51L541.1 464.03L541.63 463.48C544.511 460.533 547.242 457.443 549.81 454.22C552.33 450.9 554.74 447.5 557 443.93C565.95 429.57 572.61 412.93 577.39 395.05C582.177 376.648 585.428 357.88 587.11 338.94C587.56 334.1 587.97 329.25 588.25 324.35C588.53 319.45 588.85 314.57 589.01 309.64C589.17 304.71 589.28 299.78 589.34 294.83C589.4 289.88 589.42 284.93 589.34 279.96C589.16 270.04 588.87 260.09 588.26 250.18C587.95 245.23 587.58 240.3 587.19 235.41C586.99 232.963 586.77 230.543 586.53 228.15L586.16 224.62L585.8 221.62L652.21 247.82C633.555 263.301 613.673 277.24 592.76 289.5C587.52 292.69 581.98 295.5 576.56 298.41C573.81 299.84 571 301.17 568.22 302.55L564.04 304.6L559.78 306.52L551.21 310.27L542.47 313.73C541 314.29 539.57 314.91 538.08 315.42L533.63 316.99C530.63 317.99 527.72 319.11 524.69 319.99L515.62 322.7L513.35 323.37L511.05 323.96L506.45 325.12C503.37 325.86 500.34 326.74 497.2 327.31L487.87 329.16C484.76 329.76 481.59 330.16 478.46 330.66L473.75 331.36C472.19 331.62 470.59 331.72 469.02 331.91L459.53 332.83C456.44 333.06 453.43 333.22 450.39 333.4C426.39 334.56 404.24 333.72 383.57 334.16C381.03 334.24 378.44 334.28 375.92 334.39C373.4 334.5 370.85 334.6 368.41 334.77C365.97 334.94 363.41 335.06 361.05 335.3L357.41 335.62L353.85 336.05C351.49 336.3 349.08 336.69 346.66 337.05C344.24 337.41 341.87 337.89 339.46 338.3C338.27 338.52 337.02 338.71 335.87 338.96L332.44 339.76L328.99 340.52C327.85 340.79 326.75 341.14 325.63 341.44C307.63 346.33 291.32 354.44 277.81 367.05L275.35 369.49C274.54 370.32 273.66 371.1 272.92 371.99C271.38 373.75 269.75 375.46 268.33 377.35L266.1 380.14L264.01 383.08L262.96 384.55C262.62 385.06 262.31 385.55 261.96 386.09L259.96 389.18C254.771 397.912 250.523 407.17 247.29 416.8C240.68 436.72 237.39 458.67 235.86 481.26Z" fill="#7CC7B9"/>
</svg>
