<svg width="259" height="80" viewBox="0 0 259 80" fill="none" xmlns="http://www.w3.org/2000/svg">
    <path
        d="M53.6957 17.5034C53.2545 14.9905 52.9071 12.4775 52.5853 9.96461L52.4679 9.0225L52.4101 8.54908L52.3959 8.43167C52.3929 8.39537 52.3876 8.35931 52.3798 8.32373L52.342 8.14667C52.2467 7.69303 52.0703 7.26032 51.8213 6.86937C51.5844 6.49863 51.2815 6.17449 50.9276 5.91306C50.5921 5.66758 50.2149 5.48474 49.8144 5.37335C49.436 5.26906 49.0418 5.2341 48.6509 5.27015L46.8939 5.43585L45.0091 5.59965C44.378 5.65457 43.7497 5.70633 43.1243 5.75493C40.6106 5.95882 38.0975 6.13683 35.5851 6.28895C34.3279 6.36944 33.0717 6.4395 31.8145 6.50862L31.3412 6.53513L31.1055 6.54744H31.0458H31.0174H31.0061L30.9625 6.55786C30.9332 6.56449 30.9038 6.56922 30.8754 6.57395C30.8463 6.57523 30.8176 6.58098 30.7902 6.591C30.7353 6.61183 30.6795 6.6213 30.6265 6.63834C30.3258 6.74488 30.0592 6.92998 29.8543 7.1744C29.6494 7.41883 29.5136 7.71367 29.4611 8.02831C29.4456 8.12504 29.4386 8.22294 29.4403 8.32089C29.4439 8.34568 29.4461 8.37065 29.4469 8.39569V8.48564L29.4649 8.95906L29.5255 10.8442C29.6078 13.3591 29.6656 15.8729 29.7148 18.3868C29.729 19.0155 29.7347 19.6442 29.7442 20.2729V20.3525V20.4547L29.7375 20.6592L29.7186 21.0664C29.7121 21.203 29.6985 21.3392 29.6779 21.4745C29.6599 21.6099 29.64 21.7453 29.6202 21.8807C29.5775 22.152 29.5197 22.4207 29.4469 22.6855C29.4109 22.8181 29.3835 22.9534 29.3362 23.0822C29.2888 23.211 29.2472 23.3426 29.2008 23.4714C28.4375 25.552 26.938 27.2805 24.9862 28.3296C24.741 28.4537 24.494 28.5768 24.2422 28.6847C23.9903 28.7927 23.7272 28.8807 23.4668 28.9688C23.2027 29.0445 22.9367 29.1136 22.6688 29.179C22.4009 29.2443 22.1283 29.2737 21.8575 29.3144C21.7223 29.3351 21.5861 29.3484 21.4495 29.3541L21.0405 29.3769C20.7168 29.392 20.6259 29.3854 20.4555 29.3873H19.5088L15.7373 29.3683C14.4802 29.3532 13.2239 29.3456 11.9668 29.3248L8.47074 29.2623C8.28514 29.2615 8.10086 29.2936 7.92641 29.357C7.74277 29.4211 7.57194 29.5173 7.42184 29.641C7.26294 29.7729 7.12864 29.9319 7.02519 30.1107C6.92271 30.2942 6.85529 30.4952 6.82639 30.7034L6.81882 30.745L6.81408 30.7649C6.81388 30.769 6.81388 30.7731 6.81408 30.7772V30.8113L6.80556 31.0471L6.78758 31.5205L6.74876 32.4674L6.67019 34.3535C6.61055 35.6109 6.5547 36.8683 6.48559 38.1257C6.41648 39.3831 6.34454 40.6311 6.26786 41.8894C6.19118 43.1478 6.10882 44.4043 6.01699 45.6626C5.97471 46.2938 5.92895 46.9226 5.87973 47.5487L5.76045 49.147C5.75158 49.5173 5.81227 49.8861 5.93937 50.234C6.07574 50.6026 6.27745 50.9435 6.53482 51.2405C6.80666 51.554 7.1332 51.8155 7.49852 52.0122L7.63768 52.0908C7.68596 52.1125 7.73235 52.1305 7.78536 52.1514L7.93493 52.2157C7.9851 52.2361 8.03667 52.2529 8.08924 52.2659L8.24638 52.3152C8.27289 52.3227 8.2994 52.3331 8.3259 52.3388L8.40732 52.354L8.57204 52.3871L8.65534 52.4051C8.67027 52.409 8.68546 52.4119 8.70078 52.4136L8.75948 52.4193C10.0166 52.5493 11.2741 52.6885 12.5319 52.8369C15.0472 53.137 17.5634 53.4627 20.0787 53.8784C17.5672 54.3225 15.0548 54.6709 12.5423 54.9947C11.2858 55.1538 10.0296 55.3043 8.77368 55.4464L8.71498 55.453C8.697 55.453 8.66576 55.453 8.64209 55.4577L8.48968 55.4644L8.18296 55.4757L8.0296 55.4805C7.97753 55.4805 7.92641 55.4757 7.87529 55.4729L7.56668 55.4521C7.46306 55.4475 7.35974 55.4377 7.25712 55.4227L6.94946 55.3716C6.84627 55.3536 6.74308 55.3365 6.6399 55.3148L6.33696 55.2333C5.51537 55.0064 4.74305 54.6288 4.05929 54.1198C2.62486 53.0557 1.64451 51.4895 1.31397 49.7341L1.27894 49.5674C1.26758 49.5125 1.2638 49.4566 1.25528 49.4008L1.21552 49.0646L1.19753 48.8961L1.18333 48.7437L1.1625 48.5079L1.08204 47.561C1.02713 46.9298 0.97538 46.3014 0.926784 45.6759C0.823598 44.4185 0.737452 43.162 0.642785 41.9055C0.548119 40.6491 0.469546 39.3917 0.39476 38.1342C0.319973 36.8768 0.246133 35.6204 0.175133 34.3639L0.080467 32.4787L0.0331338 31.5319L0.0104134 31.0585L0 30.8227V30.6494V30.4544C0.0137283 28.3247 0.824276 26.2773 2.27199 24.7155C2.99298 23.9306 3.85156 23.2843 4.80526 22.8086C5.76832 22.3366 6.80928 22.044 7.87719 21.9451L8.27763 21.9157C8.40448 21.9081 8.56825 21.8987 8.62316 21.8977L9.09649 21.8826L10.0432 21.8579L11.9289 21.8087C13.1851 21.7756 14.4423 21.7557 15.6995 21.7292L19.47 21.6762L20.4167 21.6686C20.5357 21.6714 20.6549 21.6682 20.7736 21.6591C20.7941 21.6577 20.8146 21.6577 20.8351 21.6591C20.8555 21.662 20.8762 21.6601 20.8957 21.6534C20.9345 21.6411 20.9752 21.643 21.0131 21.6335C21.0496 21.6191 21.0877 21.6092 21.1267 21.6042C21.1608 21.5848 21.1974 21.5701 21.2356 21.5606C21.2692 21.5401 21.3047 21.5227 21.3416 21.5086C21.4847 21.4331 21.613 21.3324 21.7202 21.2113C21.8261 21.0911 21.9106 20.9537 21.9702 20.8051C21.9775 20.7865 21.9861 20.7685 21.9957 20.7511C22.008 20.734 22.0033 20.7123 22.0109 20.6943C22.0165 20.6555 22.044 20.6204 22.0412 20.5788C22.0433 20.5587 22.0467 20.5387 22.0516 20.5191C22.0597 20.5 22.0633 20.4792 22.062 20.4585C22.062 20.4377 22.062 20.4168 22.062 20.396V20.3638V20.3487V20.3402V20.3108C22.062 19.6821 22.062 19.0534 22.0743 18.4247C22.098 15.9099 22.132 13.395 22.1907 10.8802L22.2333 8.99409L22.2475 8.52067L22.2561 8.33888L22.2674 8.14004L22.2949 7.74426C22.3495 7.21573 22.4515 6.69318 22.5997 6.18291C22.8952 5.16524 23.3767 4.21113 24.0197 3.36888C24.6558 2.53533 25.4377 1.82409 26.3277 1.26972C27.212 0.717967 28.1915 0.336161 29.2159 0.143921C29.4696 0.0965787 29.7271 0.0681729 29.9818 0.036927C30.1093 0.0214667 30.2376 0.0126177 30.3661 0.0104154L30.7495 0H30.9389H31.0165H31.0761L31.3118 0.00946904L31.7852 0.0312461C33.0423 0.0890037 34.2995 0.146761 35.5567 0.215881C38.071 0.348439 40.5857 0.503092 43.1006 0.679836C43.7317 0.722129 44.3603 0.767893 44.9864 0.817129L46.8731 0.96389L47.8198 1.04153L48.2931 1.07941L48.5629 1.10497L48.8914 1.14C49.7584 1.24483 50.5987 1.50902 51.3697 1.91926C52.1203 2.32013 52.7904 2.8562 53.3464 3.50049C53.8862 4.12843 54.3037 4.852 54.577 5.63374C54.8445 6.39322 54.9672 7.19614 54.9387 8.00085L54.9273 8.29532C54.9273 8.34835 54.9207 8.38243 54.9159 8.42314L54.9036 8.54056L54.8497 9.01398L54.7408 9.96083C54.4388 12.4709 54.1151 14.9867 53.6957 17.5034Z"
        fill="#0A83CF" />
    <path
        d="M42.3801 35.8067C42.0346 35.9961 41.6872 36.1656 41.3473 36.354C41.0074 36.5424 40.6657 36.7261 40.3287 36.9164C39.6575 37.2951 39.0034 37.6966 38.3577 38.1151C37.7121 38.5336 37.093 38.9673 36.4881 39.4208C36.1851 39.6462 35.8926 39.8829 35.5982 40.1158C35.3038 40.3487 35.0226 40.5949 34.7462 40.8449C34.1886 41.3382 33.6566 41.8523 33.1587 42.3892C32.6684 42.9129 32.2115 43.467 31.7907 44.0481L31.6383 44.263C31.5872 44.334 31.5437 44.4098 31.4916 44.4827C31.3969 44.6313 31.2956 44.7743 31.2019 44.9229L30.9331 45.3736C30.8867 45.4475 30.8441 45.5232 30.8043 45.6009L30.6812 45.8319L30.5582 46.0611C30.5184 46.1377 30.4824 46.2173 30.4446 46.2959C30.3707 46.453 30.2903 46.6055 30.2221 46.7693L30.0176 47.2427C29.9504 47.4018 29.8946 47.5665 29.8283 47.7275C29.5866 48.3771 29.3858 49.0412 29.2272 49.7159C29.0648 50.3983 28.9368 51.0885 28.8438 51.7838L28.8059 52.0461L28.7775 52.3112L28.7188 52.8424C28.6866 53.2107 28.6478 53.5771 28.6241 53.9445C28.6005 54.3119 28.5673 54.6774 28.5541 55.0447L28.5257 55.5939C28.5162 55.7766 28.5134 55.9603 28.5068 56.1431C28.4623 57.6078 28.484 59.0717 28.5617 60.5601C28.5939 61.3034 28.6421 62.0561 28.6923 62.8108L28.8551 65.104C28.9091 65.8748 28.9678 66.6521 29.0161 67.4342L29.1694 69.6962L29.2168 70.2454L29.2414 70.4982L29.2537 70.6194L29.2679 70.733C29.295 70.9812 29.3403 71.2271 29.4033 71.4687C29.4393 71.6128 29.4953 71.7512 29.5699 71.8797C29.586 71.9005 29.5973 71.9251 29.6134 71.945C29.6295 71.9649 29.6409 71.9857 29.6579 72.0027L29.6825 72.0312C29.69 72.0424 29.6986 72.0528 29.7081 72.0624C29.7317 72.0851 29.7507 72.1107 29.7724 72.1344C29.955 72.3253 30.1774 72.4737 30.4238 72.569C30.6563 72.6618 30.9067 72.7012 31.1565 72.6845L33.4067 72.6135L35.727 72.551C38.8207 72.4658 41.9153 72.4061 45.009 72.3559L47.3302 72.3237L48.4889 72.3114H48.629L48.6679 72.3048C48.6932 72.3009 48.7189 72.2993 48.7445 72.3001C48.771 72.3048 48.7938 72.2896 48.8184 72.2868C48.8423 72.281 48.8667 72.2775 48.8913 72.2764C49.0819 72.2312 49.2605 72.1453 49.4148 72.0245C49.5757 71.9057 49.7056 71.7498 49.7934 71.57C49.8809 71.3953 49.93 71.2038 49.9373 71.0086L49.943 70.9707V69.9585V68.7977L49.9572 64.1581L49.997 59.5186C49.997 59.3093 49.997 59.1929 50.0168 58.7999C50.0244 58.6342 50.0348 58.4685 50.0471 58.3038C50.0594 58.139 50.0907 57.9733 50.1143 57.8086C50.138 57.6438 50.1664 57.48 50.1986 57.3162C50.2308 57.1524 50.2791 56.9924 50.3217 56.8314C50.4068 56.5095 50.5121 56.1933 50.6369 55.8846C50.6672 55.8069 50.6965 55.7293 50.7316 55.6526L50.8376 55.4263C50.9095 55.2767 50.9834 55.1271 51.0582 54.9794C51.0941 54.9036 51.1367 54.8326 51.1793 54.7616L51.3081 54.5486C51.3961 54.4075 51.4823 54.2645 51.576 54.1291C51.6697 53.9937 51.7729 53.864 51.8733 53.7324C51.9736 53.6008 52.0739 53.4692 52.1875 53.3537C52.4044 53.1051 52.6354 52.8692 52.8796 52.6473C53.857 51.7536 55.0212 51.089 56.2875 50.7015C56.6056 50.6182 56.9246 50.5302 57.2475 50.4743C57.4093 50.4487 57.5722 50.4251 57.735 50.4042L57.9783 50.373C58.0597 50.3645 58.1411 50.3626 58.2225 50.3578C58.3853 50.3493 58.5482 50.3436 58.711 50.3389H58.8331H58.8937H58.9325H59.0774L59.6577 50.3512C61.2055 50.3834 62.7523 50.4279 64.2963 50.4705C65.8403 50.5131 67.391 50.5652 68.935 50.6192L70.0956 50.6627L70.6759 50.6836L70.9656 50.6949H71.0385H71.1464C71.4581 50.7152 71.7706 50.6684 72.0627 50.5576L72.0921 50.5491L72.1186 50.5349L72.1726 50.5074C72.2085 50.4904 72.2464 50.4752 72.2843 50.4582C72.3221 50.4412 72.3515 50.4137 72.3874 50.3929C72.4248 50.3752 72.4601 50.3533 72.4925 50.3275C72.5608 50.28 72.6266 50.2287 72.6894 50.1742C72.7197 50.1457 72.7513 50.1183 72.7841 50.0918C72.8153 50.0634 72.8399 50.0293 72.8702 49.9971C73.1094 49.7437 73.2861 49.438 73.3862 49.1042C73.3947 49.0607 73.407 49.0181 73.4193 48.9754L73.4392 48.9101C73.4449 48.8881 73.4487 48.8656 73.4505 48.8429C73.4562 48.7984 73.4638 48.7482 73.4723 48.7075L73.4799 48.6734C73.4838 48.6586 73.4857 48.6433 73.4856 48.6279L73.4931 48.4821L73.5528 47.3213L73.6806 44.9996C73.8554 41.9034 74.0555 38.8076 74.2808 35.712C74.395 34.1636 74.5165 32.6171 74.6452 31.0725L74.6698 30.7818L74.6755 30.7098C74.6755 30.6862 74.6755 30.6587 74.6812 30.6445L74.6869 30.5394L74.702 30.3283V30.2752V30.2222V30.1171C74.702 30.0461 74.702 29.9751 74.6973 29.9031L74.6689 29.691C74.6623 29.6192 74.6518 29.5478 74.6377 29.477L74.5875 29.2659L74.5629 29.1589C74.5534 29.1239 74.5392 29.0898 74.5279 29.0557L74.4569 28.8464C74.4325 28.7763 74.4034 28.708 74.3698 28.6419L74.2751 28.4365L74.1624 28.2414C74.1274 28.1741 74.0879 28.1093 74.0441 28.0473L73.9116 27.8579C73.8889 27.8276 73.868 27.7935 73.8444 27.7632L73.7677 27.6771C73.3572 27.1899 72.8451 26.7985 72.2672 26.5305C72.1924 26.4973 72.1158 26.4708 72.0391 26.4358C71.9624 26.4007 71.8867 26.3714 71.8081 26.3487L71.5676 26.2824C71.488 26.2569 71.4067 26.237 71.3243 26.2227L71.0744 26.1792L70.9476 26.1574L70.8018 26.1413L70.2215 26.0779C68.6737 25.9027 67.1259 25.7294 65.5771 25.5145C67.1231 25.2844 68.6699 25.0969 70.2158 24.9076L70.7961 24.8384L70.9409 24.8214L71.1038 24.8119L71.4332 24.7949C71.5439 24.7878 71.6548 24.7878 71.7655 24.7949L72.0997 24.8138C72.2114 24.8214 72.3212 24.8441 72.4319 24.8593C72.5427 24.8744 72.6554 24.8924 72.7661 24.9151C73.6687 25.114 74.5147 25.5144 75.2407 26.0864L75.3808 26.1943C75.4262 26.2312 75.4679 26.2729 75.5114 26.3117L75.7708 26.5532C75.8565 26.6349 75.9377 26.7212 76.0141 26.8117L76.2498 27.0796L76.4619 27.3694C76.5353 27.4643 76.603 27.5636 76.6645 27.6667L76.8481 27.9801C76.8775 28.0321 76.9097 28.0842 76.9371 28.1382L77.0138 28.3029L77.1653 28.6362C77.2173 28.747 77.2495 28.8644 77.2921 28.9799C77.3347 29.0955 77.3726 29.2119 77.4085 29.3293L77.4937 29.6891L77.5345 29.87L77.5543 29.9647L77.5666 30.0593L77.614 30.4277L77.6357 30.6123L77.6499 30.7647L77.6774 31.0545C77.8213 32.6016 77.957 34.1481 78.0845 35.694C78.3413 38.7871 78.5704 41.8801 78.7717 44.9731L78.9204 47.2938L78.9914 48.4537L78.9999 48.5986C78.9999 48.6175 78.9999 48.6639 78.9999 48.698V48.8088C78.9999 48.9565 78.9999 49.1042 78.9999 49.2529C78.9999 49.3267 78.9999 49.4015 78.9914 49.4754L78.9696 49.6979C78.9535 49.8456 78.9374 49.9942 78.9185 50.1429C78.7275 51.3439 78.269 52.4865 77.5768 53.4863C76.8846 54.4861 75.9766 55.3174 74.9198 55.9187C73.8388 56.5316 72.6333 56.8921 71.3934 56.9735L71.1615 56.9905H71.0668H70.994L70.7043 57.0038L70.124 57.0312L68.9643 57.0852C67.4175 57.1515 65.8706 57.2187 64.3257 57.2746C62.7807 57.3304 61.232 57.391 59.687 57.4365L59.1067 57.4554H58.9619H58.9287H58.9174L58.8937 57.4601C58.8625 57.4671 58.8309 57.4715 58.799 57.4734C58.7839 57.4734 58.7687 57.4734 58.7536 57.4734L58.711 57.4876C58.6827 57.4958 58.654 57.5021 58.6249 57.5065H58.6031L58.5832 57.516L58.5434 57.533C58.5164 57.5432 58.4885 57.5511 58.4601 57.5567C58.2439 57.6569 58.0523 57.8033 57.8988 57.9856C57.8589 58.0264 57.8225 58.0704 57.7899 58.1172C57.7703 58.1376 57.7546 58.1613 57.7435 58.1873C57.7288 58.2116 57.7127 58.235 57.6952 58.2574C57.6829 58.282 57.6744 58.3095 57.6602 58.3331L57.6403 58.3691C57.6315 58.3796 57.625 58.3919 57.6214 58.4051C57.6139 58.4313 57.6044 58.457 57.593 58.4818C57.5873 58.4941 57.5816 58.5064 57.575 58.5187C57.5684 58.531 57.5693 58.5452 57.5665 58.5585C57.5483 58.6088 57.5353 58.6608 57.5277 58.7138C57.5236 58.74 57.5176 58.766 57.5097 58.7914C57.5097 58.8179 57.5097 58.8454 57.5097 58.8719C57.505 58.8985 57.5021 58.9254 57.5012 58.9524C57.503 58.9801 57.503 59.0079 57.5012 59.0357C57.4955 59.0291 57.5012 59.2999 57.5012 59.4779L57.5845 64.1174L57.6422 68.757L57.6507 69.9178V70.4982V70.7879V70.9394L57.6432 71.1913C57.6114 72.5484 57.2749 73.881 56.6586 75.0904C56.0379 76.2959 55.1549 77.3468 54.0747 78.1661C52.9944 78.9854 51.7444 79.5521 50.4163 79.8246C50.251 79.8531 50.0844 79.8796 49.9165 79.9042C49.7499 79.9269 49.5833 79.9572 49.4157 79.9638C49.2482 79.9705 49.0806 79.9837 48.913 79.9903L48.6622 79.9998H48.5116H47.351L45.0308 79.9903C41.9383 79.9689 38.8437 79.9326 35.7468 79.8815L33.4256 79.8407L31.0344 79.7849C30.3804 79.7637 29.7309 79.6684 29.0984 79.5008C27.216 78.998 25.556 77.8794 24.3831 76.3232C24.2884 76.1935 24.1938 76.06 24.1048 75.9265C24.0158 75.793 23.9249 75.6424 23.8397 75.4985C23.7545 75.3546 23.6788 75.2012 23.6012 75.0506C23.5235 74.9001 23.461 74.7467 23.3938 74.5933C23.155 74.0146 22.9808 73.4113 22.8741 72.7943C22.7853 72.2768 22.7306 71.7539 22.7103 71.2292L22.7028 71.054L22.698 70.8855C22.698 70.7709 22.6924 70.6658 22.6914 70.5588V69.9481L22.7397 67.5677L22.7899 65.2565C22.8202 63.7055 22.8656 62.1243 22.9574 60.5166C23.0048 59.7146 23.072 58.9069 23.1468 58.0945C23.1922 57.6883 23.2301 57.2831 23.2869 56.8778L23.3673 56.2699C23.3938 56.0673 23.4279 55.8656 23.462 55.663C23.5803 54.8544 23.7337 54.0534 23.8993 53.2533C23.9817 52.8547 24.0764 52.4589 24.1644 52.0622C24.2108 51.8614 24.2657 51.655 24.3168 51.4524L24.3954 51.1475L24.4825 50.8426C24.7085 50.0239 24.98 49.2185 25.2957 48.4301C25.6127 47.632 25.9834 46.8564 26.4052 46.1084C26.8234 45.3567 27.2981 44.6379 27.8252 43.9581L28.0221 43.7043C28.0864 43.6191 28.1537 43.5358 28.2247 43.4553L28.6412 42.9696C28.7832 42.8115 28.9309 42.6581 29.0767 42.5037C29.1505 42.428 29.2215 42.3494 29.2972 42.2756L29.5254 42.0549C29.6797 41.911 29.8264 41.7595 29.9864 41.6222L30.4597 41.2085C30.6178 41.0712 30.7863 40.9471 30.9482 40.8165C31.1101 40.6858 31.2748 40.558 31.4424 40.4377C32.0988 39.9533 32.7814 39.5054 33.4872 39.096C34.182 38.688 34.897 38.3154 35.6295 37.9797C36.3555 37.6436 37.0911 37.3368 37.8371 37.0698C39.3174 36.5349 40.8361 36.1126 42.3801 35.8067Z"
        fill="#0A83CF" />
    <path
        d="M22.3282 45.5677C22.2382 45.3149 22.1521 45.0593 22.0726 44.8027C21.993 44.5461 21.922 44.2848 21.8491 44.0234C21.8141 43.8928 21.7819 43.7612 21.7545 43.6286C21.727 43.496 21.6911 43.3644 21.6646 43.2319L21.5803 42.8314L21.5065 42.427C21.3168 41.3289 21.2359 40.2148 21.2651 39.1008C21.2809 38.5274 21.3309 37.9554 21.4146 37.3879C21.4516 37.1039 21.5093 36.8141 21.5708 36.5254C21.5973 36.3814 21.639 36.2413 21.674 36.0955C21.709 35.9497 21.7441 35.8114 21.7876 35.6656C22.1291 34.4933 22.6394 33.377 23.3023 32.3517L23.5692 31.9729C23.6592 31.8451 23.7472 31.7154 23.8466 31.5942C24.0426 31.3518 24.2328 31.099 24.4477 30.8717L24.7668 30.5233C24.8756 30.4106 24.9911 30.3046 25.1038 30.1947C25.2164 30.0849 25.33 29.9751 25.4465 29.87L25.8043 29.5651C26.7635 28.7707 27.8165 28.0969 28.9397 27.5587C29.0779 27.4924 29.2161 27.4205 29.3552 27.358L29.7746 27.1771L30.1968 27.0001C30.3379 26.9433 30.4751 26.8969 30.6143 26.8448C30.8936 26.7454 31.1709 26.6365 31.453 26.5465L31.8753 26.4074C32.0154 26.3591 32.1593 26.3231 32.3069 26.2805L32.7405 26.1583L33.1722 26.0504C33.4619 25.9746 33.7468 25.914 34.0327 25.8516C34.6007 25.7285 35.1687 25.6319 35.7282 25.5391C37.9585 25.185 40.0734 25.0164 41.9837 24.7324C42.2195 24.6955 42.4571 24.6595 42.6862 24.6197L43.3488 24.4881C43.4586 24.4663 43.5703 24.4512 43.6792 24.4228L44.0086 24.3442C44.2273 24.2893 44.4479 24.2495 44.6647 24.1842C45.0992 24.0563 45.5337 23.9427 45.9626 23.795L46.2854 23.6899L46.4463 23.6378L46.6063 23.5772L47.2443 23.3396C50.6353 22.014 53.8265 19.9555 56.8312 17.4994L56.8785 17.4615C57.4111 17.0261 58.0509 16.7418 58.7311 16.6386C59.4112 16.5354 60.1065 16.617 60.7443 16.8749C61.382 17.1328 61.9387 17.5575 62.356 18.1045C62.7732 18.6515 63.0358 19.3006 63.1161 19.9839L63.1454 20.233L63.1682 20.4488L63.2098 20.8692C63.2357 21.1457 63.2584 21.4197 63.278 21.6911C63.3206 22.2365 63.348 22.7771 63.3726 23.3178C63.4133 24.3981 63.4285 25.4775 63.4001 26.5579C63.3717 27.6383 63.3215 28.7224 63.2212 29.8065C63.1738 30.3488 63.1164 30.8916 63.0489 31.4351C62.9807 31.9777 62.8974 32.5221 62.8103 33.0656C62.4539 35.2832 61.8741 37.4591 61.0798 39.56C60.659 40.649 60.1594 41.706 59.585 42.7225C58.9938 43.7738 58.3017 44.7651 57.5185 45.6823C57.116 46.1502 56.6875 46.595 56.2348 47.0145C56 47.2209 55.7738 47.4311 55.5276 47.6252C55.4055 47.7199 55.2872 47.8231 55.1613 47.9159L54.7826 48.1924L54.688 48.2606L54.5838 48.3316L54.3756 48.4708C54.245 48.5621 54.1098 48.6465 53.9704 48.7236L53.2074 49.1421C52.9518 49.2869 52.7019 49.3987 52.45 49.5208C52.1982 49.643 51.9512 49.7632 51.6984 49.8759C49.696 50.7584 47.5999 51.4105 45.4504 51.8198C43.3451 52.2139 41.2005 52.3582 39.0614 52.2496C36.9484 52.1332 34.8677 51.7658 32.9175 51.0879C34.9248 50.9372 36.9158 50.6173 38.8692 50.1315C40.7512 49.6619 42.5885 49.0283 44.3599 48.2378C46.0737 47.4642 47.7156 46.5403 49.2664 45.4768C49.4557 45.3462 49.6394 45.206 49.8259 45.0725C50.0124 44.939 50.2046 44.8036 50.3655 44.6654L50.8757 44.2611C50.9509 44.2046 51.0206 44.1412 51.084 44.0717L51.1787 43.9818L51.2241 43.9363L51.2743 43.8842C51.547 43.6052 51.8055 43.3126 52.0487 43.0075C52.2872 42.6931 52.5154 42.3712 52.7293 42.0332C53.5766 40.6735 54.207 39.0979 54.6596 37.405C55.1127 35.6626 55.4204 33.8855 55.5797 32.0922C55.6223 31.6339 55.6611 31.1747 55.6876 30.7108C55.7141 30.2468 55.7444 29.7848 55.7596 29.318C55.7747 28.8512 55.7851 28.3844 55.7908 27.9157C55.7965 27.447 55.7984 26.9783 55.7908 26.5077C55.7738 25.5684 55.7463 24.6263 55.6886 23.688C55.6592 23.2193 55.6242 22.7525 55.5873 22.2895C55.5683 22.0579 55.5475 21.8287 55.5248 21.6021L55.4898 21.2679L55.4557 20.9838L61.7425 23.4646C59.9765 24.9303 58.0943 26.2502 56.1146 27.411C55.6185 27.7131 55.0941 27.9791 54.581 28.2547C54.3206 28.39 54.0546 28.516 53.7915 28.6466L53.3958 28.8407L52.9925 29.0225L52.1812 29.3776L51.3538 29.7052C51.2146 29.7582 51.0793 29.8169 50.9382 29.8652L50.517 30.0139C50.233 30.1086 49.9575 30.2146 49.6706 30.2979L48.812 30.5545L48.5971 30.618L48.3794 30.6738L47.9439 30.7837C47.6523 30.8537 47.3655 30.9371 47.0683 30.991L46.185 31.1662C45.8906 31.223 45.5905 31.2609 45.2942 31.3082L44.8483 31.3745C44.7007 31.3991 44.5492 31.4086 44.4006 31.4266L43.5022 31.5137C43.2097 31.5355 42.9247 31.5506 42.6369 31.5677C40.3649 31.6775 38.2681 31.598 36.3113 31.6396C36.0709 31.6472 35.8257 31.651 35.5871 31.6614C35.3486 31.6718 35.1072 31.6813 34.8762 31.6974C34.6452 31.7135 34.4029 31.7248 34.1794 31.7476L33.8349 31.7779L33.4978 31.8186C33.2744 31.8423 33.0463 31.8792 32.8172 31.9133C32.5881 31.9474 32.3637 31.9928 32.1356 32.0316C32.0229 32.0525 31.9046 32.0704 31.7957 32.0941L31.471 32.1699L31.1444 32.2418C31.0365 32.2674 30.9324 32.3005 30.8264 32.3289C29.1224 32.7919 27.5784 33.5598 26.2994 34.7538L26.0665 34.9848C25.9899 35.0634 25.9065 35.1373 25.8365 35.2215C25.6907 35.3882 25.5364 35.5501 25.402 35.7291L25.1909 35.9932L24.993 36.2716L24.8936 36.4108C24.8614 36.4591 24.8321 36.5055 24.799 36.5566L24.6096 36.8492C24.1183 37.6759 23.7162 38.5526 23.4102 39.4644C22.7845 41.3505 22.473 43.4288 22.3282 45.5677Z"
        fill="#7CC7B9" />
    <path
        d="M94.28 53V25.48H113.08V30.12H99.96V36.8H111.2V41.44H99.96V48.36H113.08V53H94.28ZM128.46 53V25.48H134.34L145.18 42.44H145.38V25.48H150.82V53H145.42L134.1 35.12H133.9V53H128.46ZM168.206 53.32C165.966 53.32 164.113 53.1867 162.646 52.92C161.206 52.6533 160.073 52.2133 159.246 51.6C158.419 50.96 157.819 50.1067 157.446 49.04C157.073 47.9467 156.833 46.6 156.726 45C156.619 43.4 156.566 41.48 156.566 39.24C156.566 37 156.619 35.08 156.726 33.48C156.833 31.88 157.073 30.5467 157.446 29.48C157.819 28.3867 158.419 27.5333 159.246 26.92C160.073 26.28 161.206 25.8267 162.646 25.56C164.113 25.2933 165.966 25.16 168.206 25.16C170.446 25.16 172.286 25.2933 173.726 25.56C175.193 25.8267 176.339 26.28 177.166 26.92C177.993 27.5333 178.593 28.3867 178.966 29.48C179.366 30.5467 179.619 31.88 179.726 33.48C179.833 35.08 179.886 37 179.886 39.24C179.886 41.48 179.833 43.4 179.726 45C179.619 46.6 179.366 47.9467 178.966 49.04C178.593 50.1067 177.993 50.96 177.166 51.6C176.339 52.2133 175.193 52.6533 173.726 52.92C172.286 53.1867 170.446 53.32 168.206 53.32ZM168.206 48.68C169.379 48.68 170.326 48.64 171.046 48.56C171.793 48.48 172.379 48.2933 172.806 48C173.233 47.7067 173.539 47.2267 173.726 46.56C173.939 45.8933 174.073 44.9733 174.126 43.8C174.179 42.6267 174.206 41.1067 174.206 39.24C174.206 37.3733 174.179 35.8533 174.126 34.68C174.073 33.5067 173.939 32.5867 173.726 31.92C173.539 31.2533 173.233 30.7733 172.806 30.48C172.379 30.1867 171.793 30 171.046 29.92C170.326 29.84 169.379 29.8 168.206 29.8C167.059 29.8 166.113 29.84 165.366 29.92C164.646 30 164.073 30.1867 163.646 30.48C163.219 30.7733 162.899 31.2533 162.686 31.92C162.499 32.5867 162.379 33.5067 162.326 34.68C162.273 35.8533 162.246 37.3733 162.246 39.24C162.246 41.1067 162.273 42.6267 162.326 43.8C162.379 44.9733 162.499 45.8933 162.686 46.56C162.899 47.2267 163.219 47.7067 163.646 48C164.073 48.2933 164.646 48.48 165.366 48.56C166.113 48.64 167.059 48.68 168.206 48.68ZM185.647 53V25.48H199.087C200.874 25.48 202.327 25.7467 203.447 26.28C204.594 26.7867 205.434 27.56 205.967 28.6C206.527 29.6133 206.807 30.88 206.807 32.4C206.807 33.6533 206.634 34.72 206.287 35.6C205.941 36.48 205.421 37.1867 204.727 37.72C204.034 38.2533 203.141 38.64 202.047 38.88V39.04C203.274 39.28 204.247 39.68 204.967 40.24C205.714 40.7733 206.247 41.4933 206.567 42.4C206.887 43.28 207.047 44.3867 207.047 45.72C207.047 46.8133 206.914 47.8133 206.647 48.72C206.381 49.6 205.941 50.36 205.327 51C204.741 51.64 203.941 52.1333 202.927 52.48C201.914 52.8267 200.647 53 199.127 53H185.647ZM191.327 48.44H197.247C198.314 48.44 199.154 48.3467 199.767 48.16C200.381 47.9467 200.794 47.5867 201.007 47.08C201.247 46.5467 201.367 45.8133 201.367 44.88C201.367 43.9733 201.247 43.2667 201.007 42.76C200.767 42.2267 200.341 41.8533 199.727 41.64C199.141 41.4267 198.314 41.32 197.247 41.32H191.327V48.44ZM191.327 36.84H197.047C198.061 36.84 198.861 36.7333 199.447 36.52C200.061 36.3067 200.487 35.96 200.727 35.48C200.994 34.9733 201.127 34.32 201.127 33.52C201.127 32.5867 201.007 31.88 200.767 31.4C200.554 30.8933 200.154 30.5467 199.567 30.36C199.007 30.1733 198.167 30.08 197.047 30.08H191.327V36.84ZM209.959 53L219.279 25.48H226.879L236.199 53H230.399L228.359 46.92H217.599L215.639 53H209.959ZM219.039 42.32H226.879L223.079 30.64H222.839L219.039 42.32ZM243.784 53V30.28H235.824V25.48H257.424V30.28H249.464V53H243.784Z"
        fill="#0A83CF" />
</svg>